<?xml version="1.0" standalone="no"?>
<!DOCTYPE svg PUBLIC "-//W3C//DTD SVG 20010904//EN"
 "http://www.w3.org/TR/2001/REC-SVG-20010904/DTD/svg10.dtd">
<svg version="1.0" xmlns="http://www.w3.org/2000/svg"
 width="474.000000pt" height="244.000000pt" viewBox="0 0 474.000000 244.000000"
 preserveAspectRatio="xMidYMid meet">
<metadata>
Created by potrace 1.16, written by Peter Selinger 2001-2019
</metadata>
<g transform="translate(0.000000,244.000000) scale(0.100000,-0.100000)"
fill="#000000" stroke="none">
<path d="M0 2229 c0 -190 2 -213 18 -225 16 -13 16 -13 0 -14 -17 0 -18 -23
-17 -332 0 -209 4 -327 10 -318 8 14 10 -6 9 -113 0 -16 2 -33 6 -38 9 -16 32
8 39 42 4 16 10 29 14 29 16 0 60 -60 55 -75 -3 -8 -2 -15 4 -15 6 0 12 5 14
12 3 7 7 5 11 -6 4 -9 3 -15 -2 -11 -5 3 -11 0 -13 -7 -3 -7 -12 -4 -27 11
-12 12 -25 20 -29 17 -3 -4 3 -13 14 -22 16 -13 16 -15 2 -10 -13 4 -15 1 -11
-12 3 -9 3 -14 -2 -10 -4 4 -15 3 -24 -2 -21 -11 -46 3 -36 20 5 8 1 11 -11 8
-14 -2 -19 -13 -20 -40 -1 -29 2 -35 15 -31 12 5 13 3 4 -7 -13 -14 -7 -40 14
-57 11 -8 12 -19 4 -45 -5 -18 -10 -27 -10 -20 -1 6 -8 12 -16 12 -13 0 -15
-23 -15 -151 0 -135 2 -150 15 -139 9 7 18 10 22 6 3 -3 2 -6 -3 -6 -5 0 -10
-19 -12 -42 -1 -22 -6 -46 -9 -52 -4 -6 -9 -54 -11 -107 -4 -91 -3 -96 20
-111 36 -23 71 -29 109 -17 19 6 54 14 79 18 40 6 45 9 43 31 -1 14 1 19 3 13
10 -23 26 -14 20 11 -5 19 -1 26 13 31 17 5 26 21 36 63 6 26 15 25 15 -2 0
-15 -9 -44 -20 -66 -11 -22 -20 -42 -20 -45 0 -9 38 -6 44 4 3 5 15 7 25 4 22
-6 33 9 37 51 3 43 29 58 84 49 25 -3 53 -7 62 -7 9 0 14 -4 12 -8 -7 -12 50
1 156 33 104 32 136 50 124 71 -6 11 -5 11 8 0 13 -10 24 -10 59 2 24 8 67 19
94 25 28 5 77 21 110 34 l59 23 14 69 c21 110 42 177 68 218 45 69 77 38 68
-64 -4 -35 -2 -88 4 -117 8 -46 7 -54 -7 -58 -37 -11 -66 -31 -77 -52 -6 -13
-14 -23 -18 -22 -15 3 -73 -14 -108 -32 -25 -13 -47 -18 -64 -14 -15 4 -23 3
-20 -3 3 -5 -2 -7 -13 -4 -10 3 -22 0 -25 -6 -4 -6 -2 -11 3 -11 6 0 11 -5 11
-10 0 -6 -10 -8 -24 -4 -20 5 -34 -4 -75 -44 -28 -28 -51 -44 -51 -36 0 8 -6
14 -12 14 -9 0 -8 4 2 11 12 9 11 9 -5 4 -11 -4 -38 -14 -59 -22 -22 -8 -50
-12 -63 -8 -13 3 -23 1 -23 -4 0 -12 -69 -33 -82 -25 -5 3 -15 -1 -21 -9 -13
-17 -112 -49 -121 -40 -3 4 -6 1 -6 -5 0 -7 -6 -12 -14 -12 -8 0 -16 -5 -18
-11 -3 -9 -10 -9 -26 0 -18 10 -22 9 -22 -3 0 -9 -7 -12 -20 -9 -11 3 -28 2
-37 -2 -10 -5 -21 -7 -26 -7 -4 1 -7 -2 -7 -8 0 -5 -5 -10 -11 -10 -6 0 -8 7
-5 16 3 8 2 12 -4 9 -6 -3 -10 -13 -10 -21 0 -10 -6 -13 -19 -9 -14 4 -20 -1
-24 -25 -4 -16 -11 -30 -17 -30 -14 0 -13 33 2 48 6 6 9 14 6 17 -3 3 -13 -1
-21 -10 -9 -8 -20 -15 -26 -15 -6 0 -7 -8 -4 -17 5 -13 2 -15 -11 -10 -10 4
-19 1 -23 -9 -3 -8 -12 -13 -19 -10 -8 3 -14 1 -14 -4 0 -6 -3 -9 -8 -8 -4 1
-20 -10 -36 -25 -16 -15 -35 -27 -42 -27 -8 0 -14 -7 -14 -15 0 -17 16 -20 25
-6 7 13 65 41 65 32 0 -9 -40 -43 -40 -33 -1 4 -9 -10 -19 -31 -9 -20 -20 -34
-24 -30 -4 3 -7 2 -7 -4 0 -22 69 -7 99 21 20 19 37 27 50 23 25 -6 62 19 55
37 -3 8 -1 17 5 21 7 3 8 0 5 -9 -3 -9 -4 -16 0 -16 15 0 96 65 96 78 0 11 3
10 16 -2 8 -9 25 -16 37 -16 19 0 17 -4 -16 -38 -37 -38 -47 -67 -25 -74 6 -2
8 -10 4 -17 -5 -7 -13 -10 -20 -8 -7 3 -13 -6 -14 -22 -1 -14 -7 -27 -12 -29
-6 -2 -10 -10 -10 -18 0 -8 -7 -17 -15 -20 -17 -7 -21 -44 -5 -44 6 0 10 9 10
21 0 12 5 19 12 16 7 -2 12 -11 10 -21 -2 -9 2 -16 8 -16 5 0 10 7 10 15 0 8
5 15 10 15 6 0 10 7 10 15 0 8 7 15 15 15 8 0 20 9 27 20 7 11 20 20 29 20 30
0 41 25 30 66 -11 39 -5 84 10 84 11 0 11 -3 0 -34 -9 -21 -7 -26 13 -33 21
-7 22 -11 13 -33 -5 -14 -10 -42 -9 -62 0 -35 -12 -52 -20 -28 -4 13 -73 -20
-87 -43 -10 -15 -7 -17 33 -17 26 0 46 5 49 13 4 9 6 9 6 0 1 -9 23 -13 76
-13 l75 0 1 33 c0 17 3 26 6 20 2 -7 8 -13 12 -13 9 0 7 42 -3 58 -8 13 6 45
20 42 5 -1 10 4 12 10 3 9 -5 10 -29 5 l-34 -6 40 34 c22 19 46 32 54 29 9 -3
12 -1 7 6 -4 7 -2 12 4 12 15 0 25 -31 12 -39 -15 -9 -44 -87 -40 -108 4 -20
-20 -53 -39 -53 -7 0 -13 -7 -13 -15 0 -21 108 -22 116 -1 7 18 54 18 61 0 3
-10 23 -14 60 -14 40 0 52 3 47 13 -6 9 -4 9 7 -1 7 -6 35 -12 61 -12 37 0 48
4 48 16 0 10 7 14 18 12 9 -2 16 -10 14 -16 -3 -16 15 -15 21 1 4 10 6 10 6 0
1 -10 28 -13 101 -13 l100 0 35 37 c19 20 32 40 29 45 -3 5 0 7 8 6 7 -2 14 7
16 19 2 13 10 23 18 23 8 0 13 -4 10 -9 -4 -5 -1 -22 4 -37 6 -16 7 -30 2 -33
-5 -3 -12 -16 -16 -28 l-7 -23 175 0 c148 0 176 2 176 15 0 8 10 20 22 26 22
12 22 12 2 28 -11 9 -19 22 -16 29 2 7 -7 12 -25 12 -15 0 -23 4 -18 8 6 4 11
31 12 59 1 29 10 67 19 85 25 51 64 99 77 96 7 -1 22 2 35 6 16 5 29 3 40 -7
9 -8 22 -13 28 -10 7 2 14 -7 18 -21 3 -14 15 -30 26 -36 11 -6 20 -19 20 -30
0 -12 13 -25 35 -36 20 -9 41 -26 47 -38 6 -11 40 -58 77 -103 53 -67 71 -83
93 -83 15 0 30 5 33 10 4 6 10 8 15 5 5 -3 11 -1 15 5 3 6 18 8 33 4 15 -3 45
-8 67 -12 22 -3 402 -8 844 -9 l803 -3 -7 22 c-4 13 -10 44 -12 70 -4 39 -2
48 16 58 13 6 21 21 21 35 0 21 -5 25 -31 25 -17 0 -28 4 -24 10 3 6 14 10 23
10 9 0 28 12 43 26 23 22 41 28 114 35 113 12 122 6 84 -49 -30 -44 -37 -76
-19 -87 8 -5 0 -35 -15 -53 -2 -2 -15 4 -29 13 -21 14 -26 28 -32 76 -5 49
-10 59 -25 59 -13 0 -19 -7 -19 -24 0 -14 -7 -57 -15 -97 -13 -59 -13 -77 -3
-100 l13 -29 117 0 c69 0 118 4 118 10 0 5 -22 20 -48 32 -43 21 -47 25 -34
38 13 11 17 11 27 -3 17 -24 25 -22 68 18 21 19 40 35 42 35 3 0 -9 -23 -25
-50 -16 -28 -28 -50 -25 -50 2 0 23 18 45 41 36 37 44 40 75 35 42 -8 55 11
55 79 0 56 21 68 94 54 30 -5 55 -5 66 1 23 12 60 13 60 1 0 -5 -8 -7 -18 -5
-11 3 -28 -11 -50 -40 -33 -45 -33 -45 -15 -70 15 -20 42 -39 95 -64 5 -2 8
151 8 341 0 336 0 345 -20 350 -25 7 -25 18 0 45 18 19 20 35 20 177 0 141 -2
155 -18 155 -24 0 -49 -40 -31 -51 7 -4 17 -5 21 -3 4 3 8 -2 8 -10 0 -9 -5
-16 -11 -16 -6 0 -9 -6 -6 -14 3 -8 3 -17 0 -20 -8 -8 -33 41 -33 65 0 24 -18
33 -36 18 -10 -8 -11 -15 -5 -19 12 -7 -8 -60 -22 -60 -5 0 -6 4 -3 9 9 15
-12 61 -28 61 -15 0 -26 -21 -26 -51 0 -10 -4 -19 -10 -19 -11 0 -13 24 -14
148 -1 83 -1 84 -36 112 -42 35 -52 37 -48 8 4 -29 -28 -37 -47 -11 -11 15
-11 20 0 33 12 14 12 16 -5 17 -12 1 -20 -5 -20 -14 0 -12 -3 -13 -15 -3 -18
15 -38 3 -31 -17 5 -12 1 -14 -15 -10 -16 4 -19 2 -15 -10 10 -24 -17 -57 -60
-72 -49 -18 -114 -58 -114 -71 0 -6 -9 -10 -20 -10 -22 0 -27 15 -9 26 8 4 8
8 0 13 -7 5 -6 16 5 36 10 19 11 31 5 33 -7 2 -8 10 -1 21 5 10 7 20 5 23 -12
12 -16 221 -5 256 22 69 62 151 77 156 11 4 13 1 8 -14 -7 -22 10 -28 18 -7 4
9 8 9 16 -2 6 -10 6 -21 0 -32 -14 -27 -11 -31 18 -27 32 4 44 28 14 28 -18 0
-19 3 -9 25 11 25 41 39 69 33 9 -2 13 4 11 19 -2 12 2 24 8 28 17 10 13 48
-5 41 -38 -14 6 39 52 63 18 9 26 7 48 -13 16 -15 33 -22 43 -19 10 4 5 -5
-11 -20 -15 -15 -34 -27 -41 -27 -16 0 -14 -36 2 -52 9 -9 12 -8 12 5 0 9 11
24 25 33 14 9 25 22 25 29 0 13 43 25 86 25 13 0 24 -4 24 -9 0 -11 -48 -24
-61 -15 -5 3 -22 -2 -36 -11 l-26 -17 29 -23 c26 -21 28 -26 16 -45 -7 -11
-10 -25 -7 -30 9 -15 55 -12 51 2 -1 7 -1 10 1 6 3 -5 12 -8 20 -8 9 0 13 -3
10 -7 -4 -3 0 -14 9 -24 14 -16 14 -20 -1 -43 -10 -14 -21 -26 -25 -26 -11 0
-31 -60 -24 -72 4 -6 9 -6 13 -1 11 15 60 33 66 23 3 -5 15 -2 26 8 17 15 18
18 4 28 -23 17 2 32 48 28 l37 -3 0 440 0 440 -117 -3 -118 -3 -1 -35 c-2 -49
-7 -63 -30 -93 -16 -19 -27 -25 -45 -21 -19 5 -21 4 -9 -5 8 -6 10 -11 5 -11
-6 0 -16 5 -22 11 -9 9 -16 8 -28 -4 -18 -19 -52 -10 -84 22 -23 23 -51 18
-52 -8 0 -11 -2 -12 -6 -3 -4 9 -8 10 -18 2 -10 -9 -16 -6 -25 10 -9 17 -8 25
5 40 9 10 19 37 22 59 l6 41 -37 0 c-38 0 -44 -8 -24 -28 9 -9 6 -12 -14 -12
-21 0 -25 4 -21 20 4 13 0 20 -9 20 -9 0 -15 -13 -16 -37 -2 -32 3 -42 31 -62
18 -13 33 -32 33 -41 0 -14 -7 -15 -44 -9 -24 5 -46 8 -50 7 -11 -2 -60 20
-66 31 -4 6 -18 6 -38 0 -21 -6 -34 -5 -39 2 -3 6 -10 10 -15 10 -13 -1 -24
49 -18 76 6 22 3 23 -44 23 -38 0 -51 -4 -57 -17 -6 -17 -7 -17 -19 0 -13 16
-43 17 -482 15 -435 -3 -469 -4 -466 -20 1 -9 -6 -22 -18 -28 -11 -6 -19 -14
-19 -18 1 -4 1 -16 0 -27 -1 -17 -3 -18 -14 -5 -7 9 -22 15 -34 14 -13 -1 -23
2 -23 7 0 5 -7 6 -15 3 -11 -5 -15 1 -15 20 0 28 3 29 69 30 26 1 46 6 48 14
4 9 -28 12 -137 12 -138 0 -142 -1 -136 -20 3 -11 9 -29 12 -40 4 -11 2 -20
-4 -20 -6 0 -16 18 -22 40 -10 38 -13 40 -46 37 l-36 -2 5 -55 5 -55 -18 39
-18 39 -219 3 -218 3 -30 -27 c-46 -42 -80 -52 -199 -54 -108 -2 -109 -2 -133
27 -14 15 -41 34 -61 40 -41 14 -57 7 -106 -52 -32 -38 -32 -59 -5 -117 12
-24 19 -51 16 -60 -8 -19 -61 -42 -135 -57 -56 -12 -59 -11 -169 31 -75 29
-124 55 -146 77 -35 33 -109 72 -138 73 -14 0 -15 7 -8 43 4 23 8 57 9 75 0
27 -3 32 -24 32 -14 0 -28 -4 -31 -10 -3 -5 -13 -10 -21 -10 -8 0 -12 5 -9 10
4 6 -7 10 -24 10 -21 0 -31 -5 -31 -15 0 -8 -4 -15 -10 -15 -5 0 -10 7 -10 15
0 13 -46 15 -355 15 l-355 0 0 -211z m4200 141 c0 -12 -46 -24 -59 -15 -21 12
-11 22 24 23 19 1 35 -3 35 -8z m-3400 -72 c0 -11 -22 -10 -39 1 -7 5 -11 14
-7 20 7 11 46 -7 46 -21z m1660 12 c0 -5 -4 -10 -10 -10 -5 0 -10 5 -10 10 0
6 5 10 10 10 6 0 10 -4 10 -10z m100 -16 c0 -8 -5 -12 -10 -9 -6 4 -8 11 -5
16 9 14 15 11 15 -7z m220 -3 c0 -5 -7 -12 -16 -15 -8 -3 -13 -2 -9 3 3 5 -1
12 -7 14 -7 3 -3 6 10 6 12 1 22 -3 22 -8z m421 -17 c48 -22 62 -34 79 -68 22
-47 25 -68 11 -94 -5 -9 -16 -33 -25 -53 -18 -43 -32 -55 -69 -64 -16 -4 -38
-23 -51 -42 -23 -33 -24 -33 -30 -11 -20 66 -26 101 -31 178 -3 47 -10 100
-16 117 -10 33 -5 58 11 48 4 -3 19 -1 32 4 12 6 25 10 27 10 2 1 30 -11 62
-25z m-501 12 c0 -3 -4 -8 -10 -11 -5 -3 -10 -1 -10 4 0 6 5 11 10 11 6 0 10
-2 10 -4z m-231 -80 c1 -44 -10 -24 -14 26 -3 31 -2 37 5 23 5 -11 9 -33 9
-49z m61 35 c0 -6 -4 -13 -10 -16 -5 -3 -10 1 -10 9 0 9 5 16 10 16 6 0 10 -4
10 -9z m-1680 -11 c0 -5 -4 -10 -10 -10 -5 0 -10 5 -10 10 0 6 5 10 10 10 6 0
10 -4 10 -10z m1740 -39 c0 -29 5 -51 12 -53 18 -6 32 -114 16 -124 -17 -11
-19 -5 -32 89 -4 26 -10 47 -14 47 -4 0 -7 15 -6 33 2 50 3 57 14 57 6 0 10
-22 10 -49z m1312 4 c0 -5 -5 -11 -11 -13 -6 -2 -11 4 -11 13 0 9 5 15 11 13
6 -2 11 -8 11 -13z m-3110 -25 c3 -16 1 -30 -3 -30 -12 0 -31 39 -24 50 11 19
23 10 27 -20z m2628 10 c0 -11 -7 -20 -15 -20 -8 0 -15 9 -15 20 0 11 7 20 15
20 8 0 15 -9 15 -20z m190 -51 c0 -34 -2 -39 -14 -30 -11 9 -12 18 -3 41 6 17
13 30 14 30 2 0 3 -19 3 -41z m305 21 c3 -5 -1 -10 -10 -10 -9 0 -13 5 -10 10
3 6 8 10 10 10 2 0 7 -4 10 -10z m-3235 -10 c0 -5 -4 -10 -10 -10 -5 0 -10 5
-10 10 0 6 5 10 10 10 6 0 10 -4 10 -10z m1875 -1 c4 -6 5 -12 2 -15 -7 -7
-37 7 -37 17 0 13 27 11 35 -2z m-1833 -24 c-4 -26 -22 -35 -22 -12 0 10 18
37 26 37 1 0 -1 -11 -4 -25z m1777 -38 c1 -5 -3 -5 -9 -2 -5 3 -10 16 -9 28 0
21 1 21 9 2 5 -11 9 -24 9 -28z m61 -7 c0 -5 -4 -10 -10 -10 -5 0 -10 5 -10
10 0 6 5 10 10 10 6 0 10 -4 10 -10z m-51 -27 c0 -10 6 -40 14 -68 16 -53 15
-61 -3 -50 -7 4 -10 16 -7 26 3 11 2 19 -3 19 -9 0 -19 60 -13 78 7 17 12 15
12 -5z m2011 -15 c0 -4 -6 -5 -14 -2 -8 3 -12 12 -9 21 5 12 7 12 14 1 5 -7 9
-16 9 -20z m-703 -3 c8 -9 13 -19 9 -22 -7 -7 -36 16 -36 28 0 13 10 11 27 -6z
m-927 -5 c0 -5 -2 -10 -4 -10 -3 0 -8 5 -11 10 -3 6 -1 10 4 10 6 0 11 -4 11
-10z m-2370 -20 c0 -5 -4 -10 -9 -10 -6 0 -13 5 -16 10 -3 6 1 10 9 10 9 0 16
-4 16 -10z m3105 -35 c-19 -15 -19 -16 5 -10 21 5 22 4 7 -5 -9 -6 -21 -9 -26
-5 -5 3 -11 2 -14 -2 -2 -5 -2 -2 0 6 2 8 -2 18 -9 23 -9 5 -5 8 11 8 18 0 22
4 17 18 -7 16 -6 16 11 0 16 -17 16 -19 -2 -33z m590 25 c3 -5 -1 -10 -9 -10
-9 0 -16 5 -16 10 0 6 4 10 9 10 6 0 13 -4 16 -10z m-3965 -15 c0 -8 -2 -15
-4 -15 -2 0 -6 7 -10 15 -3 8 -1 15 4 15 6 0 10 -7 10 -15z m2388 -2 c-2 -10
-11 -19 -21 -21 -16 -3 -17 -1 -7 17 13 25 33 28 28 4z m852 7 c12 -8 11 -10
-7 -10 -13 0 -23 5 -23 10 0 13 11 13 30 0z m-903 -27 c-3 -3 -11 -2 -17 2 -9
6 -9 10 1 16 14 8 27 -7 16 -18z m-1887 7 c0 -5 -5 -10 -11 -10 -5 0 -7 5 -4
10 3 6 8 10 11 10 2 0 4 -4 4 -10z m2880 -41 c0 -6 -4 -7 -10 -4 -5 3 -10 11
-10 16 0 6 5 7 10 4 6 -3 10 -11 10 -16z m-1141 -5 c23 -16 23 -20 17 -107 -4
-50 -11 -98 -16 -108 -6 -10 -10 -32 -10 -50 0 -27 3 -31 21 -26 15 4 22 -1
30 -19 12 -33 12 -34 -6 -28 -10 4 -15 0 -15 -11 0 -11 -6 -15 -18 -11 -14 5
-18 -1 -18 -35 -1 -27 -9 -48 -22 -62 -20 -19 -22 -20 -28 -3 -8 22 12 196 24
208 4 4 5 38 1 76 -10 85 -11 177 -2 185 10 10 16 9 42 -9z m-2069 -4 c0 -5 7
-10 15 -10 30 0 15 -28 -17 -33 -42 -6 -46 -3 -40 28 3 16 11 25 23 25 11 0
19 -4 19 -10z m241 -3 c-1 -12 -15 -9 -19 4 -3 6 1 10 8 8 6 -3 11 -8 11 -12z
m64 -6 c3 -5 1 -12 -5 -16 -5 -3 -10 1 -10 9 0 18 6 21 15 7z m1908 -53 c11 2
15 -2 11 -13 -7 -18 -16 -19 -32 -3 -9 9 -12 9 -12 1 0 -7 5 -15 10 -18 6 -3
10 -11 10 -16 0 -6 -3 -8 -7 -6 -5 3 -9 -11 -10 -31 -1 -19 -8 -39 -15 -43 -7
-5 -9 -9 -5 -9 9 0 -18 -30 -27 -30 -12 0 -6 19 11 36 24 24 29 104 8 143 -22
44 -8 58 19 19 13 -19 29 -32 39 -30z m-2386 22 c14 -11 21 -20 16 -20 -6 0
-20 9 -33 20 -13 11 -20 20 -16 20 4 0 19 -9 33 -20z m2948 0 c8 -13 -5 -13
-25 0 -13 8 -13 10 2 10 9 0 20 -4 23 -10z m-2488 -26 c-7 -7 -37 7 -37 17 0
6 9 5 21 -1 11 -7 19 -14 16 -16z m2153 5 c0 -5 7 -9 15 -9 8 0 15 -5 15 -11
0 -5 5 -7 12 -3 7 5 8 3 3 -5 -7 -13 25 -51 44 -51 5 0 11 -12 13 -27 2 -22 8
-28 28 -29 51 -1 54 -5 16 -24 -38 -19 -62 -18 -50 1 5 9 -44 77 -88 121 -9 9
-21 26 -27 37 -10 17 -9 20 4 15 8 -4 15 -10 15 -15z m-2125 -36 c-9 -77 -17
-113 -26 -119 -12 -7 -11 -1 1 32 6 15 11 48 12 73 0 25 2 49 5 54 10 18 13 4
8 -40z m2950 27 c3 -5 1 -10 -4 -10 -6 0 -11 5 -11 10 0 6 2 10 4 10 3 0 8 -4
11 -10z m875 -20 c0 -5 -4 -10 -10 -10 -5 0 -10 5 -10 10 0 6 5 10 10 10 6 0
10 -4 10 -10z m-1397 -51 c46 -46 50 -57 8 -25 -8 6 -21 11 -30 12 -9 1 -26 2
-39 3 -13 0 -20 6 -17 11 9 14 42 12 48 -2 4 -10 6 -10 6 0 1 7 -10 18 -24 24
-14 6 -25 15 -25 20 0 19 23 5 73 -43z m1557 26 c7 -8 8 -15 2 -15 -5 0 -15 7
-22 15 -7 8 -8 15 -2 15 5 0 15 -7 22 -15z m-1110 -21 c0 -16 -9 -18 -30 -4
-13 9 -13 11 0 19 17 12 30 5 30 -15z m-2930 -16 c0 -6 -6 -5 -15 2 -8 7 -15
14 -15 16 0 2 7 1 15 -2 8 -4 15 -11 15 -16z m2317 16 c-3 -3 -12 -4 -19 -1
-8 3 -5 6 6 6 11 1 17 -2 13 -5z m340 -12 c6 -4 15 -20 18 -35 8 -32 -11 -37
-50 -11 -28 18 -33 34 -10 34 8 0 15 5 15 10 0 12 10 13 27 2z m-707 -62 c0
-5 -2 -10 -4 -10 -3 0 -8 5 -11 10 -3 6 -1 10 4 10 6 0 11 -4 11 -10z m120
-10 c0 -5 -4 -10 -10 -10 -5 0 -10 5 -10 10 0 6 5 10 10 10 6 0 10 -4 10 -10z
m957 -30 c14 -24 19 -41 13 -45 -6 -4 -8 -10 -5 -15 9 -14 -27 -35 -62 -35
-18 -1 -33 0 -33 1 0 15 14 32 23 27 6 -3 7 -1 3 6 -10 16 3 53 16 45 7 -5 9
-1 5 9 -7 18 1 47 12 47 3 0 16 -18 28 -40z m-446 13 c13 -16 12 -17 -3 -4
-17 13 -22 21 -14 21 2 0 10 -8 17 -17z m-3181 -13 c0 -5 -4 -10 -10 -10 -5 0
-10 5 -10 10 0 6 5 10 10 10 6 0 10 -4 10 -10z m70 -35 c0 -10 -5 -11 -25 -2
-14 7 -25 20 -25 30 0 16 2 16 25 1 14 -9 25 -22 25 -29z m2600 -14 c0 -37
-22 -11 -26 31 -3 31 -3 32 11 14 8 -11 15 -31 15 -45z m-2387 29 c21 -25 22
-31 2 -24 -8 4 -22 0 -31 -7 -14 -11 -18 -10 -31 6 -12 18 -12 20 4 24 16 3
16 4 -2 12 -17 6 -15 8 10 8 19 1 37 -7 48 -19z m3078 -8 c8 -22 8 -22 -16 -5
-28 21 -32 36 -9 31 9 -2 21 -13 25 -26z m21 6 c-7 -7 -12 -8 -12 -2 0 14 12
26 19 19 2 -3 -1 -11 -7 -17z m-922 2 c0 -5 -2 -10 -4 -10 -3 0 -8 5 -11 10
-3 6 -1 10 4 10 6 0 11 -4 11 -10z m-2051 -81 c-8 -4 -20 -3 -28 4 -8 7 -16
11 -18 9 -3 -2 -7 -1 -10 2 -4 3 -1 6 5 6 7 0 12 6 12 14 0 8 9 18 20 21 11 3
21 12 22 18 1 7 3 -6 5 -27 3 -25 0 -42 -8 -47z m3129 56 c-3 -3 -9 2 -12 12
-6 14 -5 15 5 6 7 -7 10 -15 7 -18z m-2978 -14 c0 -11 -4 -23 -10 -26 -6 -4
-10 5 -10 19 0 14 5 26 10 26 6 0 10 -9 10 -19z m2520 -14 c0 -3 -7 -7 -15
-11 -11 -4 -15 2 -15 20 0 23 2 24 15 10 8 -8 15 -17 15 -19z m-65 0 c4 5 5 3
2 -3 -3 -6 2 -16 13 -24 19 -13 16 -45 -3 -33 -6 4 -8 0 -4 -10 3 -9 2 -19 -3
-22 -5 -3 -15 15 -21 40 -6 25 -15 48 -20 51 -5 3 -9 10 -9 16 0 6 8 4 18 -5
10 -10 22 -14 27 -10z m152 -11 c-4 -10 0 -12 13 -9 19 5 19 4 0 -35 -11 -23
-20 -47 -20 -54 0 -9 -3 -9 -12 0 -17 17 -38 15 -38 -3 0 -13 -2 -13 -14 -3
-12 11 -11 17 6 40 10 15 18 35 16 44 -2 9 3 19 11 22 9 3 11 0 6 -9 -4 -8 1
-6 11 4 22 21 28 22 21 3z m-2968 -99 c11 -26 21 -49 21 -52 0 -14 -40 38 -45
57 -3 13 -19 38 -35 57 -39 44 -38 50 4 14 18 -15 43 -49 55 -76z m2049 12
c23 -31 42 -61 42 -67 0 -6 12 -12 28 -14 27 -3 27 -3 -27 -56 -54 -52 -79
-66 -41 -22 20 24 26 46 13 52 -10 4 -67 77 -81 105 -13 23 -16 66 -6 76 8 7
17 -2 72 -74z m-1717 34 c-10 -17 -10 -16 -11 3 0 23 13 41 18 25 2 -6 -1 -18
-7 -28z m2149 33 c0 -3 -4 -8 -10 -11 -5 -3 -10 -1 -10 4 0 6 5 11 10 11 6 0
10 -2 10 -4z m-2244 -44 c-10 -10 -29 15 -21 28 6 9 10 8 17 -4 6 -10 7 -20 4
-24z m3023 -37 c0 -5 -6 1 -14 15 -8 14 -14 30 -14 35 0 6 6 -1 14 -15 8 -14
14 -29 14 -35z m-854 -8 c5 -18 9 -45 9 -62 1 -16 4 -35 9 -42 4 -6 5 -29 3
-49 -4 -26 3 -58 20 -101 20 -50 23 -66 14 -83 -7 -12 -18 -19 -25 -16 -8 3
-17 1 -20 -4 -4 -6 9 -10 29 -10 43 0 52 -12 25 -36 -18 -16 -19 -16 -13 -1 6
15 0 19 -23 16 -5 -1 -7 -6 -5 -12 2 -6 -4 -5 -12 3 -14 11 -16 9 -16 -17 0
-16 -5 -34 -12 -41 -9 -9 -8 -12 7 -12 16 0 17 -2 5 -10 -9 -5 -17 -5 -20 0
-3 6 -20 13 -37 16 -26 5 -37 1 -57 -19 l-26 -26 0 32 c0 35 29 126 47 149 35
44 57 128 33 128 -5 0 -10 -6 -10 -14 0 -7 -7 -19 -15 -26 -9 -7 -14 -19 -11
-27 3 -7 1 -13 -5 -13 -5 0 -14 -10 -20 -22 -7 -16 -8 -3 -3 47 4 39 8 85 9
103 3 29 55 151 77 179 15 19 35 5 43 -30z m450 13 c3 -5 1 -10 -4 -10 -6 0
-11 5 -11 10 0 6 2 10 4 10 3 0 8 -4 11 -10z m-2625 -20 c0 -11 -4 -20 -10
-20 -5 0 -10 9 -10 20 0 11 5 20 10 20 6 0 10 -9 10 -20z m-40 0 c0 -5 -4 -10
-9 -10 -6 0 -13 5 -16 10 -3 6 1 10 9 10 9 0 16 -4 16 -10z m218 -29 c2 -12
-3 -37 -12 -55 -16 -35 -15 -62 4 -93 13 -20 36 -32 105 -54 83 -27 86 -50 12
-83 -66 -29 -116 -72 -142 -123 -11 -21 -31 -53 -45 -72 -21 -30 -25 -44 -23
-97 3 -69 -8 -86 -37 -59 -15 14 -29 16 -60 11 -44 -7 -48 0 -31 47 11 27 16
67 26 200 5 53 15 102 26 124 11 21 19 45 19 55 0 41 67 211 80 203 3 -2 16 3
30 11 32 17 44 13 48 -15z m1802 19 c0 -5 -4 -10 -10 -10 -5 0 -10 5 -10 10 0
6 5 10 10 10 6 0 10 -4 10 -10z m450 -6 c0 -8 -5 -12 -10 -9 -6 4 -8 11 -5 16
9 14 15 11 15 -7z m280 9 c0 -5 -7 -17 -15 -27 -15 -20 -20 -10 -9 18 6 16 24
22 24 9z m-762 -64 c-3 -8 -7 -3 -11 10 -4 17 -3 21 5 13 5 -5 8 -16 6 -23z
m722 19 c0 -7 -4 -19 -9 -27 -7 -10 -9 -7 -8 12 2 26 17 39 17 15z m854 -4
c27 -27 17 -36 -14 -12 -16 12 -30 23 -30 25 0 9 31 1 44 -13z m-1094 -14 c0
-11 -2 -20 -4 -20 -2 0 -6 9 -9 20 -3 11 -1 20 4 20 5 0 9 -9 9 -20z m-144
-65 c5 -34 3 -47 -4 -40 -5 6 -13 33 -17 60 -5 36 -4 47 4 40 6 -6 14 -33 17
-60z m-2311 35 c3 -5 -1 -10 -10 -10 -9 0 -13 5 -10 10 3 6 8 10 10 10 2 0 7
-4 10 -10z m3235 -9 c0 -11 15 -37 33 -60 17 -22 40 -51 49 -64 10 -14 37 -35
60 -46 24 -12 61 -44 83 -73 61 -78 147 -168 160 -168 7 0 25 -12 41 -26 l29
-26 -28 6 c-16 4 -43 21 -61 39 -17 18 -50 40 -72 50 -25 11 -49 33 -64 57
-14 22 -38 45 -55 51 -45 18 -138 37 -152 32 -7 -3 -13 0 -13 6 0 6 5 11 11
11 5 0 7 5 4 10 -3 6 -1 10 5 10 6 0 8 5 5 11 -4 6 -13 8 -21 5 -8 -3 -14 1
-14 10 0 8 -16 31 -36 50 -34 31 -36 37 -30 75 9 54 12 59 42 59 17 0 24 -6
24 -19z m60 9 c0 -5 -5 -10 -11 -10 -5 0 -7 5 -4 10 3 6 8 10 11 10 2 0 4 -4
4 -10z m-820 -33 c0 -5 -4 -5 -10 -2 -5 3 -10 14 -10 23 0 15 2 15 10 2 5 -8
10 -19 10 -23z m-2850 8 c0 -8 -4 -15 -10 -15 -5 0 -10 7 -10 15 0 8 5 15 10
15 6 0 10 -7 10 -15z m2313 -26 c-10 -4 -22 -4 -28 -1 -5 3 -4 7 2 9 7 3 9 12
6 21 -5 14 -3 14 16 -3 21 -18 21 -20 4 -26z m1682 32 c-6 -5 -26 -10 -45 -11
-53 -3 -60 2 -15 10 61 11 70 11 60 1z m-1726 -33 c0 -18 -3 -28 -5 -21 -3 7
-12 9 -21 6 -13 -5 -13 -2 2 20 22 35 25 34 24 -5z m-2165 -4 c8 -21 8 -29 -1
-21 -3 4 -15 -1 -26 -10 -11 -10 -17 -12 -12 -4 4 8 2 16 -5 21 -9 5 -9 9 -1
14 6 4 11 2 11 -3 0 -6 5 -11 11 -11 6 0 9 7 5 15 -3 8 -1 15 3 15 5 0 12 -7
15 -16z m2956 -29 c0 -5 -5 -3 -10 5 -5 8 -10 20 -10 25 0 6 5 3 10 -5 5 -8
10 -19 10 -25z m-90 5 c0 -12 -35 -31 -44 -23 -3 3 2 12 12 19 20 16 32 17 32
4z m160 -10 c0 -5 -7 -10 -15 -10 -8 0 -15 5 -15 10 0 6 7 10 15 10 8 0 15 -4
15 -10z m897 -12 c4 4 -2 -4 -14 -17 l-21 -24 -31 22 c-44 31 -38 41 13 26 24
-8 48 -11 53 -7z m-3717 2 c0 -5 -2 -10 -4 -10 -3 0 -8 5 -11 10 -3 6 -1 10 4
10 6 0 11 -4 11 -10z m1970 0 c0 -5 -4 -10 -10 -10 -5 0 -10 5 -10 10 0 6 5
10 10 10 6 0 10 -4 10 -10z m1010 6 c0 -11 -19 -15 -25 -6 -3 5 1 10 9 10 9 0
16 -2 16 -4z m-1160 -26 c0 -9 -8 -12 -27 -9 -3 0 -10 -6 -15 -15 -5 -9 -13
-14 -19 -11 -5 4 -9 0 -9 -7 0 -7 -9 -19 -20 -26 -29 -18 -27 8 3 35 41 38 87
55 87 33z m611 -32 c-19 -21 -26 -35 -19 -39 6 -4 2 -10 -11 -14 -13 -4 -25
-4 -28 -1 -4 3 1 6 10 6 10 0 14 6 11 14 -3 8 7 26 23 40 39 37 50 32 14 -6z
m719 12 c0 -5 -5 -10 -11 -10 -5 0 -7 5 -4 10 3 6 8 10 11 10 2 0 4 -4 4 -10z
m-590 -20 c0 -5 -4 -10 -10 -10 -5 0 -10 5 -10 10 0 6 5 10 10 10 6 0 10 -4
10 -10z m1094 -13 c18 -28 0 -29 -40 -2 l-39 27 34 -4 c19 -2 39 -12 45 -21z
m-1839 2 c-4 -5 -18 -14 -31 -19 -13 -5 -29 -21 -34 -34 -10 -28 -30 -43 -30
-24 0 8 -5 6 -11 -4 -5 -10 -16 -18 -23 -18 -8 0 -19 -7 -26 -15 -11 -13 -15
-13 -21 -3 -7 10 -9 10 -10 -2 -1 -8 -1 -19 0 -23 1 -5 -3 -6 -8 -3 -5 4 -22
-5 -37 -19 -15 -14 -31 -25 -36 -25 -5 0 -19 -9 -31 -20 -12 -12 -41 -26 -64
-32 -24 -5 -41 -14 -38 -18 3 -4 -7 -7 -21 -7 l-25 0 26 27 c15 16 32 27 39
24 6 -2 29 7 51 20 22 14 61 37 87 52 26 15 45 30 43 34 -7 12 -56 -1 -62 -16
-3 -8 -10 -14 -15 -14 -6 0 -4 7 3 17 8 9 13 19 12 22 -2 3 8 9 22 13 13 3 37
15 53 27 21 15 32 17 40 9 8 -8 18 -6 37 6 14 9 30 14 35 11 6 -3 10 -2 10 4
0 6 12 17 28 25 32 18 46 20 37 5z m669 -15 c9 -24 7 -28 -9 -14 -17 14 -20
30 -6 30 5 0 12 -7 15 -16z m645 -10 c2 -2 -16 -4 -40 -4 -40 1 -42 2 -25 15
17 13 42 9 65 -11z m-1429 7 c0 -5 -7 -11 -15 -15 -15 -5 -20 5 -8 17 9 10 23
9 23 -2z m1000 -1 c12 -8 12 -10 -3 -16 -22 -8 -50 3 -42 16 8 12 25 13 45 0z
m929 -16 c1 -2 0 -7 -3 -13 -9 -14 -56 8 -56 25 0 11 5 11 28 2 15 -7 29 -13
31 -14z m-3855 -29 c4 -14 11 -23 16 -20 6 3 10 2 10 -4 0 -20 -19 -21 -25 -1
-6 18 -9 19 -23 8 -14 -11 -15 -10 -9 5 4 10 7 23 7 28 0 20 18 8 24 -16z m56
-29 c0 -6 -7 -1 -15 10 -8 10 -15 23 -15 28 0 6 7 1 15 -10 8 -10 15 -23 15
-28z m47 -43 c-5 -13 -12 -21 -15 -19 -2 3 0 12 6 21 7 13 3 23 -15 41 -12 13
-23 28 -23 35 0 6 13 -3 29 -21 24 -29 27 -37 18 -57z m2623 66 c0 -5 -7 -9
-15 -9 -15 0 -20 12 -9 23 8 8 24 -1 24 -14z m280 11 c13 -9 13 -10 0 -10 -10
0 -8 -6 9 -19 27 -21 13 -38 -18 -21 -11 5 -29 10 -40 10 -24 0 -28 18 -6 26
8 4 12 10 9 15 -7 12 27 11 46 -1z m-788 -37 c10 -9 18 -28 18 -43 0 -15 3
-30 7 -34 4 -4 9 -19 11 -34 2 -14 8 -32 14 -39 7 -9 7 -13 -1 -13 -6 0 -11
-18 -11 -45 0 -48 -15 -59 -30 -22 -8 21 -9 21 -9 -7 -1 -21 -5 -27 -17 -22
-9 3 -18 6 -20 6 -2 0 -4 6 -4 14 0 25 -142 35 -255 16 -75 -12 -257 -70 -267
-84 -5 -8 -8 -7 -8 1 0 16 36 53 87 90 23 17 39 34 35 38 -4 5 -2 6 3 2 6 -3
35 12 65 34 30 21 65 44 78 51 12 6 22 15 22 20 0 4 5 8 10 8 6 0 29 12 53 27
86 54 110 64 156 58 25 -3 53 -13 63 -22z m-2295 -25 c-16 -9 -27 0 -21 17 5
11 9 12 19 2 9 -8 10 -14 2 -19z m2838 12 c13 -6 15 -9 5 -9 -8 0 -22 4 -30 9
-18 12 -2 12 25 0z m138 -7 c-4 -11 -3 -14 6 -9 6 4 17 3 24 -2 28 -22 57 -23
99 -2 60 30 86 32 100 7 21 -41 132 -157 148 -157 10 0 14 -21 11 -48 -1 -8 3
-20 9 -27 15 -18 -17 -94 -39 -95 -7 0 -11 -6 -8 -14 3 -8 -2 -16 -15 -19 -11
-3 -17 -10 -14 -15 4 -6 -3 -8 -16 -5 -14 3 -18 1 -11 -4 6 -4 -27 -9 -77 -10
-95 -2 -100 0 -118 52 -6 17 -11 23 -11 13 -1 -17 -16 -19 -40 -4 -11 7 -13 5
-8 -10 7 -18 6 -18 -7 -1 -12 15 -18 16 -35 7 -12 -6 -21 -15 -21 -20 0 -6
-10 -8 -22 -6 -13 3 -26 5 -30 5 -4 1 -14 8 -23 17 -15 15 -17 15 -30 -2 -10
-14 -17 -16 -22 -7 -5 6 -25 14 -45 18 -24 5 -39 14 -43 26 -4 10 -14 19 -23
18 -11 0 -12 -3 -4 -6 17 -6 15 -43 -2 -43 -7 0 -16 9 -19 21 -4 16 -11 19
-26 14 -20 -6 -21 -3 -15 57 3 35 7 72 9 82 2 11 -1 28 -7 39 -7 14 -7 17 1
13 6 -4 11 -5 11 -2 0 2 3 13 6 23 5 15 4 15 -5 3 -8 -11 -11 -11 -11 -2 0 7
7 15 15 18 8 4 15 13 15 21 0 8 5 11 11 8 6 -4 8 -13 5 -20 -2 -7 3 -23 13
-34 23 -26 35 -27 22 -3 -8 15 -4 23 19 40 16 12 38 23 49 25 11 2 24 6 27 10
4 4 16 7 26 7 10 0 21 6 24 14 4 10 14 12 40 6 27 -6 37 -5 41 6 3 8 9 14 14
14 4 0 5 -7 2 -17z m1080 1 c10 -10 -12 -44 -28 -44 -21 0 -28 18 -13 34 14
16 31 20 41 10z m-2243 -46 c0 -18 -23 -2 -32 22 -9 23 -8 23 12 5 11 -10 20
-22 20 -27z m865 32 c3 -5 -1 -10 -9 -10 -9 0 -16 5 -16 10 0 6 4 10 9 10 6 0
13 -4 16 -10z m-2540 -60 c-22 -25 -43 -27 -24 -2 13 15 12 16 -3 3 -19 -15
-24 -41 -8 -41 6 0 10 -5 10 -11 0 -6 -13 -1 -29 10 -21 15 -37 19 -60 15 -24
-5 -31 -3 -31 9 0 24 17 30 84 31 48 1 60 5 58 16 -3 12 -1 12 9 3 10 -10 9
-17 -6 -33z m115 14 c13 -32 13 -74 1 -74 -5 0 -7 8 -4 19 6 22 -24 54 -43 47
-8 -3 -21 -9 -29 -12 -11 -5 -13 -2 -9 10 3 9 10 13 15 10 5 -3 16 2 25 10 22
22 33 20 44 -10z m3274 10 c4 -11 1 -14 -11 -12 -9 2 -18 9 -21 16 -6 18 25
15 32 -4z m-879 -4 c3 -5 1 -10 -4 -10 -6 0 -11 5 -11 10 0 6 2 10 4 10 3 0 8
-4 11 -10z m95 0 c0 -5 -4 -10 -10 -10 -5 0 -10 5 -10 10 0 6 5 10 10 10 6 0
10 -4 10 -10z m545 -1 c10 -14 1 -21 -19 -13 -9 3 -13 10 -10 15 7 12 21 11
29 -2z m-670 -59 c4 -6 -5 -10 -20 -10 -15 0 -24 4 -20 10 3 6 12 10 20 10 8
0 17 -4 20 -10z m1100 0 c3 -5 -1 -10 -9 -10 -9 0 -16 5 -16 10 0 6 4 10 9 10
6 0 13 -4 16 -10z m345 -10 c0 -5 -7 -10 -15 -10 -8 0 -15 5 -15 10 0 6 7 10
15 10 8 0 15 -4 15 -10z m-1559 -35 c5 3 6 -1 3 -9 -10 -26 -24 -18 -23 12 1
17 3 20 6 9 2 -9 9 -15 14 -12z m-2471 11 c0 -11 -19 -15 -25 -6 -3 5 1 10 9
10 9 0 16 -2 16 -4z m1620 -36 c0 -20 -5 -30 -15 -30 -9 0 -18 -6 -21 -14 -4
-11 -12 -13 -29 -6 -23 9 -24 8 -15 -15 6 -16 6 -25 0 -25 -6 0 -10 5 -10 11
0 8 -6 7 -17 -2 -13 -11 -17 -11 -20 -1 -3 6 -13 12 -24 12 -11 0 -16 -5 -13
-14 5 -13 -30 -31 -51 -26 -5 2 -21 2 -35 2 -23 -1 -22 0 8 16 24 12 32 21 28
35 -4 17 -3 18 13 3 17 -15 22 -15 72 11 30 15 56 30 59 33 4 4 59 36 68 39 1
1 2 -12 2 -29z m-1380 -2 c11 -12 20 -25 20 -30 0 -15 -21 -8 -27 8 -6 15 -8
15 -21 -2 -13 -18 -14 -18 -7 4 4 13 2 22 -4 22 -6 0 -11 5 -11 10 0 18 29 11
50 -12z m2250 -12 c0 -3 -4 -8 -10 -11 -5 -3 -10 -1 -10 4 0 6 5 11 10 11 6 0
10 -2 10 -4z m87 -12 c8 -22 -8 -33 -40 -27 -27 5 -27 6 -11 24 21 23 43 24
51 3z m1468 6 c3 -5 1 -10 -4 -10 -6 0 -11 5 -11 10 0 6 2 10 4 10 3 0 8 -4
11 -10z m-4039 -24 c4 -25 8 -28 38 -20 15 3 23 11 19 18 -3 6 4 1 16 -11 27
-28 31 -29 24 -3 -6 24 18 27 37 5 7 -8 18 -14 24 -13 23 6 16 -13 -17 -41
-23 -20 -37 -27 -47 -21 -8 5 -18 6 -22 4 -4 -3 -5 2 -2 11 6 14 8 14 24 0 16
-15 18 -14 23 7 4 12 4 24 2 27 -3 2 -5 -1 -5 -8 0 -8 -8 -6 -25 5 -22 14 -25
14 -25 1 0 -9 -12 -16 -30 -19 -22 -3 -29 -1 -26 8 3 7 -2 18 -10 24 -8 7 -14
9 -15 4 0 -5 -4 0 -9 11 l-9 20 0 -20 c-1 -17 -3 -17 -11 -5 -14 21 -12 28 8
33 26 7 35 3 38 -17z m2478 -23 c-4 -15 -8 -38 -9 -50 0 -13 -8 -31 -18 -40
-16 -16 -17 -16 -17 10 0 16 4 26 9 22 6 -3 6 6 1 25 -6 23 -5 30 5 30 7 0 15
7 19 15 9 26 17 16 10 -12z m-804 -3 c0 -5 -4 -10 -10 -10 -5 0 -10 5 -10 10
0 6 5 10 10 10 6 0 10 -4 10 -10z m860 -15 c0 -8 5 -14 11 -12 6 1 14 -4 16
-10 3 -7 -2 -13 -11 -13 -9 0 -19 -1 -23 -2 -5 -2 -8 9 -8 25 -1 15 3 27 7 27
4 0 8 -7 8 -15z m-2285 -15 c3 -5 1 -10 -4 -10 -6 0 -11 5 -11 10 0 6 2 10 4
10 3 0 8 -4 11 -10z m-275 -22 c0 -19 -2 -20 -10 -8 -13 19 -13 30 0 30 6 0
10 -10 10 -22z m1490 2 c0 -5 -4 -10 -10 -10 -5 0 -10 5 -10 10 0 6 5 10 10
10 6 0 10 -4 10 -10z m250 -21 c0 -4 -7 -6 -15 -3 -8 4 -15 10 -15 15 0 4 7 6
15 3 8 -4 15 -10 15 -15z m576 -34 c-5 -25 -14 -39 -27 -42 -10 -3 -16 -9 -13
-14 3 -5 1 -9 -5 -9 -15 0 -23 18 -14 32 4 7 15 13 23 13 10 0 16 12 18 39 2
27 7 35 14 28 6 -6 8 -25 4 -47z m-2131 14 c-8 -12 -45 -12 -45 0 0 10 30 20
43 14 4 -3 5 -9 2 -14z m34 0 c-12 -8 -12 -10 -1 -18 15 -9 13 -53 -3 -58 -6
-2 -16 11 -24 28 -12 27 -11 32 5 48 11 10 23 16 28 13 4 -2 2 -8 -5 -13z
m-205 -11 c7 -7 21 -26 32 -43 17 -26 17 -28 1 -22 -9 3 -17 2 -17 -3 0 -6 5
-10 10 -10 6 0 10 -6 10 -14 0 -8 6 -17 13 -19 7 -3 4 -6 -7 -6 -15 -1 -17 -6
-12 -28 l6 -28 -19 22 c-10 13 -22 46 -26 75 -3 29 -9 61 -11 71 -6 20 2 22
20 5z m3596 -18 c0 -5 -8 -10 -17 -10 -15 0 -16 2 -3 10 19 12 20 12 20 0z
m-1387 -14 c11 4 17 1 17 -9 0 -13 -5 -14 -30 -6 -16 6 -27 15 -24 21 4 7 9 6
14 -1 3 -7 14 -9 23 -5z m207 -41 c0 -25 -22 -28 -44 -6 -15 16 -16 20 -5 16
10 -4 20 -1 24 4 8 14 25 4 25 -14z m-949 8 c6 -42 4 -83 -4 -83 -5 0 -7 -13
-5 -29 3 -20 0 -27 -8 -24 -7 2 -15 -1 -20 -8 -5 -8 -3 -10 6 -4 8 5 11 3 8
-6 -3 -8 -11 -13 -17 -11 -6 1 -19 -14 -28 -33 -17 -35 -41 -50 -28 -17 4 9
12 31 18 47 6 17 17 40 25 53 19 30 3 29 -66 -3 l-53 -24 -42 30 c-23 17 -49
28 -59 26 -10 -3 -21 -1 -24 4 -3 5 -17 9 -32 9 -24 0 -21 3 17 21 69 31 216
64 183 41 -9 -6 1 -11 35 -16 41 -6 50 -4 63 13 15 21 29 27 31 14z m130 -26
c-1 -4 -3 -6 -5 -4 -2 1 -14 -7 -26 -18 l-23 -20 18 28 c16 25 38 33 36 14z
m-1421 -17 c6 -11 7 -20 3 -20 -15 1 -43 27 -36 33 11 12 22 8 33 -13z m85
-37 c-9 -37 -18 -20 -9 19 4 18 9 27 11 20 3 -7 2 -24 -2 -39z m2775 15 c0
-17 -3 -18 -14 -8 -8 6 -12 18 -9 26 7 19 23 7 23 -18z m-770 -3 c0 -8 -3 -14
-7 -14 -20 3 -26 -2 -13 -11 12 -8 10 -10 -10 -11 -14 -1 -28 -1 -32 0 -5 0
-8 -3 -8 -9 0 -5 -8 -10 -17 -10 -13 0 -8 10 19 35 40 37 68 45 68 20z m-620
-5 c0 -5 -5 -10 -11 -10 -5 0 -7 5 -4 10 3 6 8 10 11 10 2 0 4 -4 4 -10z m-72
-22 c-3 -7 -10 -13 -17 -13 -6 0 -16 -7 -21 -15 -5 -8 -11 -12 -14 -9 -7 7 32
49 45 49 6 0 9 -6 7 -12z m775 -50 c7 -29 -7 -97 -24 -112 -9 -8 -11 -7 -6 7
4 9 2 17 -3 17 -14 0 -22 37 -14 75 7 41 38 49 47 13z m-2216 6 c-3 -3 -12 -4
-19 -1 -8 3 -5 6 6 6 11 1 17 -2 13 -5z m2433 -4 c0 -5 -6 -10 -14 -10 -8 0
-18 5 -21 10 -3 6 3 10 14 10 12 0 21 -4 21 -10z m-417 -15 c-3 -9 -8 -14 -10
-11 -3 3 -2 9 2 15 9 16 15 13 8 -4z m-813 -15 c0 -5 -4 -10 -9 -10 -5 0 -17
-3 -27 -7 -16 -6 -17 -5 -4 10 17 18 40 22 40 7z m166 -54 c-8 -20 -22 -36
-30 -36 -23 0 -20 21 3 27 12 3 23 18 27 37 4 17 9 26 11 19 2 -6 -3 -27 -11
-47z m-1526 34 c0 -5 -4 -10 -10 -10 -5 0 -10 5 -10 10 0 6 5 10 10 10 6 0 10
-4 10 -10z m760 -6 c0 -8 -4 -12 -10 -9 -5 3 -10 -1 -10 -9 0 -8 -16 -31 -35
-50 -19 -20 -35 -33 -35 -31 0 2 -19 -14 -42 -35 -23 -22 -46 -40 -52 -40 -6
0 -24 -18 -39 -40 -16 -22 -35 -40 -43 -40 -8 0 -12 -5 -9 -10 3 -6 -11 -26
-32 -46 -37 -35 -38 -36 -41 -13 -3 16 5 31 26 49 17 14 92 85 169 157 76 73
141 133 146 133 4 0 7 -7 7 -16z m1400 9 c0 -5 -5 -15 -10 -23 -8 -12 -10 -11
-10 8 0 12 5 22 10 22 6 0 10 -3 10 -7z m-710 -13 c0 -5 -5 -10 -11 -10 -5 0
-7 5 -4 10 3 6 8 10 11 10 2 0 4 -4 4 -10z m-64 -35 c6 -25 5 -30 -21 -75 -8
-14 -15 -37 -15 -52 0 -20 7 -28 31 -37 18 -6 42 -11 55 -11 31 0 76 -18 70
-28 -3 -5 -31 -3 -63 3 -73 15 -209 10 -257 -10 -49 -21 -63 -19 -41 5 10 11
22 20 27 20 14 0 103 43 110 54 5 7 8 4 8 -6 0 -39 21 -24 50 39 20 42 30 77
28 95 -6 35 9 37 18 3z m-789 9 c-3 -3 -12 -4 -19 -1 -8 3 -5 6 6 6 11 1 17
-2 13 -5z m834 -27 c-8 -8 -11 -7 -11 4 0 20 13 34 18 19 3 -7 -1 -17 -7 -23z
m-941 -34 c0 -13 -6 -23 -14 -23 -7 0 -16 -13 -19 -29 -3 -16 -14 -36 -23 -46
-15 -14 -19 -15 -31 -2 -8 8 -17 32 -20 53 -5 36 -3 41 26 54 48 23 81 20 81
-7z m980 -4 c-7 -11 -14 -19 -16 -16 -7 7 7 37 17 37 6 0 5 -9 -1 -21z m1730
11 c0 -5 -2 -10 -4 -10 -3 0 -8 5 -11 10 -3 6 -1 10 4 10 6 0 11 -4 11 -10z
m-2916 -15 c-7 -16 -24 -21 -24 -6 0 8 7 13 27 20 1 1 0 -6 -3 -14z m1056 6
c0 -14 -18 -23 -30 -16 -6 4 -8 11 -5 16 8 12 35 12 35 0z m950 -25 c-13 -13
-35 7 -25 24 5 8 11 8 21 -1 10 -8 12 -15 4 -23z m1947 28 c-3 -3 -12 -4 -19
-1 -8 3 -5 6 6 6 11 1 17 -2 13 -5z m-2860 -86 c-3 -7 -5 -2 -5 12 0 14 2 19
5 13 2 -7 2 -19 0 -25z m1263 22 c0 -5 -4 -10 -10 -10 -5 0 -10 5 -10 10 0 6
5 10 10 10 6 0 10 -4 10 -10z m-1850 -14 c0 -8 -4 -17 -9 -21 -12 -7 -24 12
-16 25 9 15 25 12 25 -4z m1130 -17 c0 -5 -7 -9 -15 -9 -15 0 -20 12 -9 23 8
8 24 -1 24 -14z m-1770 1 c0 -5 -2 -10 -4 -10 -3 0 -8 5 -11 10 -3 6 -1 10 4
10 6 0 11 -4 11 -10z m2505 -9 c-3 -6 -11 -11 -16 -11 -5 0 -4 6 3 14 14 16
24 13 13 -3z m-2595 -27 c0 -8 -4 -12 -10 -9 -5 3 -10 10 -10 16 0 5 5 9 10 9
6 0 10 -7 10 -16z m2614 -19 c3 -9 0 -15 -9 -15 -9 0 -12 6 -9 15 4 8 7 15 9
15 2 0 5 -7 9 -15z m592 -53 c-9 -8 -26 10 -26 26 1 15 2 15 15 -2 8 -11 13
-21 11 -24z m-2933 -43 c-5 -5 -7 7 -4 29 5 34 6 35 9 8 2 -16 0 -32 -5 -37z
m2377 51 c0 -5 -2 -10 -4 -10 -3 0 -8 5 -11 10 -3 6 -1 10 4 10 6 0 11 -4 11
-10z m-1532 -8 c9 -6 -2 -17 -35 -35 -27 -14 -57 -40 -68 -56 -23 -36 -40 -45
-62 -32 -14 7 -13 10 5 15 14 5 22 16 22 30 0 27 46 73 80 79 41 7 44 7 58 -1z
m-546 -29 c-6 -3 -10 -9 -6 -14 6 -10 -9 -12 -19 -2 -4 3 1 12 11 19 9 7 19
10 22 7 3 -3 -1 -8 -8 -10z m392 -8 c-9 -14 -19 -24 -21 -21 -6 6 20 46 30 46
4 0 0 -11 -9 -25z m-514 6 c0 -6 -5 -13 -12 -17 -7 -5 -9 -2 -4 7 4 8 0 5 -8
-5 -20 -25 -20 -37 -1 -30 8 4 15 4 15 1 0 -11 -51 -57 -62 -57 -7 0 -3 7 8
16 13 10 15 17 7 20 -9 4 -9 11 0 32 6 15 16 30 22 34 14 11 35 10 35 -1z
m209 -4 c8 -11 5 -13 -19 -9 -16 2 -27 8 -24 13 8 13 30 11 43 -4z m-464 -37
c3 -5 1 -10 -4 -10 -6 0 -11 5 -11 10 0 6 2 10 4 10 3 0 8 -4 11 -10z m410 0
c3 -5 -1 -10 -9 -10 -9 0 -16 5 -16 10 0 6 4 10 9 10 6 0 13 -4 16 -10z m229
1 c4 -5 -1 -8 -9 -7 -21 3 -31 16 -12 16 9 0 18 -4 21 -9z m41 -11 c3 -5 1
-10 -4 -10 -6 0 -11 5 -11 10 0 6 2 10 4 10 3 0 8 -4 11 -10z m-435 -51 c0 -5
-4 -9 -10 -9 -5 0 -10 7 -10 16 0 8 5 12 10 9 6 -3 10 -10 10 -16z m230 11 c0
-5 -4 -10 -10 -10 -5 0 -10 5 -10 10 0 6 5 10 10 10 6 0 10 -4 10 -10z m-150
-10 c0 -5 -4 -10 -10 -10 -5 0 -10 5 -10 10 0 6 5 10 10 10 6 0 10 -4 10 -10z"/>
<path d="M2600 1376 c0 -9 5 -16 10 -16 6 0 10 4 10 9 0 6 -4 13 -10 16 -5 3
-10 -1 -10 -9z"/>
<path d="M2648 1133 c7 -3 16 -2 19 1 4 3 -2 6 -13 5 -11 0 -14 -3 -6 -6z"/>
<path d="M2008 1093 c7 -3 16 -2 19 1 4 3 -2 6 -13 5 -11 0 -14 -3 -6 -6z"/>
<path d="M2868 958 c25 -12 28 -27 10 -48 -11 -12 -10 -12 5 -1 9 7 17 24 17
37 0 20 -5 24 -27 23 -28 0 -28 -1 -5 -11z"/>
<path d="M3390 849 c0 -5 5 -7 10 -4 6 3 10 8 10 11 0 2 -4 4 -10 4 -5 0 -10
-5 -10 -11z"/>
<path d="M2897 783 c-11 -10 -8 -33 4 -33 5 0 7 5 4 10 -3 6 -1 10 4 10 6 0
11 5 11 10 0 11 -13 13 -23 3z"/>
<path d="M3170 779 c0 -5 5 -7 10 -4 6 3 10 8 10 11 0 2 -4 4 -10 4 -5 0 -10
-5 -10 -11z"/>
<path d="M80 1000 c-13 -8 -13 -10 2 -10 9 0 20 5 23 10 8 13 -5 13 -25 0z"/>
<path d="M295 1020 c-3 -5 -1 -10 4 -10 6 0 11 5 11 10 0 6 -2 10 -4 10 -3 0
-8 -4 -11 -10z"/>
<path d="M3947 2425 c-4 -8 -2 -17 3 -20 6 -4 10 3 10 14 0 25 -6 27 -13 6z"/>
<path d="M3987 2434 c-7 -8 2 -55 13 -67 7 -8 60 47 60 64 0 10 -63 13 -73 3z"/>
<path d="M4440 1702 c0 -5 11 -12 25 -15 16 -3 24 0 22 7 -4 14 -47 21 -47 8z"/>
<path d="M4400 1660 c0 -5 7 -10 15 -10 8 0 15 5 15 10 0 6 -7 10 -15 10 -8 0
-15 -4 -15 -10z"/>
<path d="M4475 1640 c3 -5 8 -10 11 -10 2 0 4 5 4 10 0 6 -5 10 -11 10 -5 0
-7 -4 -4 -10z"/>
<path d="M4430 1575 c0 -8 5 -15 10 -15 6 0 10 7 10 15 0 8 -4 15 -10 15 -5 0
-10 -7 -10 -15z"/>
<path d="M4142 1560 c0 -14 2 -19 5 -12 2 6 2 18 0 25 -3 6 -5 1 -5 -13z"/>
<path d="M4121 1545 c-1 -24 9 -40 29 -47 11 -4 16 0 16 13 0 11 -5 18 -11 16
-5 -2 -15 5 -22 17 -12 20 -12 20 -12 1z"/>
<path d="M4112 1473 c2 -11 13 -18 26 -19 23 -1 23 -1 3 17 -25 24 -33 24 -29
2z"/>
<path d="M4650 1435 c0 -19 4 -35 9 -35 11 0 24 48 16 60 -13 21 -25 8 -25
-25z"/>
<path d="M4485 1410 c-3 -5 1 -10 9 -10 9 0 16 5 16 10 0 6 -4 10 -9 10 -6 0
-13 -4 -16 -10z"/>
<path d="M4580 1361 c-21 -6 -22 -9 -9 -17 8 -5 19 -17 22 -28 6 -15 10 -16
23 -6 16 14 16 52 -1 56 -5 1 -21 -1 -35 -5z"/>
<path d="M4545 1280 c3 -5 10 -10 16 -10 5 0 9 5 9 10 0 6 -7 10 -16 10 -8 0
-12 -4 -9 -10z"/>
<path d="M4127 1196 c-10 -14 -13 -26 -8 -26 13 0 33 28 29 41 -2 6 -12 0 -21
-15z"/>
<path d="M4646 1154 c-8 -21 -1 -28 19 -20 9 3 15 11 13 18 -7 19 -25 20 -32
2z"/>
<path d="M0 315 c0 -27 4 -35 18 -35 18 0 42 18 42 31 0 4 -7 10 -16 13 -8 3
-12 2 -9 -4 3 -6 1 -10 -4 -10 -6 0 -11 9 -11 20 0 11 -4 20 -10 20 -5 0 -10
-16 -10 -35z"/>
<path d="M227 172 c-20 -21 -37 -43 -37 -50 0 -7 -4 -12 -10 -12 -5 0 -10 -5
-10 -10 0 -15 -42 -70 -52 -70 -5 0 -7 4 -4 9 8 12 -66 6 -92 -8 -35 -19 -26
-31 23 -31 33 0 45 4 45 15 0 8 5 15 10 15 6 0 10 -7 10 -15 0 -18 16 -20 23
-2 4 9 8 8 16 -3 5 -8 11 -12 13 -10 10 14 49 106 48 114 -1 5 2 12 7 15 10 7
57 81 51 81 -2 0 -21 -17 -41 -38z"/>
<path d="M637 203 c-4 -3 -7 -11 -7 -17 0 -6 5 -5 12 2 6 6 9 14 7 17 -3 3 -9
2 -12 -2z"/>
<path d="M30 105 c0 -8 5 -15 10 -15 6 0 10 7 10 15 0 8 -4 15 -10 15 -5 0
-10 -7 -10 -15z"/>
<path d="M0 85 c0 -8 7 -15 15 -15 9 0 12 6 9 15 -4 8 -10 15 -15 15 -5 0 -9
-7 -9 -15z"/>
<path d="M1874 35 c-13 -32 32 -49 55 -21 10 12 8 17 -8 25 -27 15 -41 14 -47
-4z m44 -13 c3 -9 -2 -13 -14 -10 -9 1 -19 9 -22 16 -3 9 2 13 14 10 9 -1 19
-9 22 -16z"/>
<path d="M211 24 c0 -11 3 -14 6 -6 3 7 2 16 -1 19 -3 4 -6 -2 -5 -13z"/>
<path d="M1745 10 c-3 -5 -1 -10 4 -10 6 0 11 5 11 10 0 6 -2 10 -4 10 -3 0
-8 -4 -11 -10z"/>
</g>
</svg>
