<svg width="21" height="26" viewBox="0 0 21 26" fill="none" xmlns="http://www.w3.org/2000/svg">
<path d="M20.042 9.955C20.0412 7.3713 19.0367 4.88896 17.2406 3.03167C15.4445 1.17438 12.9972 0.087385 10.415 0H10.015C8.30268 0.000301206 6.61965 0.444282 5.12998 1.28866C3.64032 2.13304 2.39485 3.349 1.51501 4.818C0.730534 6.06089 0.235201 7.46409 0.065582 8.92403C-0.104037 10.384 0.0563844 11.8634 0.535011 13.253C1.19206 15.0749 2.11579 16.7892 3.27602 18.34C4.67894 20.2513 6.26367 22.0222 8.00802 23.628C8.65302 24.228 9.32101 24.807 9.99001 25.413C10.09 25.34 10.146 25.297 10.201 25.251C12.5329 23.3207 14.6369 21.1305 16.472 18.723C17.6981 17.1468 18.6835 15.3974 19.396 13.532C19.4567 13.3633 19.5134 13.1967 19.566 13.032C19.8866 12.0379 20.0483 10.9995 20.045 9.955H20.042Z" fill="#FDDB00"/>
<path d="M14.079 5.88401C14.1374 5.88371 14.1952 5.89528 14.249 5.91801C14.301 5.94165 14.3476 5.97568 14.386 6.01801C14.4686 6.10199 14.5146 6.21522 14.514 6.33301V13.746C14.5143 13.7838 14.5068 13.8212 14.492 13.856C14.4785 13.8891 14.4588 13.9193 14.434 13.945C14.4094 13.9714 14.3793 13.9922 14.346 14.006C14.3116 14.0209 14.2745 14.0284 14.237 14.028H13.047C13.0096 14.0278 12.9726 14.0204 12.938 14.006C12.8875 13.984 12.8447 13.9476 12.8148 13.9013C12.7849 13.8551 12.7693 13.8011 12.77 13.746V8.68601C12.7723 8.67378 12.7723 8.66123 12.77 8.64901C12.7651 8.63766 12.758 8.62745 12.749 8.61901C12.7403 8.61083 12.7301 8.60438 12.719 8.60001C12.7078 8.5978 12.6962 8.5978 12.685 8.60001H12.654L12.638 8.60901L12.623 8.62201L11.102 10.191C11.0764 10.218 11.0537 10.2475 11.034 10.279C11.0134 10.3104 10.9963 10.3439 10.983 10.379C10.9696 10.4137 10.9592 10.4495 10.952 10.486C10.9449 10.5229 10.9415 10.5604 10.942 10.598V13.74C10.9416 13.7777 10.9342 13.8151 10.92 13.85C10.9063 13.8832 10.8863 13.9135 10.861 13.939C10.8356 13.9645 10.8057 13.9851 10.773 14C10.739 14.0139 10.7027 14.0211 10.666 14.021H9.47599C9.43917 14.0213 9.4027 14.0138 9.36899 13.999C9.33604 13.9854 9.30613 13.9653 9.281 13.94C9.25632 13.9134 9.23667 13.8826 9.223 13.849C9.2079 13.8143 9.20039 13.7768 9.20099 13.739V10.594C9.20139 10.5564 9.19803 10.5189 9.19098 10.482C9.1834 10.4456 9.17305 10.4098 9.15999 10.375C9.1461 10.3402 9.12902 10.3067 9.10898 10.275C9.08927 10.2441 9.06649 10.2153 9.04099 10.189L7.53199 8.61401L7.51699 8.60101H7.46799C7.45634 8.60134 7.44483 8.60371 7.434 8.60801C7.42365 8.61226 7.41416 8.61836 7.406 8.62601C7.39685 8.63432 7.38966 8.64457 7.38498 8.65601C7.38022 8.66845 7.37786 8.68168 7.378 8.69501V13.732C7.37852 13.7695 7.37101 13.8067 7.35599 13.841C7.34259 13.8747 7.32291 13.9056 7.29799 13.932C7.27286 13.9573 7.24295 13.9774 7.21 13.991C7.17633 14.006 7.13982 14.0135 7.10299 14.013H5.92199C5.88591 14.0127 5.85026 14.0052 5.81711 13.991C5.78397 13.9767 5.75402 13.956 5.72899 13.93C5.70388 13.9043 5.68385 13.8741 5.66999 13.841C5.65615 13.806 5.64903 13.7687 5.64899 13.731V6.33901C5.64855 6.25269 5.67317 6.16811 5.71985 6.09551C5.76654 6.02292 5.83328 5.96542 5.91199 5.93001C5.96509 5.90735 6.02226 5.89578 6.07999 5.89601H7.186C7.21655 5.89603 7.24703 5.89905 7.277 5.90501C7.3065 5.91108 7.33532 5.92013 7.363 5.93201C7.39121 5.94408 7.41803 5.95916 7.443 5.97701C7.468 5.99461 7.49141 6.01435 7.51299 6.03601L9.971 8.58501L9.99299 8.60401L10.021 8.61601L10.048 8.62501H10.105L10.133 8.61601L10.158 8.60301C10.1667 8.59682 10.1747 8.58979 10.182 8.58201L12.645 6.02701C12.6662 6.00499 12.6897 5.98522 12.715 5.96801C12.74 5.95017 12.7668 5.93508 12.795 5.92301C12.8227 5.91112 12.8515 5.90208 12.881 5.89601C12.9111 5.88903 12.942 5.88568 12.973 5.88601L14.079 5.88401Z" fill="black"/>
</svg>
