<?xml version="1.0" standalone="no"?>
<!DOCTYPE svg PUBLIC "-//W3C//DTD SVG 20010904//EN"
 "http://www.w3.org/TR/2001/REC-SVG-20010904/DTD/svg10.dtd">
<svg version="1.0" xmlns="http://www.w3.org/2000/svg"
 width="474.000000pt" height="365.000000pt" viewBox="0 0 474.000000 365.000000"
 preserveAspectRatio="xMidYMid meet">
<metadata>
Created by potrace 1.16, written by Peter Selinger 2001-2019
</metadata>
<g transform="translate(0.000000,365.000000) scale(0.100000,-0.100000)"
fill="#000000" stroke="none">
<path d="M795 3550 c-21 -23 -38 -84 -25 -88 11 -4 -16 -62 -29 -62 -5 0 -12
-7 -15 -16 -5 -13 -1 -14 27 -9 l32 7 -35 -31 c-20 -17 -29 -30 -21 -31 8 0
11 -3 8 -7 -4 -3 1 -12 11 -19 13 -10 14 -13 3 -14 -8 0 -26 10 -39 23 -18 16
-26 19 -29 9 -3 -8 -21 -29 -41 -49 -30 -30 -42 -35 -78 -35 -42 1 -44 0 -55
-37 -10 -34 -19 -42 -79 -71 -79 -36 -154 -109 -193 -186 -32 -63 -50 -178
-46 -283 4 -88 12 -101 62 -101 15 0 27 -5 27 -11 0 -5 -4 -7 -10 -4 -5 3 -10
-3 -10 -14 0 -12 -5 -21 -11 -21 -8 0 -8 -4 1 -15 14 -17 4 -39 -16 -31 -7 3
-18 -2 -23 -12 -10 -17 -81 -28 -81 -11 0 5 5 9 11 9 5 0 7 5 4 10 -10 17 -39
11 -53 -10 -16 -27 -56 -25 -76 2 -15 22 -15 19 -14 -59 1 -77 2 -83 22 -83
11 -1 43 -2 69 -4 35 -3 50 0 54 10 7 18 19 18 27 -1 8 -21 -4 -46 -17 -38
-19 12 -137 14 -137 2 0 -5 -4 -8 -9 -5 -5 3 -9 -27 -10 -67 l-1 -72 75 0 c66
1 75 -1 75 -17 0 -10 -7 -18 -15 -18 -8 0 -15 -5 -15 -12 0 -6 -3 -8 -7 -5 -3
4 -13 1 -21 -6 -13 -10 -14 -8 -9 13 4 14 4 19 1 13 -3 -7 -15 -13 -25 -13
-11 0 -17 5 -14 10 3 6 -4 10 -17 10 -38 0 -34 -36 5 -46 l32 -8 -33 -3 c-18
-3 -30 -8 -27 -12 8 -14 94 7 117 29 27 24 38 8 14 -19 -9 -10 -16 -22 -16
-28 0 -12 228 -19 840 -28 206 -3 539 -7 740 -10 201 -3 554 -7 785 -10 231
-3 479 -8 550 -11 125 -6 132 -5 189 20 69 31 66 30 66 11 0 -8 7 -15 15 -15
15 0 19 11 15 39 -1 9 4 12 15 7 9 -3 19 -6 22 -6 2 0 -3 -7 -11 -16 -9 -8
-16 -22 -16 -30 0 -11 26 -14 138 -15 75 -1 157 -2 182 -3 25 -1 172 -4 326
-5 155 -2 288 -8 295 -13 18 -11 -989 -4 -2166 17 -727 13 -1371 25 -1722 31
l-383 7 0 -31 c0 -17 4 -34 10 -37 13 -8 13 -105 0 -105 -5 0 -10 -25 -10 -55
0 -48 2 -55 20 -55 15 0 20 -7 20 -27 0 -16 3 -45 6 -65 6 -36 5 -38 -20 -38
-22 0 -26 -4 -26 -30 0 -25 4 -30 25 -30 20 0 25 -5 27 -27 0 -16 2 -39 3 -53
11 -136 11 -135 -15 -138 -41 -6 -48 -22 -10 -23 19 0 29 -3 23 -6 -7 -2 -13
-9 -13 -15 0 -6 7 -8 15 -4 11 4 15 -2 15 -20 0 -21 -3 -24 -27 -19 -23 4 -24
4 -8 -4 19 -8 18 -9 -7 -21 l-28 -13 0 -139 c0 -76 3 -138 8 -138 4 0 15 7 25
14 12 10 36 12 80 9 51 -4 70 -11 106 -39 50 -39 61 -40 116 -16 25 11 60 16
95 15 30 -2 121 -4 201 -7 83 -2 155 -9 167 -15 13 -7 58 -10 114 -9 91 3 92
3 105 -23 9 -18 23 -29 46 -32 71 -12 209 -19 254 -12 l48 7 -28 20 c-15 11
-27 24 -27 29 0 15 48 10 82 -7 26 -14 40 -15 82 -5 60 13 176 20 176 11 0 -4
-11 -17 -25 -30 -26 -24 -26 -56 -1 -72 23 -15 76 -8 97 13 20 20 20 23 5 31
-21 12 -21 47 0 55 9 3 38 1 64 -6 36 -9 58 -10 89 -1 50 13 449 -3 499 -21
16 -5 110 -12 209 -13 169 -4 371 -12 848 -35 116 -6 293 -13 394 -15 106 -3
188 -9 194 -15 6 -6 11 -23 12 -38 1 -15 6 -40 10 -56 6 -24 4 -29 -26 -41
-33 -13 -116 -13 -216 0 -38 5 -226 14 -313 16 -19 0 -64 4 -100 9 -69 9 -162
16 -330 24 -58 3 -132 7 -165 10 -132 11 -373 23 -630 31 -66 3 -253 9 -415
14 -162 6 -387 14 -500 20 -113 5 -324 14 -470 20 -146 5 -353 14 -460 20
-107 6 -238 12 -292 15 -53 3 -103 8 -112 11 -14 5 -16 -8 -16 -109 l0 -114
79 -7 c46 -4 84 -13 91 -20 6 -8 39 -22 74 -32 53 -15 63 -21 60 -37 -5 -30
-13 -32 -28 -11 -8 10 -18 16 -22 11 -4 -4 -2 -7 4 -7 7 0 12 -5 12 -11 0 -6
-9 -8 -20 -4 -17 5 -54 12 -83 14 -5 1 -6 4 -4 9 3 4 -11 8 -32 9 -20 1 -57 4
-83 8 l-48 6 0 -201 c0 -190 1 -200 19 -200 12 0 21 -9 25 -25 5 -21 12 -25
45 -25 22 0 46 -7 55 -15 13 -13 198 -15 1545 -15 1014 0 1531 3 1531 10 0 6
-11 10 -24 10 -14 0 -107 7 -208 15 -221 17 -334 25 -453 30 -73 4 -91 8 -93
21 -4 15 16 16 220 10 122 -3 322 -13 443 -21 121 -8 306 -20 410 -25 105 -5
215 -12 245 -15 30 -2 92 -7 138 -11 45 -3 82 -10 82 -15 0 -6 102 -9 258 -7
220 3 257 5 257 18 0 11 -10 14 -39 12 l-40 -4 17 25 c14 22 14 26 2 31 -18 7
-20 62 -3 80 22 23 87 -10 134 -68 36 -46 45 -52 90 -57 27 -3 57 -9 67 -13
16 -8 17 51 17 1158 l0 1166 -44 0 c-25 0 -48 -5 -52 -11 -5 -8 -10 -6 -16 5
-9 16 -12 15 -32 -6 -13 -13 -26 -30 -30 -38 -3 -8 -4 -3 -2 13 2 17 -1 27 -9
27 -17 0 -7 44 14 67 10 10 33 29 53 43 30 20 34 26 22 35 -8 5 -36 8 -62 6
-40 -4 -43 -5 -22 -12 21 -7 18 -8 -15 -7 -22 0 -47 -2 -55 -5 -20 -8 -40 -10
-70 -7 -24 2 -24 3 5 10 28 7 27 8 -13 9 -37 1 -44 5 -53 29 -6 15 -17 40 -25
55 -8 16 -14 44 -14 63 0 40 -30 123 -60 168 -41 59 -104 97 -200 122 -49 12
-99 20 -111 17 -24 -7 -51 20 -43 42 3 8 -11 17 -40 25 -43 12 -46 15 -46 46
0 19 -5 34 -10 34 -7 0 -7 6 -2 18 5 9 7 34 5 55 -4 28 -10 37 -24 37 -10 0
-23 -8 -28 -17 -6 -10 -11 -14 -11 -9 0 24 -29 -32 -30 -57 0 -16 -4 -26 -9
-23 -14 9 5 76 28 97 25 23 24 18 11 55 -14 39 -58 58 -116 49 -35 -5 -44 -10
-44 -27 0 -13 -5 -18 -14 -15 -10 4 -13 1 -10 -7 3 -8 1 -17 -5 -21 -6 -3 -11
-1 -11 5 0 6 -5 8 -11 4 -8 -4 -7 -9 2 -15 8 -4 18 -4 23 1 6 6 14 10 20 10 5
0 -4 -15 -22 -33 -17 -18 -41 -50 -52 -72 l-21 -40 6 40 c5 38 5 39 -9 16 -10
-18 -15 -20 -19 -10 -5 13 -9 -17 -12 -86 -2 -31 -36 -74 -75 -95 -11 -6 -20
-18 -20 -26 0 -9 5 -12 12 -8 7 4 8 3 4 -5 -4 -6 -11 -9 -16 -6 -11 7 -25 -25
-29 -62 0 -7 -7 -13 -14 -13 -7 0 -18 -15 -25 -32 -11 -30 -10 -34 10 -50 l23
-18 -30 9 c-57 17 -67 23 -62 42 3 13 -1 17 -14 16 -14 -1 -18 -8 -17 -27 3
-21 -3 -27 -29 -35 -18 -5 -36 -18 -39 -28 -5 -17 -7 -18 -25 -1 -16 14 -33
16 -126 11 -60 -4 -126 -7 -148 -7 -30 0 -36 -3 -25 -10 10 -7 -19 -9 -93 -8
-66 2 -107 -1 -107 -7 0 -5 -5 -3 -10 5 -5 8 -10 10 -10 4 0 -14 -32 -13 -42
1 -5 6 -8 5 -8 -4 0 -11 -3 -11 -15 -1 -10 8 -15 9 -15 2 0 -6 -7 -9 -16 -5
-13 5 -13 7 -2 14 8 6 1 8 -22 8 -19 0 -29 -3 -22 -6 21 -8 3 -23 -29 -23 -16
0 -32 6 -35 14 -3 8 -18 14 -34 14 -16 -1 -27 -5 -24 -10 3 -5 12 -7 20 -4 7
3 16 1 19 -4 7 -12 -41 -13 -148 -4 -42 4 -74 10 -72 15 3 4 -41 7 -97 7 -141
-1 -188 4 -188 18 0 8 17 10 58 7 31 -2 62 -4 67 -3 6 1 39 3 75 5 36 2 68 4
72 4 4 1 14 8 22 17 26 25 102 9 123 -27 9 -15 21 -25 25 -22 5 3 2 14 -8 24
-23 25 -13 33 47 35 28 2 54 5 57 8 7 8 12 115 5 132 -3 8 -19 14 -38 14 -47
0 -82 15 -90 39 -10 32 -63 29 -71 -4 -7 -30 -25 -32 -49 -5 -14 16 -16 23 -7
32 17 17 15 33 -2 19 -12 -10 -17 -7 -28 16 -17 35 -45 37 -80 5 -14 -13 -31
-21 -37 -17 -15 8 -97 -31 -105 -50 -9 -24 -36 -5 -36 25 0 41 -18 47 -24 8
-5 -31 -21 -223 -47 -553 -14 -175 -27 -218 -64 -209 -13 3 -30 2 -37 -2 -25
-15 -69 -2 -100 29 -20 20 -29 25 -25 14 5 -13 3 -17 -5 -15 -7 3 -14 18 -16
34 -3 27 -1 29 30 28 l33 -2 -2 59 c-1 47 2 59 15 62 15 4 15 5 1 6 -9 0 -20
8 -23 17 -5 14 -4 15 9 4 9 -7 18 -10 22 -6 8 8 3 12 -26 21 -20 6 -23 4 -18
-9 6 -14 3 -16 -16 -10 -30 9 -46 23 -63 56 -17 33 -10 55 11 38 33 -27 105
16 105 63 0 9 7 20 15 24 17 6 45 65 45 94 0 24 -41 89 -56 89 -6 0 -17 -7
-24 -15 -16 -19 -40 -20 -40 -1 0 8 11 17 25 20 15 4 23 11 19 17 -3 6 -14 9
-24 6 -12 -3 -20 5 -28 27 -13 35 -67 96 -85 96 -27 -1 -96 -40 -108 -62 -17
-30 -21 -66 -8 -90 14 -27 3 -22 -38 17 l-37 35 -22 -21 c-15 -14 -23 -17 -26
-8 -3 9 -9 9 -24 1 -12 -6 -26 -7 -36 -1 -17 9 -48 3 -48 -10 0 -4 -32 -22
-70 -41 -73 -34 -101 -61 -139 -137 -21 -42 -57 -83 -73 -83 -4 0 -8 38 -8 84
0 46 -5 108 -10 137 -8 38 -7 68 1 101 10 43 9 50 -15 91 -27 46 -37 85 -13
54 17 -23 95 -37 129 -22 59 23 124 109 96 126 -7 5 -19 9 -25 9 -7 0 -13 5
-13 10 0 6 -8 10 -18 10 -9 0 -23 9 -30 20 -17 27 -8 25 44 -10 38 -27 44 -28
44 -13 0 10 10 23 22 28 13 6 28 21 35 35 10 20 9 27 -4 42 -15 17 -15 18 2
18 11 0 15 5 11 16 -3 9 -6 20 -6 25 0 6 -4 7 -10 4 -5 -3 -10 -1 -10 4 0 6 4
11 9 11 4 0 6 11 4 24 -4 22 -8 23 -35 15 -16 -4 -37 -14 -46 -21 -21 -17 14
39 41 66 21 21 15 35 -8 16 -9 -7 -18 -10 -22 -6 -4 3 2 12 12 20 17 12 14 16
-38 55 -33 25 -61 40 -68 35 -8 -5 -9 -3 -4 6 6 10 4 12 -7 7 -9 -3 -19 -3
-23 1 -14 14 -65 9 -80 -8z m86 -190 c-17 -17 -36 -28 -41 -25 -15 9 -12 25 3
20 7 -3 19 4 27 15 8 11 21 20 29 20 8 0 1 -12 -18 -30z m29 -215 c0 -8 7 -15
16 -15 8 0 22 -6 30 -14 8 -8 23 -12 35 -9 16 4 20 2 17 -8 -12 -35 -73 -13
-117 44 -12 15 -11 17 3 17 9 0 16 -7 16 -15z m-47 -16 c-6 -6 -17 -8 -24 -3
-9 5 -8 9 7 14 23 9 31 3 17 -11z m2673 -40 c-18 -41 -21 -26 -4 22 6 18 13
29 15 23 2 -6 -3 -26 -11 -45z m-2646 22 c0 -5 10 -12 23 -16 12 -3 17 -9 10
-11 -7 -3 -9 -12 -6 -20 10 -27 -6 -14 -23 17 -12 25 -18 29 -25 18 -5 -8 -9
-9 -9 -3 0 6 3 14 7 17 9 10 23 9 23 -2z m-530 -55 c0 -2 -8 -10 -17 -17 -16
-13 -17 -12 -4 4 13 16 21 21 21 13z m3178 -55 c2 -6 -5 -11 -16 -11 -11 0
-27 -3 -35 -6 -9 -3 -16 2 -19 14 -5 16 0 18 30 17 20 -2 38 -8 40 -14z m52
-5 c0 -2 -7 -6 -15 -10 -8 -3 -15 -1 -15 4 0 6 7 10 15 10 8 0 15 -2 15 -4z
m-1620 -26 c0 -5 -7 -10 -16 -10 -8 0 -12 5 -9 10 3 6 10 10 16 10 5 0 9 -4 9
-10z m1507 -92 c5 -26 16 -47 28 -53 29 -15 21 -55 -10 -55 -31 0 -55 35 -55
81 0 76 24 93 37 27z m-1582 21 c8 -13 -14 -97 -27 -105 -7 -5 -6 94 1 114 3
6 21 1 26 -9z m385 -49 c0 -16 -7 -20 -30 -20 -23 0 -30 4 -30 20 0 16 7 20
30 20 23 0 30 -4 30 -20z m1300 -68 c0 -13 -4 -20 -10 -17 -6 4 -8 10 -5 15 3
4 0 10 -6 12 -5 2 -7 11 -3 22 5 14 9 15 15 4 5 -7 9 -23 9 -36z m100 -35 c0
-7 -6 -22 -14 -33 -14 -18 -15 -18 -21 -1 -7 17 10 47 26 47 5 0 9 -6 9 -13z
m-645 -57 c3 -5 -3 -10 -15 -10 -12 0 -18 5 -15 10 3 6 10 10 15 10 5 0 12 -4
15 -10z m127 -3 c30 -28 67 -47 74 -36 9 16 34 -25 32 -53 -3 -19 2 -23 30
-26 25 -3 32 -7 28 -19 -3 -8 -6 -21 -6 -29 0 -8 -5 -14 -11 -14 -7 0 -17 -8
-24 -17 -10 -13 -29 -17 -86 -17 -41 0 -66 -2 -57 -4 14 -3 17 -13 16 -44 -1
-26 4 -45 14 -52 8 -6 13 -17 10 -24 -2 -8 6 -16 18 -19 16 -4 18 -8 8 -14 -8
-6 -9 -12 -3 -16 6 -5 11 -17 12 -28 0 -11 4 -35 6 -52 5 -30 3 -33 -19 -33
-22 0 -24 4 -24 44 0 39 -3 44 -25 48 -24 5 -25 3 -27 -51 -2 -74 -2 -78 -11
-87 -4 -4 -7 6 -7 23 0 43 -33 144 -38 115 -5 -29 -22 -18 -22 15 0 21 -3 24
-22 19 -13 -3 -34 -6 -48 -6 -19 0 -26 -6 -27 -20 -1 -13 2 -18 10 -14 7 4 8
3 4 -2 -5 -5 -20 -9 -34 -9 -15 0 -28 -5 -30 -12 -3 -9 19 -13 79 -15 78 -3
83 -4 86 -26 l3 -22 -533 0 c-549 0 -661 4 -655 24 4 12 192 31 346 35 56 1
62 3 51 16 -7 9 -21 13 -31 10 -9 -3 -20 -1 -23 4 -4 5 -32 9 -64 8 -31 0 -80
7 -109 17 -29 9 -66 18 -83 18 -22 1 -33 8 -43 27 -16 33 -11 72 9 64 8 -3 14
0 14 6 0 6 -7 11 -15 11 -12 0 -15 19 -15 110 l0 110 338 0 337 0 17 -30 c10
-17 13 -30 6 -30 -6 0 -8 -10 -4 -24 4 -15 1 -26 -7 -29 -7 -3 -4 -6 7 -6 11
-1 16 -6 13 -15 -6 -14 18 -56 31 -56 4 0 8 27 9 59 2 43 -2 61 -12 65 -8 3
-13 17 -12 33 l2 28 199 3 c153 2 202 -1 208 -10 5 -7 6 -38 3 -68 -2 -30 -8
-86 -11 -125 -3 -38 -9 -74 -12 -79 -3 -5 0 -6 5 -3 23 14 50 82 41 102 -8 18
-8 18 -4 -2 2 -13 0 -26 -6 -29 -15 -10 1 138 18 156 14 17 8 64 -7 54 -11 -6
-11 -1 -3 20 8 22 34 2 34 -26 0 -35 25 -13 28 25 4 41 5 42 24 24z m-1734
-22 c-3 -3 -9 2 -12 12 -6 14 -5 15 5 6 7 -7 10 -15 7 -18z m72 15 c0 -5 -8
-10 -17 -10 -15 0 -16 2 -3 10 19 12 20 12 20 0z m1453 3 c-13 -2 -35 -2 -50
0 -16 2 -5 4 22 4 28 0 40 -2 28 -4z m-1493 -23 c0 -5 -2 -10 -4 -10 -3 0 -8
5 -11 10 -3 6 -1 10 4 10 6 0 11 -4 11 -10z m1898 -49 c28 -61 28 -63 -3 -49
-14 6 -25 14 -25 18 0 3 -9 16 -21 29 -17 18 -18 25 -9 36 21 25 34 17 58 -34z
m-1477 -145 c-7 -15 -9 7 -9 84 l1 105 9 -84 c6 -56 6 -92 -1 -105z m-283 142
c19 -19 14 -33 -6 -15 -10 10 -22 14 -27 10 -4 -5 -5 -2 -1 5 9 15 19 15 34 0z
m-289 -42 c-18 -19 -35 -33 -37 -31 -10 10 10 54 26 58 40 11 43 5 11 -27z
m2091 18 c0 -8 -4 -12 -10 -9 -5 3 -10 10 -10 16 0 5 5 9 10 9 6 0 10 -7 10
-16z m456 -85 l6 -56 -43 -7 c-24 -4 -59 -9 -76 -12 l-33 -6 0 61 c0 44 4 63
14 67 26 10 111 21 118 15 4 -4 10 -31 14 -62z m-3143 20 c31 -7 57 -17 57
-24 0 -21 -56 -63 -81 -60 -13 1 -25 4 -26 5 -2 1 -9 3 -15 4 -7 0 -15 12 -17
26 -1 14 -8 28 -13 31 -6 4 -8 14 -5 22 6 16 8 16 100 -4z m90 -59 c-5 -20
-15 -25 -26 -14 -9 9 12 46 23 39 4 -3 6 -14 3 -25z m2431 -26 c9 -3 16 -10
16 -16 0 -5 -5 -6 -11 -2 -7 4 -7 -1 1 -16 6 -12 9 -24 6 -28 -3 -3 -6 0 -6 6
0 7 -6 12 -14 12 -8 0 -13 10 -13 25 0 28 -1 27 21 19z m104 -34 c15 0 17 -66
2 -75 -6 -3 -14 4 -19 17 -5 13 -16 30 -25 37 -23 19 -20 34 7 27 12 -3 28 -6
35 -6z m-2315 -20 c-13 -5 -23 -12 -23 -14 0 -3 6 -3 14 0 8 3 16 -3 19 -16 7
-26 -20 -24 -37 3 -12 19 5 37 34 36 8 0 5 -4 -7 -9z m828 -24 c-14 -36 -22
-33 -9 5 6 16 12 28 14 26 3 -2 0 -16 -5 -31z m1920 0 c32 4 59 4 59 1 0 -11
-38 -27 -77 -32 -21 -3 -54 -8 -73 -11 -19 -4 -50 -8 -69 -10 l-33 -3 37 26
c69 47 90 55 93 38 3 -13 14 -15 63 -9z m705 -24 c-8 -13 -39 -9 -44 6 -4 12
29 22 42 11 4 -4 5 -12 2 -17z m-3258 -5 c23 -8 32 -17 32 -33 0 -13 -5 -26
-11 -29 -16 -11 -59 4 -59 20 0 9 -6 12 -15 9 -11 -5 -13 -2 -9 10 3 9 0 24
-7 33 -15 17 -8 16 69 -10z m-88 -12 c0 -8 -4 -15 -10 -15 -5 0 -7 7 -4 15 4
8 8 15 10 15 2 0 4 -7 4 -15z m2393 6 c16 -6 16 -9 5 -18 -26 -22 -53 -19 -56
5 -4 23 14 28 51 13z m1023 -18 c-10 -10 -19 5 -10 18 6 11 8 11 12 0 2 -7 1
-15 -2 -18z m-71 -3 c-7 -12 -45 -14 -45 -2 0 4 11 9 26 10 14 1 23 -2 19 -8z
m79 -31 c-3 -5 -10 -7 -15 -3 -5 3 -7 10 -3 15 3 5 10 7 15 3 5 -3 7 -10 3
-15z m-1214 -9 c0 -5 -4 -10 -10 -10 -5 0 -10 -7 -10 -15 0 -8 -4 -15 -10 -15
-13 0 -13 6 0 31 11 20 30 26 30 9z m-3254 -30 c0 -11 -4 -20 -8 -20 -10 0
-11 24 -1 33 9 9 9 10 9 -13z m52 8 c-2 -6 -10 -14 -16 -16 -7 -2 -10 2 -6 12
7 18 28 22 22 4z m1389 6 c-3 -3 -12 -4 -19 -1 -8 3 -5 6 6 6 11 1 17 -2 13
-5z m1883 -13 c-5 -11 -15 -23 -21 -27 -6 -3 -3 5 6 20 20 30 30 35 15 7z
m1140 9 c0 -5 -2 -10 -4 -10 -3 0 -8 5 -11 10 -3 6 -1 10 4 10 6 0 11 -4 11
-10z m-1185 -10 c-3 -5 -12 -10 -18 -10 -7 0 -6 4 3 10 19 12 23 12 15 0z
m1180 -29 c-4 -21 19 -27 130 -34 28 -2 6 -4 -47 -5 -53 -1 -99 1 -101 6 -5 8
10 52 17 52 3 0 3 -9 1 -19z m-85 -26 c0 -8 -9 -15 -20 -15 -11 0 -20 7 -20
15 0 8 9 15 20 15 11 0 20 -7 20 -15z m-1257 -49 c-10 -13 -21 -22 -26 -19 -4
2 3 13 15 23 30 26 32 25 11 -4z m1167 -56 c0 -27 29 -40 90 -40 43 0 51 -3
46 -16 -3 -9 -6 -31 -6 -50 l0 -34 -67 -2 -68 -2 63 -3 62 -4 0 -63 c0 -34 -2
-65 -5 -68 -11 -11 -164 34 -170 50 -3 8 -2 18 2 21 4 3 8 12 9 19 1 6 2 19 3
27 0 8 8 15 16 15 8 0 15 5 15 10 0 6 -6 10 -12 10 -21 0 -52 62 -54 108 l-1
42 38 0 c32 0 39 -3 39 -20z m74 -321 l38 -10 -7 -57 c-3 -31 -9 -67 -12 -79
-4 -17 -1 -23 11 -23 21 0 21 -43 1 -60 -11 -9 -39 -10 -112 -4 -94 9 -95 9
-35 12 61 3 76 14 53 38 -5 5 -11 43 -14 84 -3 41 -8 86 -12 99 -9 26 -13 26
89 0z m-3782 5 c3 -3 83 -5 177 -5 170 0 171 0 172 -22 l2 -22 4 22 c4 22 8
23 124 21 66 -1 122 -5 124 -8 3 -4 -15 -13 -38 -21 -37 -12 -94 -34 -152 -59
-101 -44 -113 -48 -125 -36 -8 8 -13 7 -20 -5 -6 -11 -21 -15 -49 -12 -22 1
-43 -2 -47 -8 -4 -8 1 -9 15 -4 37 12 23 -15 -16 -31 -21 -8 -52 -21 -69 -30
-17 -8 -35 -14 -40 -13 -5 1 -18 -1 -29 -6 -11 -4 -35 -14 -52 -21 -19 -7 -33
-9 -33 -3 0 5 -16 9 -36 9 -19 0 -43 4 -52 8 -11 6 -27 4 -42 -4 l-25 -14 30
0 c21 0 26 -3 16 -9 -11 -7 -9 -10 8 -16 24 -7 28 -25 6 -25 -8 0 -20 9 -27
20 -8 13 -23 20 -43 20 -26 -1 -28 -2 -14 -13 15 -11 14 -14 -7 -30 -22 -16
-23 -16 -29 3 -3 11 -3 24 0 30 3 5 1 10 -4 10 -6 0 -11 -6 -11 -12 0 -14 -46
62 -61 99 -6 17 -5 21 6 17 8 -3 14 -9 13 -12 -2 -16 4 -28 21 -51 17 -23 20
-23 35 -9 21 21 21 34 0 17 -14 -11 -18 -10 -30 6 -11 15 -11 20 -1 27 8 5 8
8 1 8 -7 0 -19 12 -29 26 -15 24 -15 27 0 44 15 17 15 19 -2 28 -10 6 -16 12
-13 15 7 5 163 44 230 56 47 9 73 14 101 20 3 0 8 -2 11 -5z m1573 -34 c-3 -5
-19 -10 -36 -10 -16 0 -29 -4 -29 -9 0 -5 -10 -7 -22 -4 -18 4 -20 2 -8 -6 8
-5 12 -11 10 -13 -3 -2 -19 -10 -37 -20 -30 -16 -32 -15 -30 3 1 11 9 19 18
19 12 0 16 6 12 19 -4 15 1 20 24 24 57 8 104 7 98 -3z m120 0 c3 -5 11 -10
16 -10 6 0 7 5 4 10 -3 6 1 10 10 10 8 0 18 -6 21 -13 5 -15 64 -19 64 -5 0 4
48 8 107 8 104 0 106 0 89 -19 -17 -18 -17 -20 2 -30 13 -7 23 -7 32 2 9 7 8
2 -2 -13 -12 -19 -24 -25 -47 -24 -21 1 -31 -3 -31 -13 0 -11 -28 16 -57 56
-2 2 -16 4 -33 4 -16 0 -27 4 -24 9 3 4 -1 8 -10 8 -8 0 -16 -5 -18 -12 -3 -7
-15 -13 -29 -13 -13 -1 -35 -7 -48 -14 -21 -12 -26 -11 -36 3 -13 18 -50 22
-60 6 -3 -5 -1 -10 5 -10 7 0 10 -7 6 -15 -3 -9 1 -15 11 -15 13 0 13 -3 3
-15 -14 -16 -13 -17 47 -19 34 -2 48 3 72 26 23 22 31 25 31 13 0 -9 -13 -24
-30 -33 -16 -9 -30 -20 -30 -24 0 -4 -25 -5 -55 -2 -43 3 -55 1 -55 -10 0 -8
-13 -17 -29 -21 -16 -3 -32 -13 -35 -20 -3 -9 -12 -12 -22 -8 -11 4 -15 2 -11
-4 4 -6 -2 -13 -13 -16 -13 -3 -20 0 -20 9 0 8 5 14 11 14 6 0 8 8 4 19 -5 18
0 20 42 23 39 2 47 6 45 21 -2 10 3 17 13 17 14 0 14 4 -4 26 -21 27 -19 49 5
58 8 3 14 15 14 26 0 21 33 29 45 10z m-525 -18 c0 -7 4 -10 10 -7 6 3 7 -1 4
-9 -6 -17 -26 -23 -21 -7 1 5 -7 16 -18 25 -20 15 -20 15 3 13 12 -1 22 -7 22
-15z m940 9 c0 -17 -18 -21 -24 -6 -3 9 0 15 9 15 8 0 15 -4 15 -9z m110 -1
c0 -16 71 -25 80 -10 6 9 30 12 82 10 40 -1 87 -3 103 -4 29 0 58 -23 49 -38
-3 -5 24 -8 59 -8 51 0 66 -3 71 -17 4 -9 1 -21 -5 -27 -8 -8 -13 -8 -16 0 -2
7 -22 9 -51 6 -60 -5 -68 -12 -14 -12 22 0 44 -5 47 -11 4 -6 19 -7 35 -4 17
4 31 2 35 -5 6 -9 10 -9 16 1 8 11 11 11 20 -3 11 -19 29 -24 29 -9 0 5 -12
19 -26 32 -15 13 -44 41 -66 63 l-40 39 99 -6 c54 -4 234 -10 401 -13 l302 -7
0 -38 c0 -24 -5 -39 -12 -40 -10 0 -10 -2 0 -6 23 -9 1 -23 -36 -23 -36 0 -39
-3 -113 -118 -42 -64 -87 -137 -100 -162 -13 -25 -25 -47 -27 -49 -1 -3 -10 6
-19 20 -41 58 -125 119 -167 119 -14 0 -17 3 -8 8 9 7 8 14 -8 32 l-20 23 0
-31 0 -32 -55 0 c-36 0 -55 4 -55 12 0 9 -3 9 -12 0 -17 -17 8 -34 37 -27 11
2 37 2 57 -1 28 -5 35 -10 30 -23 -3 -9 -10 -19 -16 -23 -5 -4 20 -5 58 -4 37
2 63 0 58 -3 -5 -3 -15 -17 -22 -30 -12 -23 -15 -23 -101 -19 -49 3 -89 1 -89
-3 0 -5 12 -9 28 -10 15 0 79 -4 144 -7 64 -4 114 -4 111 1 -2 4 1 7 6 7 6 0
11 -9 11 -20 0 -19 -4 -20 -50 -14 -43 6 -50 4 -50 -11 0 -15 -13 -17 -150
-13 -109 2 -150 0 -150 -9 0 -13 -58 -35 -72 -27 -5 3 -7 12 -4 20 3 8 0 11
-8 8 -8 -3 -23 6 -34 20 -11 15 -34 29 -51 32 -26 6 -32 3 -40 -17 -8 -21 -10
-22 -16 -6 -7 16 -26 25 -24 10 4 -27 -1 -35 -16 -23 -8 7 -15 9 -15 4 0 -17
-49 -66 -60 -59 -5 3 -13 -1 -16 -10 -5 -13 -10 -11 -28 12 -22 30 -62 34 -73
7 -7 -18 -23 -18 -23 0 0 7 -7 19 -15 26 -30 25 -13 29 93 27 89 -2 107 1 107
13 1 18 -32 50 -51 50 -7 0 -29 -8 -49 -17 -31 -15 -37 -15 -45 -3 -6 8 -10
18 -10 23 0 4 48 7 108 7 93 1 105 2 89 15 -12 8 -31 11 -53 8 -25 -4 -35 -2
-40 11 -9 23 12 44 52 52 27 5 34 11 34 29 0 13 -7 25 -15 29 -18 6 -75 -12
-75 -25 0 -6 -8 -5 -19 1 -28 15 -37 13 -66 -14 -21 -20 -29 -22 -49 -13 -13
6 -27 20 -32 32 -10 22 -60 33 -77 16 -20 -20 -29 -12 -13 11 10 13 27 22 43
23 23 0 28 4 26 22 -2 19 3 22 38 25 l41 3 -18 23 c-17 21 -22 22 -53 11 -26
-9 -35 -9 -41 1 -5 8 -17 10 -34 6 -25 -6 -25 -6 -10 13 12 13 25 17 46 14 16
-2 37 -2 45 1 13 6 13 9 -1 31 -22 34 -21 36 20 33 29 -2 37 1 40 16 2 15 -2
17 -27 12 -16 -3 -28 -1 -26 4 1 5 -7 16 -18 24 -19 15 -19 15 13 16 17 0 32
-4 32 -10z m-1280 -10 c0 -5 -7 -7 -15 -4 -8 4 -15 8 -15 10 0 2 7 4 15 4 8 0
15 -4 15 -10z m155 0 c3 -6 -1 -7 -9 -4 -18 7 -21 14 -7 14 6 0 13 -4 16 -10z
m1465 0 c0 -5 -4 -10 -10 -10 -5 0 -10 5 -10 10 0 6 5 10 10 10 6 0 10 -4 10
-10z m60 0 c0 -5 -5 -10 -11 -10 -5 0 -7 5 -4 10 3 6 8 10 11 10 2 0 4 -4 4
-10z m-1300 -30 c0 -5 -11 -10 -24 -10 -14 0 -31 -7 -40 -15 -18 -18 -27 -19
-23 -3 4 25 87 51 87 28z m235 0 c3 -5 1 -10 -4 -10 -6 0 -11 5 -11 10 0 6 2
10 4 10 3 0 8 -4 11 -10z m-485 -10 c-8 -5 -19 -10 -25 -10 -5 0 -3 5 5 10 8
5 20 10 25 10 6 0 3 -5 -5 -10z m787 -5 c0 -8 -4 -15 -8 -15 -11 0 -20 16 -12
24 11 11 20 7 20 -9z m213 -23 c0 -10 -11 -25 -25 -32 -14 -7 -25 -20 -25 -27
0 -7 -7 -16 -16 -20 -12 -5 -13 -7 -2 -14 9 -6 6 -8 -10 -6 -26 2 -28 12 -4
26 28 17 -78 14 -110 -3 -29 -16 -38 -12 -38 16 0 16 9 18 89 18 87 0 90 1
113 29 28 36 28 36 28 13z m71 5 c-6 -6 -21 -5 -38 1 -28 11 -28 11 9 9 23 0
34 -5 29 -10z m-1071 -18 c12 -9 10 -10 -8 -6 -14 3 -25 0 -28 -8 -3 -7 -18
-12 -37 -10 -18 2 -38 3 -45 4 -7 1 -10 6 -7 12 4 6 13 8 20 5 7 -2 26 -1 42
4 38 11 46 11 63 -1z m-200 -18 c0 -18 -18 -21 -30 -6 -10 13 -9 15 9 15 11 0
21 -4 21 -9z m356 -4 c3 -3 -5 -8 -18 -12 -13 -4 -26 -13 -31 -19 -5 -7 -11
-5 -18 7 -9 16 -19 18 -58 13 -46 -6 -46 -6 -16 8 28 14 128 16 141 3z m244
-2 c0 -2 -13 -5 -30 -7 -19 -3 -30 0 -30 7 0 7 11 10 30 7 17 -2 30 -5 30 -7z
m-760 -10 c7 -9 8 -15 2 -15 -5 0 -12 7 -16 15 -3 8 -4 15 -2 15 2 0 9 -7 16
-15z m668 3 c-3 -7 1 -19 9 -26 19 -20 17 -35 -4 -23 -20 11 -63 49 -63 56 0
3 14 5 31 5 20 0 29 -4 27 -12z m162 8 c0 -2 -9 -6 -20 -9 -11 -3 -20 -1 -20
4 0 5 9 9 20 9 11 0 20 -2 20 -4z m-625 -26 c8 -13 -5 -13 -25 0 -13 8 -13 10
2 10 9 0 20 -4 23 -10z m350 -10 c-3 -5 -11 -10 -16 -10 -6 0 -7 5 -4 10 3 6
11 10 16 10 6 0 7 -4 4 -10z m544 -9 c25 -7 24 -7 -12 -28 -20 -13 -37 -27
-37 -32 0 -6 -13 -8 -30 -4 -22 4 -39 -1 -65 -18 -40 -28 -44 -39 -12 -39 20
0 19 -2 -8 -16 -16 -8 -34 -19 -38 -23 -12 -12 62 -21 196 -23 89 -1 117 -4
117 -14 0 -8 -11 -16 -25 -20 -61 -15 -17 -29 123 -38 50 -3 64 0 71 13 5 9
12 13 16 10 3 -4 0 -13 -7 -20 -7 -8 -19 -26 -25 -41 -14 -30 -5 -35 28 -18
10 6 19 7 19 3 0 -5 -13 -14 -30 -21 -16 -8 -35 -26 -42 -40 -17 -34 -35 -34
-51 -2 -11 22 -20 25 -69 28 -32 2 -67 -2 -79 -9 -16 -8 -23 -8 -29 0 -4 8
-16 3 -35 -15 -26 -24 -30 -25 -40 -10 -11 14 -14 13 -31 -9 -23 -31 -29 -31
-66 0 -40 33 -108 33 -108 -1 0 -10 -14 -14 -50 -14 -35 0 -50 4 -50 13 0 23
-45 40 -83 33 -21 -4 -38 -2 -42 4 -3 5 -19 10 -35 10 -16 0 -31 4 -34 8 -8
13 -126 15 -126 3 0 -6 8 -11 17 -11 13 0 14 -3 5 -12 -14 -14 -75 -13 -80 2
-6 17 -43 34 -40 18 2 -7 -4 -11 -12 -9 -8 2 -35 5 -60 7 -25 2 -56 6 -70 10
-53 14 -89 10 -94 -10 -4 -15 -10 -17 -33 -10 -15 5 -52 8 -80 7 -35 -1 -53 3
-53 11 0 6 -12 19 -28 29 -26 18 -24 18 103 13 312 -13 809 -16 798 -5 -6 6
-33 10 -62 8 -28 -2 -51 -2 -51 1 0 3 -3 15 -6 28 -5 16 -2 22 10 22 25 0 19
19 -9 26 -14 3 -25 12 -25 20 0 11 19 14 85 14 77 0 102 8 75 25 -5 3 -10 12
-10 19 0 10 13 12 50 8 47 -4 66 7 40 23 -19 12 2 26 30 20 31 -7 70 12 70 32
0 8 13 13 30 13 17 0 30 5 30 10 0 6 -11 10 -25 10 -14 0 -25 5 -25 10 0 11
71 12 109 1z m-1025 -10 c4 -5 -3 -7 -14 -4 -23 6 -26 13 -6 13 8 0 17 -4 20
-9z m123 -13 c-21 -7 -32 -7 -40 1 -8 8 0 11 29 10 39 -1 39 -1 11 -11z m183
-5 c0 -5 -11 -13 -25 -20 -27 -12 -33 -5 -13 15 13 13 38 16 38 5z m380 -7 c0
-2 -7 -6 -15 -10 -8 -3 -15 -1 -15 4 0 6 7 10 15 10 8 0 15 -2 15 -4z m462
-15 c-27 -20 -20 -31 20 -31 26 0 29 -3 22 -22 -3 -13 -13 -31 -22 -41 -15
-17 -16 -17 -29 5 -7 13 -13 19 -13 13 -1 -5 -10 13 -20 40 -11 28 -20 50 -20
50 0 0 19 1 42 2 42 1 42 1 20 -16z m188 15 c0 -2 -9 -6 -20 -9 -11 -3 -18 -1
-14 4 5 9 34 13 34 5z m-1006 -14 c3 -5 -1 -9 -9 -9 -8 0 -12 4 -9 9 3 4 7 8
9 8 2 0 6 -4 9 -8z m231 -12 c3 -5 40 -10 81 -10 41 0 74 -2 74 -4 0 -19 -14
-33 -29 -29 -11 3 -26 -5 -38 -20 -15 -19 -23 -23 -36 -15 -25 14 -21 26 11
30 27 3 27 3 5 16 -12 7 -40 13 -61 15 -45 2 -79 27 -38 27 14 0 28 -4 31 -10z
m-115 -10 c12 -7 12 -12 2 -22 -10 -10 -17 -8 -34 10 -22 21 -22 22 -3 22 11
0 27 -5 35 -10z m839 -7 c-6 -7 -15 -13 -20 -13 -5 0 -6 6 -3 13 3 8 11 14 19
14 11 0 12 -4 4 -14z m1729 -11 c2 -7 -2 -10 -12 -6 -9 3 -16 11 -16 16 0 13
23 5 28 -10z m-3221 2 c-3 -3 -12 -4 -19 -1 -8 3 -5 6 6 6 11 1 17 -2 13 -5z
m133 2 c0 -3 -4 -8 -10 -11 -5 -3 -10 -1 -10 4 0 6 5 11 10 11 6 0 10 -2 10
-4z m1050 -6 c0 -5 -4 -10 -10 -10 -5 0 -10 5 -10 10 0 6 5 10 10 10 6 0 10
-4 10 -10z m-43 -6 c-3 -3 -12 -4 -19 -1 -8 3 -5 6 6 6 11 1 17 -2 13 -5z
m-889 -24 c-19 -14 -24 -26 -21 -45 5 -21 2 -25 -20 -25 -25 0 -48 31 -27 38
15 5 -7 32 -26 32 -8 0 -14 5 -14 10 0 6 29 10 66 10 l67 0 -25 -20z m2913 10
c5 0 9 -11 9 -24 0 -13 6 -29 14 -35 18 -15 115 -51 138 -51 20 0 21 -4 12
-47 -7 -35 -45 -51 -128 -56 l-50 -2 -14 -65 c-8 -36 -16 -67 -18 -69 -1 -2
-17 7 -34 19 -24 17 -30 27 -25 44 3 11 11 77 16 146 8 98 13 128 27 138 9 7
23 10 30 7 8 -3 18 -5 23 -5z m-2405 -14 c-22 -7 -42 -18 -44 -24 -2 -7 -10
-12 -18 -12 -25 0 -3 30 30 39 47 14 77 11 32 -3z m481 -8 c-3 -8 -6 -5 -6 6
-1 11 2 17 5 13 3 -3 4 -12 1 -19z m-1348 -43 c0 -5 -4 -2 -10 8 -5 9 -20 17
-32 18 -20 1 -20 2 3 8 24 7 38 -5 39 -34z m-366 16 c-4 -16 -11 -18 -40 -14
-24 4 -38 2 -44 -8 -7 -11 -9 -9 -9 8 0 19 6 22 48 26 26 2 48 4 49 5 0 1 -1
-7 -4 -17z m283 -6 c-3 -11 -6 -23 -6 -27 0 -4 -7 -5 -15 -2 -10 4 -15 0 -15
-12 0 -15 -2 -16 -9 -5 -5 8 -28 14 -55 15 -25 1 -49 5 -52 9 -4 4 -16 7 -26
7 -10 0 -18 4 -18 9 0 13 79 28 143 27 53 -1 58 -3 53 -21z m294 11 c0 -2 -12
-11 -26 -21 -22 -14 -28 -15 -35 -4 -15 24 -10 29 26 29 19 0 35 -2 35 -4z
m408 -10 c45 -2 82 0 82 5 0 5 10 9 22 9 21 0 21 0 -3 -23 -13 -13 -28 -23
-33 -23 -5 1 -10 -4 -13 -10 -2 -7 14 -14 39 -18 30 -5 39 -9 28 -16 -8 -5
-17 -7 -21 -4 -4 2 -9 -1 -11 -8 -3 -9 -13 -8 -38 4 -23 11 -41 13 -56 8 -23
-9 -37 -3 -28 11 3 5 21 9 40 9 19 0 34 4 34 10 0 17 -37 30 -84 30 -38 0 -48
-4 -66 -31 l-22 -30 -16 23 c-17 23 -24 47 -17 57 2 3 20 5 42 4 21 -2 75 -5
121 -7z m997 -12 c24 -26 27 -26 101 -19 44 4 84 13 91 21 25 24 33 15 15 -16
-9 -17 -22 -28 -29 -25 -7 2 -15 -1 -19 -6 -4 -7 -10 -7 -16 -1 -6 6 -24 6
-48 1 -32 -7 -46 -5 -75 11 -19 11 -35 17 -35 14 0 -4 -7 0 -16 7 -14 11 -18
10 -30 -6 -13 -18 -14 -17 -14 7 0 24 9 32 43 37 4 0 19 -11 32 -25z m-1345
-17 c0 -2 -11 -14 -25 -27 -18 -16 -25 -19 -25 -9 0 12 8 19 48 38 1 0 2 0 2
-2z m-750 -15 c-13 -5 -13 -32 -1 -32 6 0 13 5 16 10 3 6 14 10 23 9 14 0 14
-2 2 -6 -8 -3 -27 -18 -42 -34 -18 -19 -37 -29 -56 -29 -19 0 -35 -8 -45 -22
-13 -19 -16 -20 -16 -6 -1 21 -48 46 -76 41 -31 -6 -65 -25 -65 -37 0 -6 -12
-24 -26 -40 -26 -27 -26 -29 -11 -61 9 -18 25 -36 36 -40 31 -10 15 -33 -21
-29 -23 3 -37 -2 -54 -21 -26 -28 -44 -32 -44 -10 0 9 10 19 22 24 13 5 17 10
11 14 -6 4 -18 1 -25 -7 -8 -7 -27 -13 -42 -13 -19 0 -24 2 -15 8 20 12 7 19
-37 22 -58 3 -70 19 -47 60 l19 32 89 1 c81 2 89 4 97 23 4 12 19 32 33 46
l26 24 -45 6 c-37 6 -50 3 -76 -15 -17 -12 -34 -19 -38 -15 -4 4 2 12 12 19
10 6 26 19 35 29 17 18 71 23 87 7 5 -5 64 -12 129 -14 66 -2 108 -2 93 1 -16
2 -28 11 -28 19 0 8 -7 17 -15 20 -28 11 -7 19 49 19 31 0 52 -1 46 -3z m-133
-8 c-3 -3 -12 -4 -19 -1 -8 3 -5 6 6 6 11 1 17 -2 13 -5z m436 -1 c-7 -2 -19
-2 -25 0 -7 3 -2 5 12 5 14 0 19 -2 13 -5z m327 -2 c0 -13 -24 -17 -81 -13
-72 6 -60 22 16 22 36 0 65 -4 65 -9z m-415 -11 c-3 -5 -12 -7 -20 -3 -21 7
-19 13 6 13 11 0 18 -4 14 -10z m1078 0 c8 0 8 -3 0 -11 -13 -13 -43 -5 -43
12 0 6 7 8 16 5 9 -3 21 -6 27 -6z m65 3 c-10 -2 -26 -2 -35 0 -10 3 -2 5 17
5 19 0 27 -2 18 -5z m844 -48 c-20 -25 -21 -25 -31 -6 -16 29 -14 34 14 29 14
-3 25 -1 25 5 0 6 3 8 6 4 4 -3 -3 -18 -14 -32z m-1684 -6 c21 -1 21 -3 -10
-30 -29 -25 -42 -29 -98 -30 -92 -3 -103 -1 -120 20 -8 10 -26 22 -40 27 l-25
8 30 7 c25 6 130 5 263 -2z m-298 -11 c0 -7 -5 -20 -10 -28 -8 -13 -10 -13
-10 2 0 9 -8 22 -17 27 -15 9 -14 10 10 11 15 0 27 -5 27 -12z m-100 -18 c-8
-5 -17 -7 -19 -4 -3 3 1 9 9 14 8 5 17 7 19 4 3 -3 -1 -9 -9 -14z m-120 6 c0
-3 -4 -8 -10 -11 -5 -3 -10 -1 -10 4 0 6 5 11 10 11 6 0 10 -2 10 -4z m50 -16
c0 -5 -5 -10 -11 -10 -5 0 -7 5 -4 10 3 6 8 10 11 10 2 0 4 -4 4 -10z m840
-18 c0 -5 -7 -17 -15 -28 -14 -19 -14 -19 -15 2 0 11 3 24 7 27 9 10 23 9 23
-1z m1680 -23 c0 -11 -4 -18 -9 -15 -5 4 -11 1 -13 -6 -3 -9 -6 -9 -11 -1 -4
6 0 19 9 27 20 21 24 20 24 -5z m550 11 c0 -5 -2 -10 -4 -10 -3 0 -8 5 -11 10
-3 6 -1 10 4 10 6 0 11 -4 11 -10z m-2110 -10 c0 -5 -4 -10 -10 -10 -5 0 -10
5 -10 10 0 6 5 10 10 10 6 0 10 -4 10 -10z m1810 -11 c0 -8 5 -7 15 1 19 15
28 9 19 -14 -7 -19 -32 -20 -56 -2 -23 17 -23 26 2 26 11 0 20 -5 20 -11z
m270 -3 c0 -11 -19 -15 -25 -6 -3 5 1 10 9 10 9 0 16 -2 16 -4z m130 -6 c0 -5
-4 -10 -10 -10 -5 0 -10 5 -10 10 0 6 5 10 10 10 6 0 10 -4 10 -10z m-2625
-21 c149 -6 351 -12 451 -13 111 -2 189 -8 202 -15 16 -9 33 -9 67 0 34 9 106
8 298 -2 296 -15 364 -18 597 -24 96 -3 211 -10 255 -16 44 -6 118 -13 165
-14 101 -4 243 -13 320 -21 30 -3 123 -6 207 -7 l152 -2 6 -40 c3 -22 7 -53 8
-70 l2 -30 -95 -1 c-52 0 -135 4 -185 9 -49 5 -128 11 -175 13 -47 2 -130 5
-185 7 -55 2 -110 9 -122 15 -25 14 -69 16 -77 4 -2 -4 -42 -4 -88 1 -133 13
-176 16 -298 17 -71 1 -118 6 -122 13 -5 8 -11 7 -21 -2 -12 -9 -29 -10 -78
-1 -76 14 -104 8 -141 -32 -28 -30 -28 -30 -28 -6 0 13 4 28 9 33 6 6 -7 11
-36 13 -34 2 -48 -1 -59 -15 -11 -14 -13 -15 -14 -3 0 12 -15 15 -68 17 -393
9 -394 9 -438 60 -23 27 -100 43 -91 19 3 -7 -4 -18 -14 -24 -10 -7 -19 -19
-19 -26 0 -8 -5 -18 -11 -22 -9 -5 -10 3 -5 28 5 30 3 38 -18 52 -33 21 -67
22 -60 1 4 -10 0 -15 -14 -15 -11 0 -22 -5 -24 -11 -3 -9 -9 -9 -25 0 -24 12
-73 14 -88 3 -6 -4 -23 -22 -38 -40 -15 -19 -27 -29 -27 -23 0 6 9 19 20 28
26 23 25 31 -6 59 -25 24 -54 32 -54 16 0 -5 -11 -15 -24 -22 -20 -10 -31 -10
-55 0 -28 11 -33 10 -62 -14 -31 -27 -49 -33 -49 -17 0 5 -16 12 -36 16 -20 3
-60 17 -90 31 -52 24 -100 32 -90 15 3 -5 -6 -17 -21 -26 -20 -14 -28 -15 -31
-5 -3 9 -6 9 -11 1 -6 -8 -39 -8 -129 1 -116 11 -153 8 -122 -12 13 -8 13 -10
-1 -10 -8 0 -34 -14 -56 -30 -38 -28 -41 -29 -36 -9 3 12 19 29 34 38 34 19
38 35 8 26 -14 -5 -19 -4 -15 4 4 6 1 9 -7 5 -15 -5 -27 22 -27 63 0 15 7 23
23 25 37 5 474 -2 762 -13z m2438 0 c-13 -13 -55 -16 -60 -3 -2 6 12 10 33 11
21 1 32 -3 27 -8z m145 -16 c-13 -12 -20 -13 -30 -6 -7 6 -26 13 -43 16 -17 2
-4 5 30 6 55 1 58 0 43 -16z m512 -94 c0 -10 -7 -22 -16 -27 -11 -6 -13 -11
-5 -16 6 -4 11 -12 11 -18 0 -6 -9 -3 -20 7 -11 10 -20 14 -21 9 0 -5 -4 0 -8
11 -4 11 -3 34 2 51 10 31 11 32 33 17 13 -8 24 -24 24 -34z m-3870 17 c0 -3
-4 -8 -10 -11 -5 -3 -10 -1 -10 4 0 6 5 11 10 11 6 0 10 -2 10 -4z m-382 -28
c-5 -15 -35 -34 -43 -27 -3 4 -3 14 1 23 7 18 48 23 42 4z m122 4 c0 -4 -9
-13 -20 -20 -23 -14 -26 -8 -7 13 13 16 27 19 27 7z m520 -12 c0 -5 -4 -10
-10 -10 -5 0 -10 5 -10 10 0 6 5 10 10 10 6 0 10 -4 10 -10z m-360 -35 c-7 -9
-15 -13 -18 -10 -3 2 1 11 8 20 7 9 15 13 18 10 3 -2 -1 -11 -8 -20z m-110 -5
c0 -10 -13 -14 -37 -11 -6 1 -14 -3 -18 -9 -3 -5 -11 -10 -17 -10 -6 0 -3 9 7
20 19 21 65 28 65 10z m1170 -13 c0 -2 -13 -19 -30 -37 -25 -28 -30 -30 -30
-14 0 11 12 27 28 36 29 18 32 20 32 15z m490 -11 c0 -3 -4 -8 -10 -11 -5 -3
-10 -1 -10 4 0 6 5 11 10 11 6 0 10 -2 10 -4z m2410 -18 c0 -16 -3 -19 -11
-11 -6 6 -8 16 -5 22 11 17 16 13 16 -11z m-3301 -1 c-2 -1 -13 -9 -24 -17
-19 -14 -19 -14 -6 3 7 9 18 17 24 17 6 0 8 -1 6 -3z m1075 -5 c3 -5 0 -9 -7
-9 -7 -1 -27 -6 -44 -11 -26 -8 -33 -8 -33 3 0 20 73 35 84 17z m56 -9 c0 -5
-5 -15 -10 -23 -8 -12 -10 -11 -10 8 0 12 5 22 10 22 6 0 10 -3 10 -7z m615
-12 c-3 -6 -11 -11 -17 -11 -6 0 -6 6 2 15 14 17 26 13 15 -4z m345 12 c0 -14
-19 -38 -25 -32 -8 8 5 39 16 39 5 0 9 -3 9 -7z m-1960 -33 c-11 -20 -30 -28
-30 -12 0 11 22 32 32 32 5 0 4 -9 -2 -20z m3170 -26 c0 -21 -4 -33 -10 -29
-17 10 -11 65 7 65 2 0 3 -16 3 -36z m-800 11 c-7 -9 -15 -13 -17 -11 -7 7 7
26 19 26 6 0 6 -6 -2 -15z m-3251 -306 c-16 -10 -23 -4 -14 10 3 6 11 8 17 5
6 -4 5 -9 -3 -15z m688 -21 c-3 -8 -6 -5 -6 6 -1 11 2 17 5 13 3 -3 4 -12 1
-19z m-605 -40 c-7 -7 -12 -8 -12 -2 0 6 3 14 7 17 3 4 9 5 12 2 2 -3 -1 -11
-7 -17z m175 2 c2 0 3 -6 3 -13 0 -9 -11 -12 -35 -9 -26 3 -35 9 -35 22 0 16
4 17 32 9 18 -5 34 -9 35 -9z m388 -12 c4 -3 15 -21 25 -40 15 -28 23 -33 53
-33 31 0 34 -2 25 -19 -6 -12 -13 -15 -17 -8 -4 6 -38 11 -76 12 -101 1 -107
2 -139 33 -16 15 -34 27 -41 27 -7 0 -18 7 -25 15 -7 8 -21 15 -31 15 -11 0
-19 3 -19 8 0 9 236 0 245 -10z m261 -33 c7 -29 33 -46 60 -40 11 3 35 8 54
13 31 7 32 9 13 14 -13 3 -23 12 -23 19 0 9 32 11 142 6 77 -4 143 -9 145 -11
3 -2 6 -12 7 -23 3 -16 14 -18 87 -20 46 0 75 1 64 4 -40 10 -36 22 9 28 57 9
192 -3 226 -19 16 -8 39 -10 65 -5 63 12 199 11 213 -3 6 -6 30 -10 54 -9 152
8 363 -1 378 -15 2 -3 5 -13 5 -22 0 -26 44 -44 90 -36 58 9 265 10 265 1 0
-4 -15 -16 -32 -27 -39 -23 -90 -22 -463 11 -66 6 -133 9 -150 8 -110 -10
-749 9 -778 22 -12 6 -40 21 -62 34 -51 30 -89 31 -117 3 -16 -16 -35 -23 -73
-24 -66 -2 -157 15 -149 27 3 6 0 9 -7 8 -8 -2 -42 6 -76 15 -54 16 -63 22
-63 42 0 22 4 24 55 24 50 0 55 -2 61 -25z m-546 11 c0 -3 -4 -8 -10 -11 -5
-3 -10 -1 -10 4 0 6 5 11 10 11 6 0 10 -2 10 -4z m2465 -96 c-3 -5 -23 -10
-43 -9 -33 1 -34 2 -12 9 36 12 62 12 55 0z m108 -5 c23 -2 107 -7 187 -10
315 -12 409 -17 520 -25 85 -6 117 -5 123 3 5 7 6 3 2 -9 -3 -12 -1 -32 3 -45
12 -31 -4 -76 -29 -82 -10 -3 -17 -1 -13 4 3 5 -7 10 -23 11 -15 1 -41 2 -58
3 -16 1 -88 5 -160 9 -71 3 -155 10 -185 15 -30 5 -58 7 -62 5 -4 -3 -35 0
-70 5 -35 6 -108 13 -163 17 -55 3 -103 8 -107 11 -5 2 -8 15 -8 28 0 24 -23
55 -41 55 -5 0 -9 5 -9 11 0 7 10 9 25 5 14 -4 44 -8 68 -11z m-1463 -115 c0
-11 -24 -22 -73 -34 -42 -10 -30 16 14 31 43 15 59 16 59 3z m-1542 -39 c10
-6 7 -10 -14 -15 -15 -4 -30 -3 -33 2 -3 5 -13 12 -21 15 -8 3 1 6 20 6 19 0
41 -3 48 -8z m-118 -13 c0 -4 -7 -8 -15 -8 -8 0 -15 4 -15 8 0 5 7 9 15 9 8 0
15 -4 15 -9z m223 -9 l22 -21 -24 4 c-14 2 -25 11 -27 21 -3 22 2 22 29 -4z
m337 7 c8 -1 18 -5 22 -11 5 -6 8 -5 8 3 0 7 8 4 20 -8 11 -11 20 -21 20 -23
0 -3 -38 -1 -180 8 -47 3 -95 6 -107 6 -43 2 -12 26 34 27 25 1 48 4 51 7 3 2
30 2 61 -2 31 -3 63 -7 71 -7z m779 -47 c2 -8 6 -8 11 1 14 23 270 -17 270
-42 0 -7 -163 -1 -187 7 -7 2 -61 7 -120 10 -60 4 -115 9 -123 12 -8 3 -40 12
-70 19 -52 13 -49 13 80 9 87 -3 136 -9 139 -16z m821 -36 c14 -3 37 -13 52
-21 22 -13 33 -14 68 -3 47 14 60 9 53 -19 -4 -15 -9 -17 -23 -10 -10 6 -36 9
-58 8 -21 0 -45 2 -52 7 -7 4 -16 2 -21 -6 -6 -9 -12 -10 -16 -4 -5 6 -57 11
-118 12 -140 2 -275 13 -275 22 0 28 29 32 195 26 94 -3 181 -9 195 -12z
m-410 -8 c0 -12 -10 -15 -40 -13 -22 2 -40 7 -40 11 0 5 -4 6 -9 2 -5 -3 -12
-1 -16 5 -4 6 14 10 49 10 44 0 56 -3 56 -15z"/>
<path d="M3237 2626 c-4 -10 -5 -21 -2 -24 9 -9 17 6 13 25 -3 17 -4 17 -11
-1z"/>
<path d="M3112 2588 c-8 -82 -20 -166 -27 -180 -5 -13 -3 -18 8 -18 8 0 20
-12 25 -27 8 -21 10 7 10 110 0 75 -3 137 -7 137 -4 0 -8 -10 -9 -22z"/>
<path d="M3082 2530 c0 -14 2 -19 5 -12 2 6 2 18 0 25 -3 6 -5 1 -5 -13z"/>
<path d="M2566 2493 c-6 -14 -5 -15 5 -6 7 7 10 15 7 18 -3 3 -9 -2 -12 -12z"/>
<path d="M2594 2493 c4 -6 -3 -14 -14 -18 -11 -3 -20 -13 -20 -21 0 -17 16
-19 23 -1 4 9 8 8 16 -3 7 -11 13 -12 21 -4 8 8 5 18 -10 35 -12 13 -19 19
-16 12z"/>
<path d="M2740 2471 c0 -24 21 -62 31 -55 8 4 8 9 0 17 -6 6 -11 19 -11 29 0
10 -4 18 -10 18 -5 0 -10 -4 -10 -9z"/>
<path d="M2026 2424 c-4 -10 -2 -13 6 -8 6 4 25 11 42 15 l31 7 -36 1 c-25 1
-39 -4 -43 -15z"/>
<path d="M2123 2433 c9 -2 23 -2 30 0 6 3 -1 5 -18 5 -16 0 -22 -2 -12 -5z"/>
<path d="M2465 2380 c-3 -5 1 -10 9 -10 9 0 16 5 16 10 0 6 -4 10 -9 10 -6 0
-13 -4 -16 -10z"/>
<path d="M2642 2360 c0 -19 2 -27 5 -17 2 9 2 25 0 35 -3 9 -5 1 -5 -18z"/>
<path d="M1977 2355 c-8 -18 13 -32 23 -15 6 10 8 10 12 -1 2 -7 9 -9 17 -5 9
6 9 11 0 22 -15 18 -45 18 -52 -1z"/>
<path d="M2873 2355 c-3 -9 -3 -18 -1 -21 3 -3 8 4 11 16 6 23 -1 27 -10 5z"/>
<path d="M2478 2343 c6 -2 18 -2 25 0 6 3 1 5 -13 5 -14 0 -19 -2 -12 -5z"/>
<path d="M2915 2340 c3 -5 8 -10 11 -10 2 0 4 5 4 10 0 6 -5 10 -11 10 -5 0
-7 -4 -4 -10z"/>
<path d="M3120 2320 c0 -5 5 -10 10 -10 6 0 10 5 10 10 0 6 -4 10 -10 10 -5 0
-10 -4 -10 -10z"/>
<path d="M2304 2275 c-11 -26 4 -30 110 -27 79 2 106 7 106 16 0 10 -22 13
-90 11 -50 -1 -93 2 -96 6 -8 14 -24 11 -30 -6z"/>
<path d="M2536 2276 c3 -8 1 -17 -5 -21 -18 -10 -12 -25 9 -25 11 0 20 5 20
10 0 6 21 10 48 10 l47 1 -24 19 c-26 22 -47 26 -53 9 -3 -9 -9 -9 -26 0 -18
9 -21 9 -16 -3z"/>
<path d="M2725 2271 c-3 -6 -18 -12 -33 -12 -19 -1 -15 -4 13 -8 48 -7 110 -2
98 9 -15 14 -71 22 -78 11z"/>
<path d="M3795 2499 c-9 -13 13 -30 35 -26 8 1 15 9 15 17 0 18 -40 26 -50 9z"/>
<path d="M1207 2304 c-8 -8 3 -34 14 -34 5 0 9 9 9 20 0 19 -11 26 -23 14z"/>
<path d="M970 1675 c0 -9 -7 -18 -16 -22 -12 -4 -13 -8 -3 -14 8 -4 18 -1 26
9 15 20 17 42 3 42 -5 0 -10 -7 -10 -15z"/>
<path d="M420 1596 c0 -35 15 -40 16 -5 1 16 -3 29 -7 29 -5 0 -9 -11 -9 -24z"/>
<path d="M562 1558 c3 -7 15 -14 29 -16 27 -2 57 13 46 24 -3 4 -14 1 -22 -6
-12 -10 -19 -10 -27 -2 -16 16 -31 15 -26 0z"/>
<path d="M3033 1693 c9 -2 23 -2 30 0 6 3 -1 5 -18 5 -16 0 -22 -2 -12 -5z"/>
<path d="M3097 1663 c-13 -12 -7 -23 13 -23 11 0 20 7 20 15 0 15 -21 21 -33
8z"/>
<path d="M2938 1651 c-7 -2 -19 -8 -26 -14 -19 -15 5 -28 38 -21 23 5 24 4 8
-9 -26 -21 -22 -27 17 -27 34 0 46 12 25 25 -18 11 -10 35 12 35 12 0 18 3 14
8 -8 7 -67 10 -88 3z"/>
<path d="M3085 1620 c-4 -6 11 -10 41 -10 54 0 55 4 2 14 -21 4 -39 2 -43 -4z"/>
<path d="M3243 1593 c9 -2 23 -2 30 0 6 3 -1 5 -18 5 -16 0 -22 -2 -12 -5z"/>
<path d="M3208 1563 c6 -2 18 -2 25 0 6 3 1 5 -13 5 -14 0 -19 -2 -12 -5z"/>
<path d="M3440 1548 c0 -9 -6 -19 -12 -21 -7 -3 -8 -6 -3 -6 6 0 17 4 25 9 12
7 12 12 2 22 -9 9 -12 9 -12 -4z"/>
<path d="M3017 1520 c-4 -17 0 -20 24 -20 31 0 36 9 17 28 -18 18 -35 15 -41
-8z"/>
<path d="M3328 1533 c-10 -2 -18 -9 -18 -14 0 -5 -11 -9 -25 -9 -14 0 -25 5
-25 10 0 21 -48 9 -84 -22 -41 -35 -35 -48 21 -48 37 0 50 14 33 35 -11 13 4
14 111 11 68 -3 114 -3 101 0 -12 3 -27 14 -32 25 -10 18 -41 23 -82 12z"/>
<path d="M3130 1515 c-11 -13 -9 -15 15 -15 16 0 25 5 23 12 -7 19 -24 20 -38
3z"/>
<path d="M3480 1505 c0 -8 5 -15 10 -15 6 0 10 7 10 15 0 8 -4 15 -10 15 -5 0
-10 -7 -10 -15z"/>
<path d="M3530 1453 c0 -21 2 -24 15 -13 8 7 15 16 15 20 0 4 -7 10 -15 14
-11 4 -15 -2 -15 -21z"/>
<path d="M3330 1423 c-46 -23 -86 -61 -75 -71 6 -6 48 -12 95 -13 82 -3 85 -3
88 19 8 55 -54 92 -108 65z"/>
<path d="M3186 1305 c-11 -8 -18 -16 -15 -19 2 -2 58 -6 124 -10 101 -6 117
-5 100 6 -41 28 -93 40 -116 28 -15 -9 -24 -9 -32 -1 -15 15 -38 13 -61 -4z"/>
<path d="M3458 1223 c12 -2 32 -2 45 0 12 2 2 4 -23 4 -25 0 -35 -2 -22 -4z"/>
<path d="M3555 1220 c45 -11 95 -11 95 0 0 6 -27 9 -62 9 -50 -1 -57 -3 -33
-9z"/>
<path d="M3320 1199 c0 -5 5 -7 10 -4 6 3 10 8 10 11 0 2 -4 4 -10 4 -5 0 -10
-5 -10 -11z"/>
<path d="M3008 1183 c6 -2 18 -2 25 0 6 3 1 5 -13 5 -14 0 -19 -2 -12 -5z"/>
<path d="M2120 1335 c-11 -13 -5 -15 41 -15 50 1 52 2 35 15 -25 19 -60 19
-76 0z"/>
<path d="M2321 1337 c-15 -19 -4 -27 34 -27 37 0 46 6 38 26 -7 18 -57 18 -72
1z"/>
<path d="M2430 1325 c-24 -14 -23 -14 30 -14 51 0 53 1 36 14 -24 18 -34 18
-66 0z"/>
<path d="M2410 1278 c-11 -12 -20 -25 -20 -29 0 -4 30 -9 66 -11 79 -4 98 10
58 41 -35 27 -78 27 -104 -1z"/>
<path d="M2201 1267 c-9 -12 -7 -16 11 -21 13 -3 36 -6 51 -6 22 0 28 4 25 18
-4 22 -70 29 -87 9z"/>
<path d="M2688 1253 c7 -3 16 -2 19 1 4 3 -2 6 -13 5 -11 0 -14 -3 -6 -6z"/>
<path d="M717 3453 c-4 -3 -7 -11 -7 -17 0 -6 5 -5 12 2 6 6 9 14 7 17 -3 3
-9 2 -12 -2z"/>
<path d="M3488 3192 c-4 -12 -2 -24 2 -27 13 -8 18 8 10 29 -6 19 -7 19 -12
-2z"/>
<path d="M1387 2963 c-12 -12 -7 -22 8 -17 8 4 15 10 15 15 0 11 -14 12 -23 2z"/>
<path d="M3241 2893 c-5 -10 -13 -17 -18 -16 -4 2 -8 -15 -8 -37 0 -46 2 -48
15 -17 6 12 19 37 30 55 15 25 17 32 5 32 -8 0 -18 -8 -24 -17z"/>
<path d="M3180 2760 c0 -5 5 -10 11 -10 5 0 7 5 4 10 -3 6 -8 10 -11 10 -2 0
-4 -4 -4 -10z"/>
<path d="M4670 2491 c8 -6 28 -11 44 -11 39 0 31 6 -19 14 -29 5 -36 4 -25 -3z"/>
<path d="M1673 2456 c-4 -7 -15 -16 -23 -19 -9 -3 -3 -6 13 -6 21 -1 27 4 27
19 0 23 -6 25 -17 6z"/>
<path d="M1610 2360 c0 -5 9 -10 20 -10 11 0 20 5 20 10 0 6 -9 10 -20 10 -11
0 -20 -4 -20 -10z"/>
<path d="M4460 125 c0 -8 5 -15 11 -15 6 0 17 7 25 15 14 13 13 15 -10 15 -16
0 -26 -6 -26 -15z"/>
<path d="M4500 71 c1 -9 26 -41 34 -41 3 0 6 7 6 15 0 8 5 15 12 15 6 0 9 3 6
6 -9 8 -58 13 -58 5z"/>
<path d="M4550 15 c0 -9 9 -15 25 -15 28 0 34 15 9 24 -25 10 -34 7 -34 -9z"/>
</g>
</svg>
