<?xml version="1.0" standalone="no"?>
<!DOCTYPE svg PUBLIC "-//W3C//DTD SVG 20010904//EN"
 "http://www.w3.org/TR/2001/REC-SVG-20010904/DTD/svg10.dtd">
<svg version="1.0" xmlns="http://www.w3.org/2000/svg"
 width="600.000000pt" height="419.000000pt" viewBox="0 0 600.000000 419.000000"
 preserveAspectRatio="xMidYMid meet">
<metadata>
Created by potrace 1.16, written by Peter Selinger 2001-2019
</metadata>
<g transform="translate(0.000000,419.000000) scale(0.100000,-0.100000)"
fill="#000000" stroke="none">
<path d="M42 4142 c-32 -34 -42 -52 -42 -78 0 -21 5 -33 12 -31 6 1 14 -6 16
-15 2 -11 -2 -18 -12 -18 -14 0 -16 -19 -16 -139 0 -91 4 -142 11 -147 6 -3 9
-18 6 -32 -3 -14 -1 -37 3 -53 6 -19 4 -33 -6 -46 -7 -10 -14 -37 -14 -60 0
-40 1 -41 28 -34 23 7 27 13 28 47 1 60 2 61 37 68 55 11 59 17 40 64 -9 23
-20 42 -24 42 -5 0 -6 7 -3 15 4 8 11 15 16 15 6 0 7 -7 4 -16 -5 -14 -2 -15
21 -8 67 19 155 -11 161 -54 3 -19 -1 -22 -31 -22 -28 0 -41 -8 -76 -50 -23
-27 -39 -54 -36 -60 3 -5 35 -10 70 -10 44 0 68 -5 79 -16 27 -26 18 -41 -30
-54 -45 -13 -94 -48 -94 -67 0 -5 -27 -15 -61 -21 -33 -7 -61 -18 -63 -25 -16
-59 -23 -72 -44 -75 l-22 -3 0 -500 0 -500 306 5 305 5 73 69 c41 37 102 83
137 102 35 18 95 58 133 88 120 92 213 128 371 142 44 4 88 11 98 15 12 5 17
3 17 -9 0 -9 5 -16 11 -16 7 0 8 7 4 18 -3 9 -7 22 -8 27 -3 14 52 14 183 -1
152 -18 156 -18 140 1 -8 9 -10 29 -7 49 5 29 1 37 -24 55 -22 16 -28 28 -24
42 6 17 1 19 -52 20 -89 2 -96 0 -125 -32 -41 -43 -81 -40 -111 9 -13 20 -28
51 -34 67 -11 34 -65 75 -97 75 -29 0 -76 -22 -76 -36 0 -6 7 -17 15 -24 17
-14 19 -29 6 -49 -11 -18 -91 -24 -109 -9 -9 8 -20 7 -39 -1 -23 -11 -24 -13
-10 -29 14 -16 32 -81 25 -92 -2 -3 7 -19 20 -37 27 -38 28 -49 3 -63 -15 -7
-32 -6 -66 5 -25 9 -54 14 -64 10 -10 -3 -32 5 -52 20 -57 42 -96 55 -159 55
-65 0 -100 12 -100 34 0 31 29 38 157 37 140 -1 167 6 142 36 -24 28 -30 63
-13 88 17 27 14 30 -66 65 -57 25 -108 55 -148 87 -28 23 -21 51 17 59 28 7
61 32 61 46 0 20 -45 47 -70 41 -55 -11 -61 -16 -82 -59 -16 -35 -25 -44 -42
-42 -14 2 -20 9 -18 21 4 24 -43 45 -66 29 -48 -33 -84 -45 -101 -34 -9 7 -26
16 -38 21 -11 6 -24 15 -28 21 -4 6 -24 22 -46 36 -41 25 -52 54 -21 54 9 0
39 18 66 40 41 34 55 40 96 40 26 0 67 7 90 15 23 8 63 15 89 15 44 0 71 13
155 73 27 19 15 42 -33 67 -57 29 -69 55 -40 86 28 30 30 30 95 -1 70 -33 145
-47 208 -39 41 6 57 14 84 43 17 19 32 45 32 57 0 13 15 36 36 56 20 18 46 42
57 52 21 20 65 32 150 43 32 4 51 12 58 24 9 17 6 19 -27 19 -27 0 -41 7 -56
25 -11 14 -28 25 -38 25 -11 0 -63 -16 -116 -36 -80 -30 -105 -35 -146 -31
-79 10 -102 53 -46 86 15 9 44 35 63 58 29 34 48 45 107 63 40 12 89 30 109
40 41 22 115 33 239 39 27 1 38 7 47 26 l11 25 -648 0 -648 0 25 -47 c13 -27
36 -59 49 -74 13 -14 24 -31 24 -38 0 -24 102 -151 126 -157 13 -3 38 -1 55 5
50 17 75 13 93 -14 16 -24 16 -25 -9 -25 -38 0 -74 -27 -68 -50 4 -16 0 -20
-21 -20 -39 0 -64 16 -118 70 -39 41 -54 50 -95 55 -78 11 -147 33 -171 55
-25 24 -29 62 -7 80 21 17 19 25 -10 54 -34 34 -32 62 8 86 l32 20 -75 -1 -75
-2 -43 -45z m18 -102 c0 -5 -2 -10 -4 -10 -3 0 -8 5 -11 10 -3 6 -1 10 4 10 6
0 11 -4 11 -10z m874 -256 c18 -18 18 -17 10 -38 -6 -17 -30 -22 -37 -8 -2 4
-7 19 -11 35 -7 31 12 37 38 11z m-364 -28 c0 -3 -4 -8 -10 -11 -5 -3 -10 -1
-10 4 0 6 5 11 10 11 6 0 10 -2 10 -4z m-485 -37 c0 -7 -8 -15 -17 -17 -15 -3
-16 3 -9 36 3 10 26 -7 26 -19z m622 -566 c-4 -3 -2 -12 4 -20 9 -10 8 -13 -4
-13 -9 0 -19 5 -22 10 -8 12 2 30 17 30 6 0 8 -3 5 -7z m-477 -68 c30 -16 35
-25 45 -92 5 -35 2 -50 -21 -88 -48 -83 -94 -81 -152 8 -15 23 -38 52 -52 64
-20 18 -22 22 -8 23 20 0 77 34 121 72 38 33 32 31 67 13z m390 -140 c0 -8 -6
-15 -14 -15 -17 0 -28 14 -19 24 12 12 33 6 33 -9z m720 -175 c19 -5 40 -18
47 -29 27 -42 -52 -68 -130 -42 -47 16 -46 39 3 63 41 21 36 20 80 8z"/>
<path d="M2284 4175 c25 -19 31 -19 46 0 11 13 7 15 -26 15 -36 -1 -38 -2 -20
-15z"/>
<path d="M2492 4153 c49 -51 61 -111 29 -154 -12 -16 -24 -42 -27 -59 -6 -27
-10 -30 -44 -30 -49 0 -60 -15 -63 -86 -1 -33 -6 -62 -12 -66 -12 -9 -35 10
-35 29 0 28 -39 69 -82 87 -76 32 -82 35 -111 58 -27 22 -28 22 -55 5 -15 -10
-35 -21 -44 -24 -26 -8 -22 -19 15 -44 17 -13 35 -28 39 -34 13 -18 8 -78 -8
-96 -22 -25 -10 -52 31 -72 45 -21 42 -22 50 13 4 17 13 30 21 30 17 0 17 -5
3 -29 -19 -29 3 -53 62 -70 52 -16 54 -18 57 -54 2 -21 -2 -44 -7 -51 -11 -13
-128 -30 -191 -28 -107 4 -120 2 -102 -21 15 -17 6 -27 -25 -27 -26 0 -27 3
-13 31 9 16 7 19 -11 19 -39 0 -125 -48 -153 -85 -22 -29 -31 -34 -42 -24 -7
6 -11 16 -7 23 4 6 -1 5 -11 -3 -24 -20 -16 -44 18 -48 16 -2 34 -10 40 -17
30 -34 43 -37 108 -26 50 9 81 9 150 -3 73 -12 91 -12 105 -1 25 18 34 17 31
-3 -2 -12 2 -17 12 -14 27 8 132 6 136 -1 3 -5 23 -8 44 -8 44 0 71 -21 63
-49 -11 -44 196 -75 281 -42 23 9 33 9 53 -4 13 -9 28 -13 33 -10 6 3 10 -3
10 -14 0 -11 -13 -27 -30 -38 -36 -21 -47 -50 -27 -70 13 -13 17 -11 35 11 11
14 29 26 40 26 12 0 24 5 27 10 3 6 17 10 29 10 13 0 30 10 39 23 24 36 39 10
35 -64 l-3 -64 -62 -40 c-57 -37 -62 -43 -68 -85 -5 -35 -3 -47 8 -54 13 -9
13 -12 -5 -28 -40 -34 -6 -18 77 37 45 30 118 71 161 91 44 20 104 52 134 71
114 71 171 102 200 108 42 9 45 21 15 50 -23 21 -26 30 -22 67 9 78 39 162 73
209 29 40 122 130 179 174 19 15 18 15 -16 9 -22 -3 -39 -1 -43 5 -15 24 -63
12 -93 -24 -33 -38 -61 -44 -103 -20 -14 8 -38 15 -55 15 -51 1 -137 52 -160
95 -11 21 -27 41 -34 43 -22 7 -104 -38 -137 -76 -40 -46 -108 -68 -142 -46
-25 16 -57 81 -76 153 l-12 44 -16 -39 c-39 -97 -49 -174 -28 -214 7 -13 6
-21 -5 -30 -22 -18 -27 -9 -28 52 -3 171 106 383 229 446 22 11 69 25 104 32
36 6 87 21 115 32 39 16 64 19 117 16 53 -4 68 -2 68 8 0 9 12 14 35 14 28 0
35 -4 35 -19 0 -10 7 -24 15 -31 16 -13 20 -40 6 -40 -4 0 -20 9 -35 21 -24
19 -27 19 -42 5 -8 -9 -24 -16 -35 -16 -22 0 -23 -7 -6 -43 8 -19 26 -32 61
-43 85 -28 156 -17 156 25 0 9 6 23 12 29 10 10 10 15 -1 21 -9 6 -11 18 -7
36 6 25 10 27 45 22 38 -5 248 -101 286 -131 20 -16 20 -16 1 -31 -19 -14 -19
-16 -1 -81 18 -67 18 -67 -3 -84 -31 -25 -18 -30 36 -13 26 8 105 19 176 23
70 5 130 11 132 13 10 9 -9 35 -33 46 -32 15 -59 6 -90 -28 l-23 -26 6 30 c7
36 106 233 145 291 16 23 35 44 44 48 9 3 14 10 10 15 -3 5 -1 12 5 16 5 3 10
10 10 16 0 5 -353 9 -922 9 l-922 0 36 -37z m978 7 c17 -10 14 -15 -17 -24
-22 -7 -39 7 -28 24 8 12 25 13 45 0z m57 -81 c4 -20 -30 -60 -43 -51 -8 5 -7
17 3 40 13 33 36 39 40 11z m530 -236 c4 -9 1 -19 -5 -21 -7 -2 -12 -10 -12
-18 0 -8 -4 -14 -10 -14 -12 0 -41 55 -33 64 13 13 54 5 60 -11z m-1314 -430
c3 -5 8 -27 12 -50 5 -33 4 -43 -7 -43 -31 0 -63 72 -41 93 9 9 31 9 36 0z"/>
<path d="M4565 4170 c19 -21 14 -47 -11 -57 -9 -3 -52 2 -96 11 -44 10 -82 16
-84 13 -2 -2 22 -12 53 -22 32 -9 77 -26 101 -36 56 -25 83 -24 161 7 92 36
101 47 71 79 -22 23 -30 25 -118 25 -94 0 -95 0 -77 -20z"/>
<path d="M5250 4181 c0 -6 4 -12 9 -16 19 -11 104 -129 117 -161 17 -41 18
-80 2 -91 -7 -4 -29 -9 -48 -9 -60 -3 -113 -20 -170 -54 -30 -18 -73 -42 -95
-53 -22 -11 -55 -37 -73 -58 -32 -36 -37 -38 -73 -33 -25 4 -39 3 -39 -4 0 -6
-7 -9 -15 -6 -8 4 -12 10 -9 15 3 5 0 9 -6 9 -7 0 -26 10 -43 23 -56 40 -75
44 -139 28 -49 -11 -65 -12 -98 -1 -33 11 -46 10 -92 -6 -29 -9 -61 -26 -70
-37 -25 -27 -13 -98 29 -168 29 -48 33 -61 23 -78 -7 -13 -21 -21 -38 -21 -15
0 -32 -4 -37 -8 -12 -8 -39 -64 -37 -74 1 -5 -5 -8 -13 -8 -8 0 -15 -6 -15
-14 0 -8 -3 -16 -8 -18 -10 -4 -72 -102 -72 -114 -1 -5 -11 -21 -23 -36 -20
-25 -25 -26 -62 -18 -22 5 -55 12 -74 15 -47 8 -53 14 -47 39 3 12 -3 31 -14
46 -15 20 -20 22 -34 11 -20 -17 -20 -25 1 -46 22 -23 30 -142 11 -168 -12
-17 -17 -16 -83 8 -55 21 -76 35 -99 66 -28 37 -31 38 -50 24 -12 -9 -34 -24
-49 -34 -32 -21 -29 -26 28 -35 130 -22 326 -100 421 -168 26 -18 72 -46 103
-63 87 -46 178 -115 266 -201 51 -50 75 -79 66 -82 -8 -3 -19 1 -25 9 -6 8
-19 19 -27 24 -19 12 -97 70 -121 90 -34 28 -26 1 12 -39 25 -26 40 -51 40
-67 0 -30 31 -66 65 -75 14 -3 25 -12 25 -19 0 -6 9 -22 20 -35 24 -27 35 -63
26 -85 -8 -22 -43 -18 -61 8 -11 15 -18 18 -23 10 -4 -6 -20 -15 -35 -18 -16
-4 -31 -14 -34 -21 -3 -8 -14 -14 -24 -14 -11 0 -19 -7 -19 -17 0 -15 -2 -16
-10 -3 -6 9 -13 11 -17 5 -5 -5 -18 -16 -30 -22 -18 -10 -21 -10 -17 0 3 8 -2
14 -10 14 -8 0 -15 -3 -14 -6 2 -19 -4 -29 -19 -35 -10 -3 -34 -15 -53 -26
l-35 -20 75 0 c69 0 86 11 35 23 -15 4 -14 5 7 6 15 0 33 -6 41 -14 8 -7 28
-17 43 -20 56 -13 159 -48 182 -63 17 -11 20 -18 11 -28 -6 -8 -18 -14 -25
-14 -8 0 -14 -4 -14 -10 0 -13 17 -13 25 0 3 6 15 10 26 10 13 0 18 4 13 13
-4 6 2 4 13 -5 28 -25 48 -22 98 12 24 17 49 30 56 30 20 0 1 108 -31 177 -16
35 -49 92 -74 127 -25 35 -46 68 -46 74 0 6 15 16 34 22 19 6 46 20 61 32 33
26 59 19 108 -27 45 -43 80 -50 85 -17 2 12 6 22 9 22 3 0 27 -16 53 -35 43
-32 65 -59 62 -76 -2 -14 336 -70 558 -93 l135 -14 75 38 c41 20 88 40 104 44
l29 7 -7 -40 c-5 -31 -3 -41 7 -41 36 0 37 11 37 589 l-1 566 -27 -33 c-15
-18 -33 -32 -39 -32 -7 0 -13 -4 -13 -10 0 -5 -13 -10 -29 -10 -17 0 -32 -4
-35 -9 -3 -4 -25 -5 -48 0 -51 9 -84 3 -109 -22 -29 -29 -64 -23 -104 18 -19
20 -35 45 -35 55 0 25 -30 36 -42 15 -14 -26 -46 -20 -80 13 -29 29 -53 38
-60 22 -1 -5 -37 -28 -78 -53 -58 -34 -85 -44 -120 -44 -37 0 -46 -4 -56 -24
-30 -59 -97 -66 -159 -16 -41 34 -69 38 -86 12 -12 -18 -49 13 -49 40 0 24 35
87 68 121 6 7 12 17 12 21 0 10 61 73 102 104 50 39 187 86 277 96 113 13 243
63 316 121 20 16 54 31 80 34 24 4 47 11 49 15 8 13 81 -4 78 -17 -1 -7 19
-22 44 -32 36 -16 58 -19 95 -14 46 6 49 8 49 35 0 30 -17 38 -38 17 -17 -17
-130 19 -149 49 -8 13 -24 23 -34 23 -10 0 -21 5 -24 10 -3 6 -14 10 -24 10
-10 0 -25 10 -33 22 -14 21 -17 22 -58 8 -23 -8 -45 -21 -48 -29 -7 -23 -54
-60 -74 -61 -10 0 -22 9 -28 20 -19 35 -32 23 -25 -22 7 -37 6 -40 -7 -27 -8
8 -17 30 -21 49 -3 19 -9 44 -12 55 -4 13 2 31 15 48 17 22 30 27 65 27 38 0
43 3 47 25 5 25 5 25 -68 25 -56 0 -74 -3 -74 -14 0 -7 -7 -19 -15 -26 -12
-10 -22 -8 -55 14 -39 26 -90 35 -90 17z m-850 -1903 c0 -21 0 -21 -19 -2 -12
12 -14 21 -8 26 16 10 27 0 27 -24z"/>
<path d="M5656 4174 c-15 -40 18 -44 70 -9 l37 25 -51 0 c-36 0 -52 -4 -56
-16z"/>
<path d="M5890 4165 c0 -18 10 -31 32 -45 17 -10 35 -17 39 -14 4 2 7 22 7 44
0 40 -1 40 -39 40 -35 0 -39 -3 -39 -25z"/>
<path d="M1933 4075 c-24 -10 -31 -18 -27 -30 5 -11 14 -15 28 -11 11 3 28 6
36 6 8 0 24 7 35 16 17 13 18 16 5 24 -20 13 -39 12 -77 -5z"/>
<path d="M5983 4064 c-3 -8 -1 -20 6 -27 8 -8 11 -4 11 16 0 30 -7 35 -17 11z"/>
<path d="M1754 3905 l-29 -12 28 -13 c30 -14 85 -4 79 15 -4 17 -48 23 -78 10z"/>
<path d="M1715 3793 c-22 -3 -50 -13 -61 -25 -13 -11 -32 -18 -45 -16 -39 6
-31 -19 14 -41 54 -26 58 -26 88 0 13 11 43 25 66 32 29 7 43 17 43 28 0 15
-31 31 -55 27 -5 -1 -28 -3 -50 -5z"/>
<path d="M1413 3619 c-10 -12 -29 -33 -42 -48 l-23 -26 28 -5 c25 -4 29 -10
32 -41 4 -46 29 -70 90 -86 26 -7 58 -16 71 -19 24 -7 24 -6 18 41 -8 54 -21
75 -48 75 -33 0 -69 42 -73 85 -4 47 -26 57 -53 24z"/>
<path d="M3900 3610 c0 -5 6 -10 14 -10 8 0 18 5 21 10 3 6 -3 10 -14 10 -12
0 -21 -4 -21 -10z"/>
<path d="M3721 3594 c0 -11 3 -14 6 -6 3 7 2 16 -1 19 -3 4 -6 -2 -5 -13z"/>
<path d="M3804 3578 c-11 -18 13 -33 31 -18 8 7 15 15 15 19 0 11 -39 11 -46
-1z"/>
<path d="M3645 3550 c-8 -13 7 -39 48 -80 19 -19 32 -40 30 -47 -3 -7 0 -20 7
-29 18 -21 -3 -43 -24 -25 -25 21 -38 9 -20 -17 10 -15 20 -20 27 -14 19 13
91 32 126 32 25 0 42 11 83 55 28 30 57 55 64 55 19 0 56 52 46 62 -5 5 -22 8
-38 6 -21 -2 -30 -9 -32 -25 -2 -16 -12 -23 -41 -28 -20 -3 -48 -2 -62 3 -14
6 -32 6 -40 1 -11 -6 -25 1 -48 22 -31 28 -35 29 -57 14 -31 -20 -44 -19 -44
5 0 21 -15 27 -25 10z"/>
<path d="M1200 3405 c-7 -8 -19 -15 -26 -15 -22 0 -17 -16 10 -34 23 -14 26
-14 45 2 15 12 19 24 15 40 -7 25 -26 29 -44 7z"/>
<path d="M823 3343 c-24 -9 -13 -29 27 -52 46 -25 70 -22 70 9 0 29 -64 57
-97 43z"/>
<path d="M1462 3311 c-10 -6 -5 -11 17 -21 34 -13 54 -11 43 6 -10 16 -45 25
-60 15z"/>
<path d="M1167 3249 c-9 -13 -19 -37 -23 -52 l-6 -28 48 6 c44 6 52 4 77 -19
30 -28 56 -34 58 -13 1 6 3 28 4 48 5 54 -10 68 -81 75 -58 6 -63 5 -77 -17z"/>
<path d="M880 3222 c0 -10 41 -35 47 -28 9 8 -17 36 -33 36 -8 0 -14 -3 -14
-8z"/>
<path d="M2325 3177 c-43 -67 -25 -105 25 -52 13 14 28 25 34 25 15 1 56 36
56 48 0 6 -20 12 -45 14 -42 3 -46 1 -70 -35z"/>
<path d="M1520 3142 c0 -8 -3 -13 -6 -10 -3 4 -24 -2 -47 -12 -25 -12 -47 -15
-56 -10 -22 11 -111 7 -114 -5 -1 -6 39 -11 103 -12 58 -2 117 -8 132 -14 14
-6 35 -8 45 -5 10 3 34 1 53 -4 41 -12 67 4 29 19 -13 5 -33 17 -44 28 -11 10
-37 24 -57 30 -33 10 -38 9 -38 -5z"/>
<path d="M1085 3089 c-4 -6 -1 -22 6 -35 14 -27 52 -30 57 -4 3 20 -54 55 -63
39z"/>
<path d="M1956 3041 c-10 -10 -29 -22 -44 -26 -37 -9 -52 -24 -52 -50 0 -12
-7 -28 -15 -35 -8 -7 -15 -18 -15 -24 0 -11 62 -56 78 -56 8 0 42 -52 42 -64
0 -4 -8 -6 -17 -4 -12 2 -19 -4 -21 -19 -2 -13 -7 -23 -12 -23 -5 0 -21 -11
-36 -25 -15 -14 -34 -25 -42 -25 -37 0 8 -19 79 -33 42 -8 114 -33 160 -55 46
-22 118 -55 161 -75 l76 -35 7 68 c7 73 1 110 -18 110 -7 0 -29 12 -50 26 -31
21 -36 28 -26 40 6 8 17 14 24 14 11 0 30 69 22 77 -2 1 -28 -2 -58 -8 -39 -8
-62 -8 -81 0 -37 14 -47 55 -21 89 16 22 29 28 71 30 28 2 61 -2 73 -8 26 -15
44 0 34 29 -4 13 -20 24 -45 31 -22 6 -52 22 -68 35 -32 27 -61 32 -80 13 -10
-10 -46 -4 -98 18 -6 2 -18 -4 -28 -15z m208 -327 c26 -10 21 -76 -7 -103 -20
-18 -29 -20 -49 -12 -24 9 -58 46 -58 62 0 3 9 18 21 33 20 26 57 34 93 20z"/>
<path d="M2520 3029 c0 -6 9 -22 20 -36 11 -14 20 -32 20 -39 0 -8 9 -14 21
-14 25 0 119 40 119 50 0 4 -12 16 -27 26 -32 20 -153 31 -153 13z"/>
<path d="M3960 2951 c0 -9 -5 -22 -12 -29 -16 -16 -81 -15 -96 0 -10 10 -14
10 -21 0 -4 -7 -15 -10 -24 -6 -10 3 -17 1 -17 -5 0 -6 6 -11 13 -11 7 0 18
-9 25 -20 15 -24 12 -25 -33 -3 -30 14 -39 15 -57 4 -17 -11 -22 -10 -29 1 -5
7 -9 11 -10 8 0 -3 -2 -15 -5 -27 -2 -12 1 -25 6 -28 16 -10 12 -25 -5 -19 -8
4 -15 2 -15 -4 0 -6 6 -12 13 -15 9 -3 7 -10 -6 -25 -20 -22 -47 -19 -47 4 0
17 -12 18 -29 2 -11 -11 -13 -9 -8 10 3 12 1 20 -3 17 -5 -3 -30 8 -56 25 -26
16 -52 30 -57 30 -5 0 5 -26 23 -57 31 -57 77 -106 91 -97 16 10 114 -53 152
-98 38 -46 80 -64 89 -38 2 5 18 12 37 14 40 4 87 38 85 60 -1 9 2 16 7 16 5
0 9 5 9 11 0 5 -4 7 -10 4 -5 -3 -10 -1 -10 4 0 15 -27 14 -33 -1 -4 -9 -6 -7
-6 3 -1 9 8 24 19 34 21 19 28 51 9 39 -21 -13 1 108 28 155 26 44 26 44 42
23 9 -11 27 -39 40 -61 35 -58 54 -59 25 -1 -13 26 -24 52 -24 58 0 17 -30 35
-65 38 -27 2 -35 -1 -35 -15z m-177 -112 c10 -7 -8 -49 -21 -49 -4 0 -6 17 -5
37 2 48 3 52 10 33 3 -8 10 -18 16 -21z m110 -176 c-7 -2 -19 -2 -25 0 -7 3
-2 5 12 5 14 0 19 -2 13 -5z"/>
<path d="M4080 2909 c0 -15 4 -19 16 -15 9 3 30 6 47 7 l32 1 -30 13 c-44 21
-65 19 -65 -6z"/>
<path d="M3630 2900 c8 -5 22 -10 30 -10 13 0 13 1 0 10 -8 5 -22 10 -30 10
-13 0 -13 -1 0 -10z"/>
<path d="M1533 2694 c20 -24 22 -44 5 -44 -6 0 -8 -3 -5 -6 4 -4 13 -2 20 5
16 13 25 6 51 -46 17 -35 22 -133 6 -133 -5 0 -10 10 -10 23 0 27 -46 127 -58
127 -5 0 -21 -9 -35 -20 -31 -25 -38 -25 -31 -2 4 13 1 12 -14 -5 -24 -27 -40
-29 -70 -7 -21 14 -22 14 -23 -8 0 -22 -1 -22 -9 -3 -7 17 -9 17 -9 3 -1 -10
-6 -18 -12 -18 -6 0 -9 8 -7 18 3 16 47 43 92 57 34 10 1 28 -38 21 -47 -9
-82 -43 -90 -84 -5 -31 -4 -33 17 -27 21 6 21 6 3 -9 -16 -13 -18 -20 -8 -41
7 -15 8 -25 2 -25 -6 0 -10 -6 -10 -14 0 -8 -6 -17 -12 -20 -7 -3 -1 -4 15 -2
17 2 31 -2 35 -11 12 -21 80 -42 136 -43 27 0 81 -10 119 -22 l69 -23 24 28
c24 28 31 47 17 47 -5 0 -16 -14 -25 -30 -9 -17 -22 -30 -29 -30 -8 0 -8 4 1
15 7 9 10 19 6 23 -4 4 -12 -1 -17 -11 -6 -9 -14 -17 -20 -17 -5 0 0 13 12 30
12 16 25 27 30 25 8 -6 22 25 14 33 -3 3 -5 0 -5 -6 0 -7 -4 -12 -9 -12 -5 0
-10 36 -12 79 -4 69 -8 84 -34 120 -17 23 -46 52 -65 63 -33 21 -34 21 -17 2z
m1 -126 c3 -13 5 -34 5 -48 0 -22 -2 -21 -14 10 -7 19 -14 41 -14 48 -2 21 16
13 23 -10z m-64 -34 c37 -31 33 -42 -7 -21 -15 9 -37 18 -48 22 -16 5 -17 8
-5 15 22 14 25 13 60 -16z"/>
<path d="M2787 2593 c-4 -3 -7 -15 -7 -25 0 -11 -4 -17 -9 -13 -6 3 -13 -10
-17 -30 -7 -38 -24 -57 -24 -28 -1 36 -39 -81 -49 -151 -17 -119 -20 -156 -10
-156 5 0 9 -5 9 -11 0 -5 -5 -7 -11 -3 -13 8 -6 -128 11 -200 l8 -38 -36 6
c-20 3 -42 6 -48 6 -7 0 -20 35 -29 78 -21 96 -78 217 -143 303 -51 66 -128
136 -139 126 -6 -7 -65 24 -127 67 -21 14 -46 26 -55 26 -11 0 -8 -5 9 -17 38
-27 90 -79 90 -91 0 -7 -10 -8 -30 -2 -36 10 -39 -2 -6 -24 14 -8 28 -25 31
-37 8 -25 15 -34 63 -83 24 -26 32 -43 32 -70 0 -32 -3 -36 -25 -36 -25 0 -32
-10 -18 -24 4 -4 8 -21 9 -37 1 -21 -3 -29 -16 -29 -10 0 -20 6 -23 13 -6 17
-108 20 -128 4 -8 -6 -24 -27 -34 -44 -11 -18 -23 -33 -28 -33 -4 0 -5 -6 -1
-12 4 -7 4 -10 0 -6 -7 6 -36 -4 -116 -40 -19 -8 -49 -29 -67 -45 l-32 -30
-40 18 c-34 15 -49 16 -103 7 -35 -6 -70 -10 -78 -11 -8 0 -46 -7 -83 -15 -38
-7 -77 -12 -87 -9 -13 4 -25 -5 -41 -29 -20 -31 -27 -35 -65 -34 -27 0 -45 5
-49 14 -2 7 -9 11 -14 8 -5 -4 -22 -1 -38 6 -15 6 -37 12 -48 12 -11 1 -20 8
-20 16 0 8 -10 16 -22 18 -14 2 -20 8 -16 18 3 8 -1 14 -10 14 -32 0 -47 30
-47 91 0 33 -4 59 -10 59 -14 0 -13 33 1 47 7 7 8 19 4 30 -4 10 -9 24 -11 32
-6 32 -27 71 -38 71 -16 -1 -46 -25 -46 -39 0 -7 -9 -21 -20 -33 -11 -12 -20
-27 -20 -34 0 -6 -7 -14 -15 -18 -8 -3 -15 -12 -15 -19 0 -13 -24 -28 -63 -41
-9 -3 -20 -19 -23 -36 -6 -28 -8 -29 -52 -25 -105 11 -143 42 -122 99 7 17 17
41 23 53 15 33 1 40 -23 13 -27 -31 -35 -20 -15 20 19 36 11 55 -11 25 -8 -11
-20 -27 -27 -35 -45 -57 -91 -194 -106 -320 -15 -113 -14 -171 4 -253 20 -98
55 -166 113 -226 29 -29 65 -81 81 -116 31 -65 71 -104 166 -164 28 -17 43
-31 34 -31 -9 0 -28 -11 -43 -25 -15 -14 -34 -25 -42 -25 -8 0 -19 -11 -24
-25 -6 -17 -16 -25 -27 -23 -12 2 -17 -3 -15 -15 2 -10 -3 -17 -13 -17 -34 0
-12 -19 37 -30 l52 -13 -53 -16 c-42 -13 -50 -18 -40 -28 10 -10 9 -16 -7 -28
-10 -8 -14 -15 -6 -15 6 0 12 -5 12 -11 0 -6 -7 -9 -15 -5 -8 3 -15 1 -15 -4
0 -10 13 -14 42 -11 10 1 18 -2 18 -7 0 -6 17 -17 38 -25 28 -12 33 -17 20
-21 -51 -17 -51 -21 1 -24 60 -4 60 -3 66 28 18 94 87 208 176 292 21 21 39
41 39 47 0 9 30 25 42 23 5 -1 8 5 8 13 0 9 12 21 28 28 15 6 29 14 32 17 30
31 142 87 280 140 47 18 109 41 139 53 83 32 133 39 306 44 124 4 178 1 240
-12 159 -32 177 -35 240 -35 l63 0 41 79 c48 92 76 177 91 276 17 117 15 112
57 110 21 -1 50 -3 65 -4 23 -1 33 -12 63 -70 42 -79 163 -215 230 -258 56
-35 62 -49 23 -57 -37 -7 -83 -42 -68 -51 7 -4 -6 -18 -29 -33 -23 -15 -36
-29 -30 -33 6 -3 9 -14 7 -25 -2 -13 12 -27 52 -50 106 -62 115 -70 145 -117
18 -28 40 -50 54 -54 14 -3 55 -23 93 -45 37 -21 72 -38 78 -38 6 0 25 -13 43
-30 18 -16 35 -30 40 -30 4 0 7 -4 7 -10 0 -5 -7 -7 -17 -3 -12 5 -11 -1 7
-25 16 -22 21 -38 16 -56 -6 -25 -36 -37 -36 -15 0 8 -5 7 -16 -2 -14 -12 -14
-14 6 -21 30 -11 21 -29 -25 -45 -21 -7 -46 -20 -55 -28 -9 -8 -20 -12 -23 -8
-4 3 -7 1 -7 -5 0 -7 -10 -12 -21 -12 -12 0 -28 -8 -35 -17 -12 -16 -15 -16
-24 -3 -9 13 -11 13 -19 0 -6 -8 -13 -11 -17 -8 -3 4 2 15 11 25 11 11 14 18
6 21 -14 5 -15 32 0 32 5 0 8 4 5 9 -12 19 -16 114 -6 126 7 8 7 15 1 19 -5 4
-13 37 -17 74 l-8 67 -7 -70 c-11 -108 -31 -146 -116 -219 -77 -66 -130 -99
-146 -89 -15 9 0 86 20 100 42 29 57 53 33 53 -5 0 -10 -7 -10 -15 0 -18 -17
-20 -22 -3 -2 6 -23 -24 -47 -67 -57 -107 -107 -163 -227 -259 -78 -61 -121
-88 -181 -110 -43 -16 -96 -38 -118 -47 -22 -10 -62 -23 -90 -29 -27 -6 -63
-17 -80 -25 -16 -7 -57 -18 -90 -24 -33 -6 -89 -16 -125 -23 -116 -22 -293
-10 -629 43 -110 18 -132 25 -201 65 -43 25 -95 63 -115 85 -46 52 -58 43 -15
-11 17 -22 30 -46 27 -52 -2 -7 -11 1 -20 18 -15 30 -17 30 -60 20 -29 -6 -43
-15 -40 -22 3 -8 -8 -14 -29 -17 -20 -3 -18 -3 7 -1 22 1 52 5 68 7 15 3 25 1
22 -4 -3 -4 -28 -11 -56 -15 -27 -4 -52 -11 -55 -16 -3 -5 5 -7 18 -4 73 15
96 16 107 3 13 -16 5 -27 -21 -27 -11 0 -17 -4 -13 -9 3 -5 -24 -13 -60 -16
-54 -6 -63 -10 -54 -21 9 -11 7 -14 -11 -14 -20 0 -212 -36 -235 -44 -5 -2 34
-1 88 2 72 4 97 2 97 -7 0 -8 8 -10 22 -5 20 6 21 5 10 -9 -7 -9 -27 -19 -45
-23 -29 -6 -57 -25 -57 -39 0 -4 26 -4 57 0 68 7 65 -2 -9 -20 l-53 -14 65 6
c76 6 68 6 103 4 17 -1 27 -7 27 -16 0 -8 7 -15 16 -15 8 0 12 -4 9 -10 -3 -5
-19 -10 -35 -10 -22 0 -28 -4 -24 -15 6 -14 118 -15 972 -15 595 0 970 4 977
10 6 5 72 21 147 35 74 13 146 29 159 34 l24 10 -25 1 -25 1 24 12 c19 9 25 9
29 -1 2 -6 9 -12 15 -12 5 0 7 3 3 8 -4 4 9 12 30 18 21 6 40 16 42 23 3 10 0
10 -14 3 -11 -5 -55 -12 -99 -15 -70 -4 -84 8 -15 14 20 1 18 3 -10 8 -33 6
-30 8 45 25 100 23 112 27 56 22 -48 -5 -45 4 11 22 44 15 192 42 231 42 25 0
27 -2 13 -15 -8 -8 -22 -15 -30 -15 -9 0 -16 -4 -16 -10 0 -10 44 -5 94 11 16
5 43 8 60 8 27 -1 25 -3 -16 -13 -53 -12 -73 -25 -31 -19 15 2 1 -6 -32 -17
-33 -12 -89 -25 -124 -31 -72 -11 -123 -34 -56 -25 37 5 39 4 20 -10 -18 -13
-17 -14 15 -8 19 3 64 12 100 19 36 8 116 19 177 25 62 6 120 13 129 17 11 4
15 3 10 -5 -4 -7 10 -9 46 -6 48 4 51 3 34 -11 -10 -8 -23 -12 -27 -9 -5 3 -9
1 -9 -4 0 -6 -23 -13 -51 -17 -37 -5 -48 -10 -38 -17 9 -6 3 -7 -20 -3 -22 5
-31 4 -27 -3 4 -6 -2 -16 -11 -22 -14 -8 -11 -9 17 -5 31 6 180 24 205 26 6 0
32 -2 59 -5 35 -3 56 0 74 12 14 9 41 17 60 18 33 1 34 1 11 -12 -13 -7 -19
-13 -14 -14 6 0 20 7 32 15 18 13 22 13 33 0 7 -8 20 -15 29 -16 9 -1 -2 -5
-24 -11 -22 -5 -55 -6 -72 -3 -34 6 -73 -8 -73 -26 0 -9 36 -8 140 6 30 4 38
3 25 -3 -11 -5 -49 -12 -85 -16 -36 -4 -67 -11 -70 -15 -3 -5 -16 -12 -30 -16
-22 -7 -23 -6 -11 9 20 23 7 31 -21 12 -29 -21 -61 -22 -33 -2 18 13 18 14 -7
9 -15 -3 -35 -14 -44 -24 -18 -21 -6 -27 14 -7 8 8 12 8 12 1 0 -15 428 -17
446 -2 8 6 11 16 8 21 -4 6 3 5 15 -1 17 -10 21 -9 21 4 0 8 -6 15 -12 15 -8
0 -7 4 3 10 22 13 59 1 52 -16 -7 -20 4 -17 27 6 21 21 50 27 50 10 0 -6 -6
-10 -13 -8 -7 2 -13 -1 -14 -7 -2 -9 -29 -23 -49 -24 -6 -1 -16 9 -22 21 -10
21 -11 22 -11 3 -1 -43 9 -46 145 -43 91 2 128 6 127 15 -1 6 4 14 12 17 8 3
15 0 15 -6 0 -7 4 -7 13 0 7 6 35 14 62 17 28 4 52 8 55 10 3 2 11 -3 17 -11
14 -15 7 -21 -35 -34 -22 -7 -18 -8 25 -9 51 -1 79 13 49 25 -19 7 -22 28 -3
21 6 -2 40 4 75 13 34 10 62 16 62 14 0 -4 -60 -31 -88 -39 -19 -6 -20 -8 -8
-21 12 -12 62 -14 285 -14 164 1 271 5 271 10 0 6 3 9 8 9 4 -1 21 -1 37 0 27
2 28 3 9 11 -12 5 -38 5 -59 0 -21 -5 -44 -6 -53 -3 -10 4 -13 2 -8 -5 4 -8
-3 -8 -25 -2 -18 5 -36 7 -42 3 -5 -3 -8 0 -5 8 3 8 15 16 27 17 15 2 21 0 17
-7 -9 -14 -6 -14 33 0 35 12 43 30 9 21 -14 -3 -19 -2 -14 6 4 7 12 12 17 12
5 0 19 9 31 20 12 11 28 20 36 20 7 0 21 7 30 16 15 15 14 16 -6 10 -13 -5
-22 -3 -22 3 0 6 5 11 11 11 5 0 7 5 4 10 -4 6 -1 9 5 8 7 -2 17 5 23 15 10
14 9 20 -3 27 -12 8 -12 10 3 16 9 3 14 10 11 15 -3 5 -1 9 3 9 13 0 7 64 -7
68 -7 3 -4 9 7 18 17 13 16 14 -7 9 -14 -3 -32 -1 -40 4 -12 8 -12 13 4 30 19
21 19 21 -5 21 -17 0 -20 3 -10 9 11 7 11 9 0 14 -11 4 -11 6 -1 6 7 1 10 6 7
11 -3 6 2 10 11 10 14 0 15 3 6 12 -9 9 -15 9 -23 1 -9 -9 -16 -8 -27 4 -9 9
-27 13 -43 11 -15 -3 -26 -1 -23 4 3 4 -3 8 -13 8 -16 1 -16 2 2 12 19 12 18
13 -10 18 -28 5 -25 7 40 33 68 26 65 27 -33 10 -39 -6 -150 6 -135 15 5 4 12
14 15 23 4 9 32 31 63 49 273 156 379 408 340 805 -18 184 -30 234 -76 330
-38 81 -123 190 -140 180 -5 -4 -6 2 -2 11 5 14 3 16 -11 11 -10 -4 -15 -3
-11 3 12 19 -186 142 -203 126 -3 -3 0 -6 6 -6 16 0 52 -60 52 -87 0 -19 19
-46 92 -132 26 -31 78 -128 78 -147 0 -16 -26 -19 -35 -4 -4 6 -11 8 -16 5 -5
-4 -9 -1 -9 4 0 6 -4 11 -9 11 -5 0 -7 -10 -4 -21 5 -18 3 -20 -16 -14 -16 5
-22 3 -20 -7 4 -29 -2 -38 -23 -38 -13 0 -32 -7 -42 -15 -22 -17 -91 -21 -81
-5 3 5 -6 12 -21 16 -17 4 -29 2 -34 -6 -5 -7 -13 -9 -21 -5 -9 6 -8 2 2 -11
18 -21 18 -86 0 -92 -6 -2 -11 -11 -11 -20 0 -8 -3 -12 -7 -9 -3 4 -12 2 -19
-4 -9 -7 -19 -7 -33 0 -33 18 -75 12 -142 -20 -35 -17 -71 -35 -79 -41 -8 -5
-27 -14 -42 -21 -16 -6 -28 -14 -28 -18 0 -13 -108 -79 -129 -79 -11 0 -26 9
-34 20 -8 11 -17 17 -21 13 -4 -4 -11 -2 -15 5 -8 13 -28 19 -61 21 -8 1 -32
17 -53 36 -21 19 -42 35 -46 35 -5 0 -23 14 -41 30 -18 17 -38 30 -44 30 -7 0
-20 15 -28 34 -14 28 -27 37 -80 55 -89 31 -228 36 -228 9 0 -20 -70 -94 -90
-95 -11 -1 -41 -23 -67 -48 -50 -51 -114 -95 -137 -95 -7 0 -16 9 -19 20 -3
12 -14 20 -26 20 -29 0 -64 72 -65 132 -1 29 -6 48 -13 48 -13 0 -6 35 14 67
14 22 10 63 -6 63 -5 0 -14 -7 -21 -15 -14 -17 -35 -21 -25 -5 11 18 -14 11
-35 -10 -11 -11 -24 -20 -29 -20 -5 0 -12 -6 -14 -12 -4 -9 -6 -10 -6 -1 -1 6
26 52 59 101 77 115 196 230 370 355 25 17 25 17 -6 3 -17 -9 -34 -12 -38 -9
-3 4 -6 2 -6 -4 0 -21 -113 2 -182 38 -10 5 -26 9 -36 9 -26 0 -142 40 -142
49 0 10 -96 57 -131 65 -15 3 -29 14 -32 23 -18 54 -93 157 -108 148 -4 -3
-10 4 -14 15 -3 11 -12 20 -18 20 -7 0 -50 -39 -97 -86 -81 -82 -87 -86 -121
-81 -46 6 -86 40 -93 80 -3 18 -6 65 -7 105 -1 39 -3 72 -4 72 -1 0 -5 -3 -8
-7z m-60 -145 c-3 -8 -6 -5 -6 6 -1 11 2 17 5 13 3 -3 4 -12 1 -19z m-2157
-929 c0 -6 -4 -7 -10 -4 -5 3 -10 11 -10 16 0 6 5 7 10 4 6 -3 10 -11 10 -16z
m-13 -24 c19 -30 20 -35 6 -47 -14 -11 -15 -10 -9 10 4 12 3 22 -2 22 -5 0
-14 11 -20 25 -17 36 -1 30 25 -10z m2790 -52 c-2 -16 -4 -5 -4 22 0 28 2 40
4 28 2 -13 2 -35 0 -50z m0 -85 c-3 -7 -5 -2 -5 12 0 14 2 19 5 13 2 -7 2 -19
0 -25z m53 -373 c0 -12 -19 -12 -23 0 -4 9 -1 12 9 8 7 -3 14 -7 14 -8z m47
-81 c-3 -3 -12 -4 -19 -1 -8 3 -5 6 6 6 11 1 17 -2 13 -5z m57 -23 c3 -5 -1
-11 -9 -15 -8 -3 -15 -11 -15 -17 0 -8 5 -7 16 2 14 11 21 8 56 -30 22 -23 37
-45 33 -49 -3 -3 -10 0 -14 7 -6 9 -11 10 -15 2 -4 -6 -18 -8 -32 -5 -15 4
-24 2 -24 -5 0 -7 -9 -9 -25 -5 -17 4 -25 2 -25 -7 0 -7 -3 -10 -6 -7 -3 3 0
26 7 49 6 24 12 51 12 59 0 24 30 39 41 21z m1926 -455 c0 -3 -4 -8 -10 -11
-5 -3 -10 -1 -10 4 0 6 5 11 10 11 6 0 10 -2 10 -4z m-4517 -173 c-7 -2 -19
-2 -25 0 -7 3 -2 5 12 5 14 0 19 -2 13 -5z m-50 -10 c-7 -2 -19 -2 -25 0 -7 3
-2 5 12 5 14 0 19 -2 13 -5z m4537 -68 c-7 -8 -17 -15 -23 -15 -6 0 -2 7 9 15
25 19 30 19 14 0z m-4234 -53 c2 -9 -2 -20 -9 -24 -15 -10 -19 -10 -37 2 -13
9 -11 13 10 29 27 21 33 20 36 -7z m1821 22 c-3 -3 -12 -4 -19 -1 -8 3 -5 6 6
6 11 1 17 -2 13 -5z m1221 -16 c-8 -12 -21 -24 -28 -26 -8 -3 -6 5 6 21 23 32
42 36 22 5z m1232 12 c0 -11 -33 -30 -52 -29 -7 0 -3 5 10 11 12 6 22 15 22
20 0 4 5 8 10 8 6 0 10 -4 10 -10z m-960 -24 c0 -2 -7 -7 -16 -10 -8 -3 -12
-2 -9 4 6 10 25 14 25 6z m770 -6 c0 -5 -2 -10 -4 -10 -3 0 -8 5 -11 10 -3 6
-1 10 4 10 6 0 11 -4 11 -10z m65 0 c-3 -5 -12 -10 -18 -10 -7 0 -6 4 3 10 19
12 23 12 15 0z m-1039 -25 c-13 -14 -30 -25 -37 -24 -10 0 -10 2 -2 5 7 3 9
12 6 20 -3 10 0 12 10 8 8 -3 18 -1 22 5 3 6 10 11 15 11 5 0 -1 -11 -14 -25z
m-3176 5 c0 -5 -2 -10 -4 -10 -3 0 -8 5 -11 10 -3 6 -1 10 4 10 6 0 11 -4 11
-10z m4270 5 c0 -7 -70 -35 -84 -34 -6 0 7 9 29 19 42 20 55 23 55 15z m-1150
-11 c0 -11 -29 -34 -44 -34 -23 0 -19 15 7 28 26 12 37 14 37 6z m110 -1 c-8
-3 -26 -14 -39 -24 -13 -11 -31 -19 -40 -19 -13 1 -12 3 4 12 11 6 22 14 25
18 7 9 32 18 50 18 13 0 13 0 0 -5z m600 0 c-8 -3 -23 -10 -32 -15 -11 -5 -18
-5 -18 1 0 10 23 18 50 19 13 0 13 0 0 -5z m-1950 -7 c0 -6 -132 -28 -137 -22
-2 2 19 9 49 14 62 11 88 14 88 8z m-2030 -15 c0 -11 -31 -24 -39 -16 -3 3 1
10 9 15 19 12 30 12 30 1z m4187 -7 c-3 -3 -12 -4 -19 -1 -8 3 -5 6 6 6 11 1
17 -2 13 -5z"/>
<path d="M3525 810 c-3 -5 -1 -10 4 -10 6 0 11 5 11 10 0 6 -2 10 -4 10 -3 0
-8 -4 -11 -10z"/>
<path d="M1205 2470 c3 -5 14 -10 23 -10 15 0 15 2 2 10 -20 13 -33 13 -25 0z"/>
<path d="M644 2278 l-19 -23 23 19 c21 18 27 26 19 26 -2 0 -12 -10 -23 -22z"/>
<path d="M670 2229 c0 -5 5 -7 10 -4 6 3 10 8 10 11 0 2 -4 4 -10 4 -5 0 -10
-5 -10 -11z"/>
<path d="M4445 2210 c3 -5 8 -10 11 -10 2 0 4 5 4 10 0 6 -5 10 -11 10 -5 0
-7 -4 -4 -10z"/>
<path d="M4381 2162 c-17 -18 -19 -23 -6 -19 9 4 23 7 31 7 8 0 14 9 14 20 0
26 -9 24 -39 -8z"/>
<path d="M4547 2153 c4 -10 8 -12 10 -6 3 7 11 9 20 6 11 -4 14 -2 9 5 -4 7
-16 12 -26 12 -14 0 -18 -5 -13 -17z"/>
<path d="M4297 2143 c-4 -3 -7 -17 -7 -29 0 -13 -4 -26 -10 -29 -5 -3 -10 -12
-10 -18 0 -7 9 -1 20 13 11 14 20 19 20 12 0 -7 5 -10 11 -6 7 4 10 1 7 -7 -3
-8 -11 -14 -19 -15 -26 -1 -50 -17 -45 -30 3 -8 0 -11 -10 -7 -7 3 -14 14 -14
24 0 10 -5 19 -11 19 -6 0 -18 7 -27 16 -12 13 -17 14 -20 4 -3 -8 6 -22 19
-33 19 -17 20 -19 4 -12 -30 13 -115 18 -115 8 0 -5 19 -13 43 -19 30 -6 41
-14 39 -25 -2 -13 7 -17 45 -17 27 -1 82 -11 123 -22 91 -24 112 -24 200 -4
l69 15 -17 27 c-9 15 -20 30 -25 33 -4 3 -1 12 8 19 8 7 15 17 15 23 0 6 -8 4
-17 -6 -16 -15 -18 -14 -35 14 -23 38 -66 59 -78 39 -5 -9 -4 -20 3 -30 8 -10
5 -9 -9 3 -24 20 -93 23 -114 5 -12 -11 -12 -10 -1 4 7 9 10 22 6 28 -7 11
-38 14 -48 3z m48 -153 c3 -5 2 -10 -4 -10 -5 0 -13 5 -16 10 -3 6 -2 10 4 10
5 0 13 -4 16 -10z"/>
<path d="M4612 2106 c-23 -31 -29 -63 -18 -84 l11 -22 14 23 c22 34 31 94 14
94 -7 0 -17 -5 -21 -11z"/>
<path d="M4677 2086 c-19 -29 -14 -35 10 -11 8 8 13 20 11 26 -2 7 -12 0 -21
-15z"/>
<path d="M3937 1970 c-52 -32 -57 -39 -28 -37 11 0 18 4 16 8 -3 3 17 18 43
32 26 15 40 27 31 27 -8 0 -36 -13 -62 -30z"/>
<path d="M2430 1330 c0 -5 16 -12 35 -16 19 -3 38 -10 41 -15 3 -5 17 -9 31
-9 15 0 35 -7 45 -17 10 -9 21 -14 24 -10 10 10 -42 37 -110 57 -36 10 -66 15
-66 10z"/>
<path d="M1783 1283 c-7 -2 -13 -12 -13 -20 0 -11 -7 -14 -24 -9 -14 3 -28 1
-31 -4 -4 -6 -20 -9 -36 -6 -18 3 -37 -2 -49 -12 -20 -17 -20 -17 10 -37 23
-15 30 -26 27 -42 -5 -26 17 -32 30 -9 4 7 28 16 53 18 25 3 54 9 64 14 17 6
18 4 12 -21 -6 -25 -5 -27 8 -16 13 11 13 18 -1 64 -14 48 -31 88 -36 86 -1 0
-8 -3 -14 -6z m-78 -93 c3 -5 -1 -10 -10 -10 -9 0 -13 5 -10 10 3 6 8 10 10
10 2 0 7 -4 10 -10z"/>
<path d="M2110 1259 c0 -12 -8 -23 -20 -26 -25 -7 -25 -15 1 -31 15 -10 24
-10 34 -2 10 8 19 8 34 1 20 -11 82 -8 103 5 6 4 27 7 47 6 35 -1 36 -1 12 12
-14 8 -31 12 -38 9 -7 -3 -19 -1 -26 4 -6 5 -28 10 -47 12 -19 1 -48 9 -64 17
-37 18 -36 18 -36 -7z"/>
<path d="M2060 1249 c0 -5 5 -7 10 -4 6 3 10 8 10 11 0 2 -4 4 -10 4 -5 0 -10
-5 -10 -11z"/>
<path d="M2037 1199 c-4 -16 -3 -18 9 -8 7 6 11 15 8 20 -8 13 -11 11 -17 -12z"/>
<path d="M1578 1185 c3 -18 -3 -36 -16 -55 l-22 -29 28 4 c25 2 27 5 24 46 -2
24 -7 48 -11 52 -5 5 -6 -3 -3 -18z"/>
<path d="M2420 1200 c0 -5 5 -10 10 -10 6 0 10 5 10 10 0 6 -4 10 -10 10 -5 0
-10 -4 -10 -10z"/>
<path d="M1533 1153 c-21 -32 -21 -33 -2 -23 21 12 33 33 27 48 -1 5 -13 -6
-25 -25z"/>
<path d="M1416 1131 c-16 -11 -35 -17 -42 -14 -7 3 -23 -2 -34 -10 -20 -14
-21 -15 -3 -21 35 -10 159 -16 143 -6 -13 8 -12 11 5 24 19 15 19 15 -12 16
-25 0 -31 4 -27 15 8 19 5 19 -30 -4z"/>
<path d="M1800 1089 c0 -5 5 -7 10 -4 6 3 10 8 10 11 0 2 -4 4 -10 4 -5 0 -10
-5 -10 -11z"/>
<path d="M2280 1050 c20 -13 43 -13 35 0 -3 6 -16 10 -28 10 -18 0 -19 -2 -7
-10z"/>
<path d="M2375 1050 c-8 -13 15 -13 35 0 12 8 11 10 -7 10 -12 0 -25 -4 -28
-10z"/>
<path d="M2670 1010 c0 -9 39 -25 46 -18 2 3 -7 10 -21 16 -14 6 -25 7 -25 2z"/>
<path d="M2415 1000 c4 -6 11 -8 16 -5 14 9 11 15 -7 15 -8 0 -12 -5 -9 -10z"/>
<path d="M2947 990 c10 -11 21 -20 26 -20 4 0 3 9 -3 20 -6 11 -17 20 -25 20
-12 0 -12 -4 2 -20z"/>
<path d="M2565 980 c-3 -5 1 -10 10 -10 9 0 13 5 10 10 -3 6 -8 10 -10 10 -2
0 -7 -4 -10 -10z"/>
<path d="M3180 951 c0 -12 23 -31 37 -31 21 0 15 14 -12 27 -14 6 -25 8 -25 4z"/>
<path d="M1213 935 c-8 -21 1 -28 27 -20 17 5 19 10 9 21 -15 18 -28 18 -36
-1z"/>
<path d="M2175 940 c-3 -5 3 -10 14 -10 12 0 21 5 21 10 0 6 -6 10 -14 10 -8
0 -18 -4 -21 -10z"/>
<path d="M1305 900 c3 -5 14 -10 23 -10 15 0 15 2 2 10 -20 13 -33 13 -25 0z"/>
<path d="M1381 901 c-15 -10 -8 -41 10 -41 6 0 9 7 5 15 -4 10 1 15 14 15 11
0 20 5 20 10 0 12 -30 13 -49 1z"/>
<path d="M1522 888 c-20 -20 -14 -25 36 -27 26 -1 56 -4 67 -8 32 -10 1 22
-36 38 -25 10 -32 10 -39 -1 -5 -9 -9 -9 -11 -1 -3 9 -8 8 -17 -1z"/>
<path d="M1460 879 c0 -6 -7 -9 -15 -6 -8 4 -17 2 -20 -3 -4 -6 10 -10 31 -10
31 0 35 2 24 15 -15 18 -20 19 -20 4z"/>
<path d="M3305 880 c-3 -5 -1 -10 4 -10 6 0 11 5 11 10 0 6 -2 10 -4 10 -3 0
-8 -4 -11 -10z"/>
<path d="M1300 855 c-7 -8 -9 -15 -4 -15 5 0 3 -4 -5 -9 -11 -7 -6 -12 20 -19
19 -5 36 -7 39 -5 8 7 -24 22 -33 16 -6 -4 -7 5 -3 21 7 30 4 33 -14 11z"/>
<path d="M2640 810 c-12 -8 -11 -10 7 -10 12 0 25 5 28 10 8 13 -15 13 -35 0z"/>
<path d="M2289 784 c-35 -26 -44 -27 -146 -10 -13 3 -25 0 -28 -4 -7 -11 97
-24 128 -17 71 17 143 40 152 48 5 5 -6 9 -31 9 -28 0 -51 -8 -75 -26z"/>
<path d="M2582 780 c-7 -11 -8 -20 -3 -20 9 0 24 30 18 36 -1 2 -8 -6 -15 -16z"/>
<path d="M1961 767 c-14 -6 -26 -17 -28 -24 -5 -15 62 -44 90 -39 12 3 24 5
26 5 7 1 -33 30 -42 31 -5 0 -5 -4 -2 -10 10 -16 -31 -12 -45 5 -10 12 -8 16
14 25 14 5 26 12 26 15 0 8 -13 6 -39 -8z"/>
<path d="M1010 757 c0 -22 41 -57 86 -73 61 -21 64 -16 7 12 -29 14 -62 37
-73 51 -13 17 -20 21 -20 10z"/>
<path d="M2642 763 c3 -17 -15 -45 -22 -34 -4 7 -14 3 -29 -13 l-22 -24 44 2
c24 0 44 6 44 11 0 6 4 22 8 38 6 21 4 27 -9 27 -9 0 -15 -3 -14 -7z"/>
<path d="M1083 736 c-9 -10 -4 -17 23 -30 19 -9 45 -16 57 -16 18 0 19 -2 7
-10 -9 -6 -10 -10 -3 -10 21 0 22 16 3 33 -11 9 -27 14 -35 10 -11 -4 -18 1
-22 16 -6 24 -13 26 -30 7z"/>
<path d="M1880 720 c0 -11 2 -20 4 -20 2 0 6 9 9 20 3 11 1 20 -4 20 -5 0 -9
-9 -9 -20z"/>
<path d="M1490 719 c0 -5 5 -7 10 -4 6 3 10 8 10 11 0 2 -4 4 -10 4 -5 0 -10
-5 -10 -11z"/>
<path d="M2210 720 c0 -5 7 -7 15 -4 8 4 15 8 15 10 0 2 -7 4 -15 4 -8 0 -15
-4 -15 -10z"/>
<path d="M1698 694 c-16 -8 -28 -17 -28 -19 0 -10 16 -4 40 15 30 23 25 25
-12 4z"/>
<path d="M790 679 c-14 -26 -13 -27 31 -22 30 4 36 8 32 24 -7 26 -49 25 -63
-2z"/>
<path d="M2630 670 c0 -5 5 -10 10 -10 6 0 10 5 10 10 0 6 -4 10 -10 10 -5 0
-10 -4 -10 -10z"/>
<path d="M1086 657 c7 -20 34 -37 60 -37 14 0 14 3 4 15 -7 9 -20 13 -28 10
-8 -3 -21 3 -28 12 -13 17 -14 17 -8 0z"/>
<path d="M2520 660 c0 -5 5 -10 11 -10 5 0 7 5 4 10 -3 6 -8 10 -11 10 -2 0
-4 -4 -4 -10z"/>
<path d="M2606 656 c3 -9 11 -16 16 -16 13 0 5 23 -10 28 -7 2 -10 -2 -6 -12z"/>
<path d="M1038 653 c7 -3 16 -2 19 1 4 3 -2 6 -13 5 -11 0 -14 -3 -6 -6z"/>
<path d="M1870 641 c0 -23 67 -28 96 -6 19 14 19 14 -1 15 -12 0 -26 -5 -31
-10 -7 -7 -19 -8 -37 -1 -15 6 -27 7 -27 2z"/>
<path d="M2560 643 c0 -5 11 -13 25 -20 29 -13 33 -6 8 13 -20 15 -33 18 -33
7z"/>
<path d="M1938 593 c7 -3 16 -2 19 1 4 3 -2 6 -13 5 -11 0 -14 -3 -6 -6z"/>
<path d="M1274 548 l-19 -21 30 18 c41 26 40 25 23 25 -8 0 -23 -10 -34 -22z"/>
<path d="M2260 552 c0 -14 11 -21 26 -15 21 8 17 23 -6 23 -11 0 -20 -4 -20
-8z"/>
<path d="M2354 511 c17 -18 17 -20 -1 -30 -10 -6 -13 -11 -6 -11 6 0 15 5 18
10 3 6 21 10 38 11 l32 1 -32 9 c-18 5 -35 14 -38 19 -3 6 -11 10 -17 10 -6 0
-3 -9 6 -19z"/>
<path d="M1675 510 c3 -5 13 -10 21 -10 8 0 12 5 9 10 -3 6 -13 10 -21 10 -8
0 -12 -4 -9 -10z"/>
<path d="M1720 509 c0 -5 5 -7 10 -4 6 3 10 8 10 11 0 2 -4 4 -10 4 -5 0 -10
-5 -10 -11z"/>
<path d="M861 495 c-19 -7 -29 -15 -23 -19 6 -4 8 -14 5 -23 -4 -11 -3 -14 5
-9 7 4 12 14 12 23 0 10 6 13 16 9 9 -3 21 -6 27 -6 6 0 2 -7 -9 -15 -19 -14
-8 -20 19 -9 12 4 13 11 4 35 -6 16 -14 28 -17 28 -3 -1 -20 -7 -39 -14z"/>
<path d="M5435 490 c-7 -12 2 -12 30 0 19 8 19 9 -2 9 -12 1 -25 -3 -28 -9z"/>
<path d="M2026 481 c-4 -7 -5 -15 -2 -18 9 -9 19 4 14 18 -4 11 -6 11 -12 0z"/>
<path d="M1815 460 c-3 -5 -1 -10 4 -10 6 0 11 5 11 10 0 6 -2 10 -4 10 -3 0
-8 -4 -11 -10z"/>
<path d="M766 448 c7 -11 32 -10 39 2 3 6 -4 9 -19 8 -13 -1 -22 -6 -20 -10z"/>
<path d="M2170 427 c0 -30 20 -29 20 1 1 16 2 16 13 0 15 -19 47 -7 47 18 0
11 -10 14 -40 12 -36 -3 -40 -5 -40 -31z"/>
<path d="M5600 445 c-19 -7 -28 -14 -20 -14 8 0 29 6 45 14 39 17 21 18 -25 0z"/>
<path d="M1475 430 c-3 -5 -2 -10 4 -10 5 0 13 5 16 10 3 6 2 10 -4 10 -5 0
-13 -4 -16 -10z"/>
<path d="M900 420 c-26 -8 -24 -12 12 -13 12 -1 23 4 26 11 4 13 -1 14 -38 2z"/>
<path d="M1376 421 c-18 -7 -18 -8 -2 -14 26 -10 33 -9 40 8 6 16 -7 18 -38 6z"/>
<path d="M1445 400 c-3 -5 -2 -10 4 -10 5 0 13 5 16 10 3 6 2 10 -4 10 -5 0
-13 -4 -16 -10z"/>
<path d="M714 381 c5 -8 56 -3 56 5 0 2 -14 4 -31 4 -16 0 -28 -4 -25 -9z"/>
<path d="M1788 365 c-3 -14 -1 -28 3 -31 5 -3 9 9 9 25 0 38 -6 40 -12 6z"/>
<path d="M1519 358 l-12 -23 22 20 c22 19 24 19 36 2 16 -22 34 -22 31 1 -2
11 -13 18 -34 20 -24 2 -33 -2 -43 -20z"/>
<path d="M1620 359 c0 -12 47 -22 66 -15 9 4 14 10 10 13 -10 10 -76 11 -76 2z"/>
<path d="M2055 359 c-11 -17 1 -21 15 -4 8 9 8 15 2 15 -6 0 -14 -5 -17 -11z"/>
<path d="M1460 349 c0 -11 27 -12 34 -1 2 4 -4 9 -15 9 -10 1 -19 -2 -19 -8z"/>
<path d="M1685 330 c-3 -5 1 -10 10 -10 9 0 13 5 10 10 -3 6 -8 10 -10 10 -2
0 -7 -4 -10 -10z"/>
<path d="M1720 330 c0 -5 7 -10 16 -10 8 0 12 5 9 10 -3 6 -10 10 -16 10 -5 0
-9 -4 -9 -10z"/>
<path d="M650 290 c0 -5 4 -10 9 -10 6 0 13 5 16 10 3 6 -1 10 -9 10 -9 0 -16
-4 -16 -10z"/>
<path d="M3325 222 c-12 -12 -4 -20 15 -15 11 3 20 9 20 12 0 9 -27 10 -35 3z"/>
<path d="M5518 203 c7 -3 16 -2 19 1 4 3 -2 6 -13 5 -11 0 -14 -3 -6 -6z"/>
<path d="M5506 175 c-11 -8 -16 -18 -12 -22 3 -4 16 3 29 15 24 25 12 29 -17
7z"/>
<path d="M530 171 l25 -8 -25 -5 c-19 -4 -17 -6 13 -7 41 -1 50 13 15 23 -33
8 -58 5 -28 -3z"/>
<path d="M5518 148 c-21 -11 -38 -24 -38 -28 0 -12 50 7 80 30 33 26 7 25 -42
-2z"/>
<path d="M3693 143 c9 -2 23 -2 30 0 6 3 -1 5 -18 5 -16 0 -22 -2 -12 -5z"/>
<path d="M5525 100 c-3 -6 1 -7 9 -4 18 7 21 14 7 14 -6 0 -13 -4 -16 -10z"/>
<path d="M3178 93 c7 -3 16 -2 19 1 4 3 -2 6 -13 5 -11 0 -14 -3 -6 -6z"/>
<path d="M3598 93 c7 -3 16 -2 19 1 4 3 -2 6 -13 5 -11 0 -14 -3 -6 -6z"/>
<path d="M5588 93 c7 -3 16 -2 19 1 4 3 -2 6 -13 5 -11 0 -14 -3 -6 -6z"/>
<path d="M3525 80 l-20 -9 20 0 c11 0 29 4 40 9 l20 9 -20 0 c-11 0 -29 -4
-40 -9z"/>
<path d="M5505 50 c-16 -7 -17 -9 -3 -9 9 -1 20 4 23 9 7 11 7 11 -20 0z"/>
<path d="M3428 43 c6 -2 18 -2 25 0 6 3 1 5 -13 5 -14 0 -19 -2 -12 -5z"/>
</g>
</svg>
