<?xml version="1.0" encoding="iso-8859-1"?>
<!-- Generator: Adobe Illustrator 19.0.0, SVG Export Plug-In . SVG Version: 6.00 Build 0)  -->
<svg version="1.1" id="Layer_1" xmlns="http://www.w3.org/2000/svg" xmlns:xlink="http://www.w3.org/1999/xlink" x="0px" y="0px"
	 viewBox="0 0 346 346" style="enable-background:new 0 0 346 346;" xml:space="preserve">
<g>
	<g>
		<path d="M282.514,75.969h-46.586v-3.281c0-22.708-18.475-41.183-41.183-41.183h-43.49c-22.708,0-41.183,18.475-41.183,41.183
			v3.281H63.486C28.479,75.969,0,104.449,0,139.456v31.77c0,9.749,3.568,18.674,9.457,25.559v87.265
			c0,16.788,13.658,30.445,30.445,30.445h266.195c16.787,0,30.445-13.658,30.445-30.445v-87.265
			c5.889-6.885,9.457-15.811,9.457-25.559v-31.77H346C346,104.449,317.521,75.969,282.514,75.969z M151.255,49.505h43.49
			c12.783,0,23.183,10.4,23.183,23.183v3.281h-89.855v-3.281h-0.001C128.072,59.906,138.471,49.505,151.255,49.505z M318.541,284.05
			c0.002,6.862-5.581,12.445-12.443,12.445H39.902c-6.862,0-12.445-5.583-12.445-12.445v-75.292
			c3.764,1.199,7.77,1.851,11.926,1.851h30.663v2.089c0,12.971,10.553,23.523,23.523,23.523h8.954
			c12.971,0,23.522-10.552,23.522-23.523v-2.089h93.908v2.089c0,12.971,10.552,23.523,23.522,23.523h8.954
			c12.971,0,23.523-10.552,23.523-23.523v-2.089h30.663c4.156,0,8.162-0.652,11.926-1.851V284.05z M108.045,192.608H88.046v-2.865
			c0-3.045,2.478-5.523,5.523-5.523h8.954c3.045,0,5.522,2.478,5.522,5.523V192.608z M108.046,210.608v2.089
			c0,3.045-2.478,5.523-5.522,5.523H93.57c-3.046,0-5.523-2.478-5.523-5.523v-2.089H108.046z M257.953,192.608h-19.999v-2.865
			c0-3.045,2.478-5.523,5.522-5.523h8.954c3.046,0,5.523,2.478,5.523,5.523V192.608z M257.954,210.608v2.089
			c0,3.045-2.478,5.523-5.523,5.523h-8.954c-3.045,0-5.522-2.478-5.522-5.523v-2.089H257.954z M328,171.225
			c0,11.791-9.593,21.383-21.383,21.383h-30.663v-2.865c0-12.971-10.553-23.523-23.523-23.523h-8.954
			c-12.971,0-23.522,10.552-23.522,23.523v2.865h-93.908v-2.865c0-12.971-10.552-23.523-23.522-23.523h-8.954
			c-12.971,0-23.523,10.552-23.523,23.523v2.865H39.383c-11.79,0-21.383-9.592-21.383-21.383v-31.77
			c0-25.081,20.405-45.486,45.486-45.486h219.028c25.081,0,45.486,20.405,45.486,45.486V171.225z"/>
	</g>
</g>
<g>
</g>
<g>
</g>
<g>
</g>
<g>
</g>
<g>
</g>
<g>
</g>
<g>
</g>
<g>
</g>
<g>
</g>
<g>
</g>
<g>
</g>
<g>
</g>
<g>
</g>
<g>
</g>
<g>
</g>
</svg>
