<?xml version="1.0" standalone="no"?>
<!DOCTYPE svg PUBLIC "-//W3C//DTD SVG 20010904//EN"
 "http://www.w3.org/TR/2001/REC-SVG-20010904/DTD/svg10.dtd">
<svg version="1.0" xmlns="http://www.w3.org/2000/svg"
 width="1280.000000pt" height="828.000000pt" viewBox="0 0 1280.000000 828.000000"
 preserveAspectRatio="xMidYMid meet">
<metadata>
Created by potrace 1.15, written by Peter Selinger 2001-2017
</metadata>
<g transform="translate(0.000000,828.000000) scale(0.100000,-0.100000)"
fill="#000000" stroke="none">
<path d="M6200 8074 c-386 -35 -538 -69 -725 -159 -140 -68 -215 -118 -311
-208 -252 -236 -378 -514 -385 -849 l-1 -75 -783 -7 c-431 -4 -823 -4 -872 0
-75 6 -90 10 -106 31 -10 13 -29 23 -43 23 -24 0 -32 14 -14 25 18 11 11 53
-12 69 -18 13 -53 16 -178 16 -85 0 -161 -4 -168 -9 -7 -4 -14 -23 -15 -42 -3
-48 -13 -59 -53 -59 -41 0 -71 -14 -95 -44 -17 -21 -25 -21 -536 -28 -285 -4
-696 -4 -913 -1 -218 3 -412 3 -433 -1 -30 -6 -49 -22 -109 -94 -97 -115 -124
-152 -133 -182 -4 -14 -28 -68 -53 -120 -41 -85 -46 -104 -54 -199 -5 -57 -7
-181 -5 -275 11 -499 17 -1090 22 -2076 3 -602 10 -1417 15 -1810 9 -714 10
-1052 3 -1505 -4 -277 3 -316 62 -341 40 -16 -685 -15 6037 -12 3074 2 5588 0
5588 -4 0 -12 470 -9 511 2 73 20 74 24 77 286 2 129 -1 271 -5 316 -9 81 -7
218 16 1563 6 363 16 1260 21 1994 6 878 13 1338 20 1345 6 6 10 107 10 270
l0 261 -29 60 c-16 33 -44 80 -62 104 -38 49 -66 94 -100 161 -23 45 -145 173
-215 226 -35 27 -41 28 -202 35 -92 4 -225 3 -297 -1 -147 -10 -595 -11 -1077
-1 -314 6 -327 7 -350 27 -13 12 -40 27 -60 34 -21 6 -38 15 -38 20 0 5 -14
31 -31 58 -36 59 -34 58 -234 68 -123 6 -142 5 -154 -10 -8 -10 -11 -26 -6
-43 14 -59 11 -77 -15 -83 -14 -3 -29 -15 -34 -26 -8 -18 -22 -22 -90 -28
-107 -8 -1079 -8 -1329 1 -184 6 -195 7 -186 24 11 22 -13 220 -42 334 -82
324 -301 595 -609 754 -185 96 -368 146 -615 170 -111 11 -534 21 -605 15z
m-290 -420 c327 -67 670 -68 1005 -4 88 17 192 35 230 40 219 28 455 -101 549
-300 29 -62 31 -73 34 -212 l4 -147 -74 6 c-91 7 -101 -2 -99 -85 0 -31 -2
-83 -5 -114 l-6 -58 -1129 0 -1129 0 0 108 c0 140 -3 145 -98 140 l-72 -3 0
121 c0 184 37 280 147 385 121 115 282 176 428 161 28 -2 124 -20 215 -38z"/>
</g>
</svg>
