<?xml version="1.0" encoding="iso-8859-1"?>
<!-- Generator: Adobe Illustrator 19.0.0, SVG Export Plug-In . SVG Version: 6.00 Build 0)  -->
<svg version="1.1" id="Layer_1" xmlns="http://www.w3.org/2000/svg" xmlns:xlink="http://www.w3.org/1999/xlink" x="0px" y="0px"
	 viewBox="0 0 479.6 479.6" style="enable-background:new 0 0 479.6 479.6;" xml:space="preserve">
<g>
	<path d="M431.9,192.1C431.9,86.2,345.7,0,239.8,0S47.7,86.3,47.7,193.2v96.5c0,10.4,8.3,19.7,19.7,19.7h41.5v10.4
		c0,10.4,8.3,19.7,19.7,19.7s19.7-9.3,19.7-19.7v-67.5c0-10.4-8.3-19.7-19.7-19.7c-10.4,0-19.7,8.3-19.7,19.7v17.6H87.1v-76.8
		c0-84.1,68.5-152.6,152.6-152.6S392.3,109,392.3,193.1v76.8h-21.8v-17.6c0-10.4-8.3-19.7-19.7-19.7c-10.4,0-19.7,8.3-19.7,19.7
		v67.5c0,10.4,8.3,19.7,19.7,19.7c11.4,0,19.7-9.3,19.7-19.7v-10.4h13.6l-25,78.9c-8.3,26-21.8,51.9-95.5,51.9
		c-10.4,0-19.7,8.3-19.7,19.7c0,10.4,8.3,19.7,19.7,19.7c76.8,0,117.3-23.9,133.9-79.9c0,0,34.3-100.9,34.3-111.1v-96.5L431.9,192.1
		L431.9,192.1z"/>
</g>
<g>
</g>
<g>
</g>
<g>
</g>
<g>
</g>
<g>
</g>
<g>
</g>
<g>
</g>
<g>
</g>
<g>
</g>
<g>
</g>
<g>
</g>
<g>
</g>
<g>
</g>
<g>
</g>
<g>
</g>
</svg>
