<svg width="50" height="50" viewBox="0 0 50 50" fill="none" xmlns="http://www.w3.org/2000/svg">
<path d="M17.7227 10C10.5607 10 10 10.5607 10 17.7227V32.2773C10 39.4393 10.5607 40 17.7227 40H32.2773C39.4393 40 40 39.4393 40 32.2773V17.7695C40 10.5635 39.4365 10 32.2305 10H17.7227ZM17 11H33C38.565 11 39 11.435 39 17V33C39 38.565 38.565 39 33 39H17C11.435 39 11 38.565 11 33V17C11 11.435 11.435 11 17 11ZM17.877 14.8789C16.655 14.8789 15.6641 15.8669 15.6641 17.0879C15.6641 18.3089 16.654 19.3008 17.877 19.3008C19.096 19.3008 20.0859 18.3089 20.0859 17.0879C20.0859 15.8689 19.096 14.8789 17.877 14.8789ZM29.4492 20.7422C27.6042 20.7422 26.3683 21.7558 25.8613 22.7148H25.8105V21.0469H22.1719V33.25H25.9629V27.2129C25.9629 25.6219 26.2643 24.0781 28.2383 24.0781C30.1833 24.0781 30.2109 25.8985 30.2109 27.3145V33.25H34V26.5566C34 23.2706 33.2892 20.7422 29.4492 20.7422ZM15.9785 21.0469V33.25H19.7715V21.0469H15.9785Z" fill="white"/>
</svg>
