<svg width="50" height="50" viewBox="0 0 50 50" fill="none" xmlns="http://www.w3.org/2000/svg">
<path d="M44 14.215C42.955 15.777 41.632 17.15 40.108 18.25C40.123 18.585 40.13 18.921 40.13 19.258C40.13 29.56 32.291 41.439 17.951 41.439C13.548 41.439 7.81 39.897 6 37.937C6.611 38.01 7.232 38.047 7.86 38.047C11.514 38.047 14.875 36.8 17.542 34.709C14.131 34.646 11.252 32.391 10.259 29.294C11.811 29.538 13.78 29.16 13.78 29.16C13.78 29.16 7.684 28.114 7.526 21.419C9.289 22.441 11.057 22.394 11.057 22.394C11.057 22.394 7.541 20.23 7.59 15.906C7.619 13.356 8.644 11.985 8.644 11.985C15.305 20.187 24.713 20.131 24.713 20.131C24.713 20.131 24.511 18.966 24.511 18.355C24.511 14.051 28.001 10.559 32.307 10.559C34.549 10.559 36.575 11.506 37.997 13.022C39.774 12.671 41.443 12.022 42.948 11.129C42.268 13.852 39.521 15.442 39.521 15.442C39.521 15.442 41.873 15.182 44 14.215ZM10.047 38.908C24.799 44.535 38.859 34.19 39.13 19.259C39.132 19.132 39.099 18.695 39.109 18.32C39.122 17.859 39.272 17.628 39.596 17.375C39.92 17.122 40.33 16.824 40.68 16.52C40.797 16.419 40.732 16.228 40.602 16.233C39.498 16.273 38.719 16.225 38.189 16.2C37.863 16.184 37.668 15.741 37.947 15.511C38.444 15.102 39.206 14.505 40.115 13.715C40.243 13.604 40.192 13.481 40.034 13.532C39.373 13.743 38.718 13.897 38.261 13.993C37.887 14.071 37.597 14.023 37.345 13.744C36.231 12.514 34.329 11.56 32.308 11.56C27.833 11.56 25.513 15.302 25.513 18.356C25.513 18.943 25.622 19.589 25.722 20.119C25.87 20.905 25.518 21.217 24.707 21.168C21.805 20.993 14.545 19.924 8.92 13.816C7.659 18.036 10.296 20.677 11.972 21.912C12.609 22.382 12.532 23.098 11.556 23.218C10.805 23.311 9.834 23.316 8.693 22.997C9.241 26.567 13.187 28.008 14.989 28.527C15.397 28.645 15.628 29.196 14.898 29.637C14.271 30.016 13.303 30.382 11.87 30.431C13.262 32.811 16.114 33.435 18.117 33.724C19.004 33.852 19.37 34.728 18.417 35.458C16.634 36.824 13.685 38.517 10.047 38.908Z" fill="white"/>
</svg>
