<svg width="50" height="50" viewBox="0 0 50 50" fill="none" xmlns="http://www.w3.org/2000/svg">
<path d="M17.7227 10C10.5607 10 10 10.5607 10 17.7227V32.2773C10 39.4393 10.5607 40 17.7227 40H32.2773C39.4393 40 40 39.4393 40 32.2773V17.7695C40 10.5635 39.4365 10 32.2305 10H17.7227ZM17 11H33C38.565 11 39 11.435 39 17V33C39 38.565 38.565 39 33 39H29.7129V29.3555H33.4531L34.0137 24.8945H29.7148V21.7715C29.7148 20.5345 30.5495 19.9004 31.4375 19.9004C32.3255 19.9004 34.1641 19.875 34.1641 19.875V15.8848C34.1641 15.8848 32.5284 15.6953 30.8574 15.6953C29.4534 15.6953 27.9079 16.0912 26.6699 17.3652C25.4109 18.6602 25.2285 20.5722 25.2285 22.9062V24.8965H21.4785V29.3574H25.2285V39H17C11.435 39 11 38.565 11 33V17C11 11.435 11.435 11 17 11Z" fill="white"/>
</svg>
