<svg width="50" height="50" viewBox="0 0 50 50" fill="none" xmlns="http://www.w3.org/2000/svg">
<path d="M25 12C11.492 12 9.68803 12.1355 7.95703 13.8555C6.22603 15.5765 6 18.311 6 25C6 31.689 6.22603 34.4235 7.95703 36.1445C9.68803 37.8645 11.492 38 25 38C38.508 38 40.312 37.8645 42.043 36.1445C43.774 34.4235 44 31.689 44 25C44 18.311 43.774 15.5765 42.043 13.8555C40.312 12.1355 38.508 12 25 12ZM25 13C38.937 13 40.2077 13.3621 41.2188 14.4141C42.2307 15.4661 43 16.2 43 25C43 33.8 42.223 34.5496 41.209 35.5586C40.175 36.5886 39.165 37 25 37C10.835 37 9.7317 36.555 8.7207 35.502C7.7087 34.45 7 33.687 7 25C7 16.313 7.76925 15.4661 8.78125 14.4141C9.79225 13.3621 11.95 13 25 13ZM21.7598 19.4141V30.5859L31.4766 24.9551L21.7598 19.4141Z" fill="white"/>
</svg>
