<svg width="54" height="26" viewBox="0 0 54 26" fill="none" xmlns="http://www.w3.org/2000/svg">
<g clip-path="url(#clip0_3_35)">
<path d="M23.701 7.98201H25.712V8.798C26.0222 8.47759 26.399 8.22928 26.8158 8.07065C27.2327 7.91201 27.6792 7.84692 28.124 7.88C28.5548 7.8733 28.9808 7.97127 29.3654 8.16548C29.75 8.35969 30.0817 8.64435 30.332 8.99501C30.6321 8.73873 30.9507 8.50477 31.285 8.29501C31.7415 8.04188 32.2493 7.89503 32.7704 7.86542C33.2916 7.83581 33.8127 7.92421 34.295 8.12401C34.7275 8.30061 35.1031 8.59287 35.3806 8.96875C35.658 9.34463 35.8267 9.78964 35.868 10.255C35.9128 10.5418 35.9345 10.8317 35.933 11.122C35.933 12.4173 35.933 13.713 35.933 15.009V15.22H33.813V15.02C33.813 13.792 33.825 12.562 33.806 11.333C33.7981 11.0282 33.7396 10.7267 33.633 10.441C33.56 10.2361 33.4266 10.0582 33.2504 9.93071C33.0742 9.80323 32.8634 9.7322 32.646 9.727C32.4145 9.68975 32.1775 9.70614 31.9533 9.7749C31.7291 9.84367 31.5237 9.96297 31.3529 10.1236C31.1821 10.2843 31.0505 10.482 30.9681 10.7016C30.8858 10.9211 30.855 11.1567 30.878 11.39C30.854 12.59 30.878 13.79 30.869 14.99V15.219H28.757V11.419C28.7695 11.0614 28.7011 10.7055 28.557 10.378C28.4779 10.2018 28.3539 10.0495 28.1973 9.93648C28.0407 9.82343 27.8571 9.7536 27.665 9.73401C27.4513 9.689 27.2303 9.69122 27.0175 9.74049C26.8047 9.78977 26.6052 9.88492 26.4331 10.0193C26.2609 10.1537 26.1201 10.3241 26.0206 10.5185C25.9211 10.7129 25.8653 10.9267 25.857 11.145C25.8356 11.3389 25.8246 11.5339 25.824 11.729C25.824 12.8237 25.824 13.9183 25.824 15.013V15.202C25.802 15.217 25.793 15.229 25.784 15.229H23.701V7.98201Z" fill="black"/>
<path d="M44.742 15.226H42.742V14.453C42.7162 14.4675 42.6914 14.4839 42.668 14.502C42.419 14.7595 42.1217 14.9655 41.7932 15.1081C41.4646 15.2507 41.1111 15.3271 40.753 15.333C40.2452 15.3811 39.7329 15.3207 39.2502 15.1559C38.7675 14.9911 38.3253 14.7256 37.953 14.377C37.382 13.8371 37.0144 13.1171 36.912 12.338C36.7322 11.3842 36.8993 10.3975 37.383 9.55599C37.6522 9.09551 38.0275 8.70601 38.4776 8.41988C38.9278 8.13375 39.4398 7.95927 39.971 7.91098C40.6428 7.79939 41.3328 7.90447 41.941 8.21098C42.1784 8.35312 42.4078 8.50836 42.628 8.67598V8.10799C42.628 8.02899 42.646 7.98299 42.738 7.98299H44.731L44.742 15.226ZM42.685 11.532C42.6761 11.3894 42.6587 11.2475 42.633 11.107C42.5875 10.7625 42.4368 10.4405 42.2014 10.1849C41.9661 9.9293 41.6575 9.75262 41.318 9.67899C40.983 9.57566 40.6245 9.57636 40.29 9.68099C39.9554 9.78561 39.6604 9.98923 39.444 10.265C39.2421 10.5245 39.1027 10.8269 39.0364 11.1489C38.9702 11.471 38.9789 11.8039 39.062 12.122C39.1177 12.4271 39.2505 12.7129 39.4477 12.9523C39.6449 13.1917 39.9 13.3767 40.1887 13.4899C40.4775 13.6031 40.7904 13.6407 41.0978 13.599C41.4051 13.5574 41.6967 13.4379 41.945 13.252C42.1986 13.0468 42.3986 12.783 42.5277 12.4834C42.6568 12.1838 42.7111 11.8573 42.686 11.532H42.685Z" fill="black"/>
<path d="M45.77 15.209L48.536 11.583L45.859 7.99598C45.936 7.99598 45.982 7.98098 46.03 7.98098H48.07C48.1189 7.97739 48.1678 7.98723 48.2115 8.00944C48.2552 8.03165 48.292 8.06538 48.318 8.10699C48.786 8.75999 49.261 9.40698 49.746 10.076C49.783 10.033 49.816 9.99898 49.846 9.96098C50.307 9.34398 50.768 8.72798 51.226 8.10798C51.2519 8.06623 51.2886 8.03228 51.3323 8.00974C51.376 7.98721 51.4249 7.97693 51.474 7.97999H53.581L50.891 11.521C51.819 12.746 52.742 13.969 53.685 15.221C53.596 15.221 53.536 15.23 53.485 15.23H51.442C51.3902 15.2335 51.3385 15.2225 51.2925 15.1983C51.2466 15.1742 51.2083 15.1377 51.182 15.093C50.736 14.451 50.269 13.811 49.811 13.172C49.78 13.127 49.746 13.084 49.701 13.023C49.401 13.423 49.115 13.813 48.828 14.202C48.602 14.502 48.382 14.815 48.148 15.117C48.1057 15.1703 48.0451 15.2059 47.978 15.217H45.84C45.8164 15.2175 45.7928 15.2148 45.77 15.209Z" fill="black"/>
<path d="M20.044 9.955C20.0431 7.3713 19.0387 4.88896 17.2426 3.03167C15.4465 1.17438 12.9992 0.087385 10.417 0H10.017C8.30464 0.000301206 6.6216 0.444282 5.13193 1.28866C3.64227 2.13304 2.39681 3.349 1.51697 4.818C0.732487 6.06089 0.237154 7.46409 0.0675352 8.92403C-0.102084 10.384 0.0583376 11.8634 0.536964 13.253C1.19401 15.0749 2.11774 16.7892 3.27797 18.34C4.68089 20.2513 6.26563 22.0222 8.00997 23.628C8.65497 24.228 9.32297 24.807 9.99197 25.413C10.092 25.34 10.148 25.297 10.203 25.251C12.5349 23.3207 14.6388 21.1305 16.474 18.723C17.7001 17.1468 18.6854 15.3974 19.398 13.532C19.4586 13.3633 19.5153 13.1967 19.568 13.032C19.8886 12.0379 20.0502 10.9995 20.047 9.955H20.044Z" fill="#FDDB00"/>
<path d="M14.0809 5.88401C14.1393 5.88371 14.1972 5.89528 14.251 5.91801C14.303 5.94165 14.3496 5.97568 14.3879 6.01801C14.4705 6.10199 14.5166 6.21522 14.516 6.33301V13.746C14.5163 13.7838 14.5088 13.8212 14.4939 13.856C14.4805 13.8891 14.4608 13.9193 14.4359 13.945C14.4113 13.9714 14.3813 13.9922 14.348 14.006C14.3136 14.0209 14.2764 14.0284 14.2389 14.028H13.0489C13.0115 14.0278 12.9745 14.0204 12.9399 14.006C12.8895 13.984 12.8466 13.9476 12.8167 13.9013C12.7869 13.8551 12.7713 13.8011 12.7719 13.746V8.68601C12.7742 8.67378 12.7742 8.66123 12.7719 8.64901C12.7671 8.63766 12.76 8.62745 12.751 8.61901C12.7422 8.61083 12.7321 8.60438 12.7209 8.60001C12.7097 8.5978 12.6982 8.5978 12.6869 8.60001H12.656L12.6399 8.60901L12.6249 8.62201L11.1039 10.191C11.0784 10.218 11.0556 10.2475 11.0359 10.279C11.0153 10.3104 10.9982 10.3439 10.9849 10.379C10.9715 10.4137 10.9611 10.4495 10.9539 10.486C10.9468 10.5229 10.9435 10.5604 10.9439 10.598V13.74C10.9436 13.7777 10.9361 13.8151 10.9219 13.85C10.9083 13.8832 10.8882 13.9135 10.863 13.939C10.8375 13.9645 10.8077 13.9851 10.7749 14C10.741 14.0139 10.7046 14.0211 10.6679 14.021H9.47794C9.44112 14.0213 9.40465 14.0138 9.37095 13.999C9.33799 13.9854 9.30808 13.9653 9.28295 13.94C9.25827 13.9134 9.23862 13.8826 9.22495 13.849C9.20985 13.8143 9.20235 13.7768 9.20295 13.739V10.594C9.20334 10.5564 9.19998 10.5189 9.19294 10.482C9.18535 10.4456 9.175 10.4098 9.16195 10.375C9.14805 10.3402 9.13097 10.3067 9.11094 10.275C9.09122 10.2441 9.06844 10.2153 9.04294 10.189L7.53394 8.61401L7.51894 8.60101H7.46995C7.45829 8.60134 7.44679 8.60371 7.43595 8.60801C7.4256 8.61226 7.41611 8.61836 7.40795 8.62601C7.3988 8.63432 7.39162 8.64457 7.38694 8.65601C7.38217 8.66845 7.37981 8.68168 7.37995 8.69501V13.732C7.38047 13.7695 7.37296 13.8067 7.35795 13.841C7.34454 13.8747 7.32486 13.9056 7.29995 13.932C7.27482 13.9573 7.2449 13.9774 7.21195 13.991C7.17828 14.006 7.14177 14.0135 7.10494 14.013H5.92394C5.88787 14.0127 5.85221 14.0052 5.81907 13.991C5.78593 13.9767 5.75597 13.956 5.73095 13.93C5.70583 13.9043 5.6858 13.8741 5.67194 13.841C5.6581 13.806 5.65098 13.7687 5.65095 13.731V6.33901C5.65051 6.25269 5.67512 6.16811 5.72181 6.09551C5.76849 6.02292 5.83523 5.96542 5.91395 5.93001C5.96705 5.90735 6.02421 5.89578 6.08195 5.89601H7.18795C7.2185 5.89603 7.24898 5.89905 7.27895 5.90501C7.30846 5.91108 7.33727 5.92013 7.36495 5.93201C7.39316 5.94408 7.41999 5.95916 7.44495 5.97701C7.46995 5.99461 7.49336 6.01435 7.51494 6.03601L9.97295 8.58501L9.99494 8.60401L10.0229 8.61601L10.0499 8.62501H10.1069L10.1349 8.61601L10.1599 8.60301C10.1686 8.59682 10.1767 8.58979 10.184 8.58201L12.6469 6.02701C12.6682 6.00499 12.6916 5.98522 12.7169 5.96801C12.7419 5.95017 12.7687 5.93508 12.7969 5.92301C12.8246 5.91112 12.8534 5.90208 12.8829 5.89601C12.9131 5.88903 12.944 5.88568 12.975 5.88601L14.0809 5.88401Z" fill="black"/>
</g>
<defs>
<clipPath id="clip0_3_35">
<rect width="53.687" height="25.417" fill="white"/>
</clipPath>
</defs>
</svg>
