<svg fill="#000000" xmlns="http://www.w3.org/2000/svg"  viewBox="0 0 24 24" width="24px" height="24px"><path d="M21.928,10.788c-0.538-4.551-4.255-8.232-8.81-8.727C7.098,1.407,2,6.112,2,12c0,4.459,2.926,8.24,6.96,9.529l0,0.011 c0.01,0,0.03,0.01,0.04,0.01c0.18,0.06,0.37,0.11,0.56,0.15c0.07,0.03,0.14,0.04,0.21,0.06h0.05 c0.008,0.001,0.016-0.003,0.024-0.001c0.002,0,0.004,0.001,0.006,0.001c0.6,0.1,1.16-0.38,1.15-0.99v-0.83 c-0.007-0.001-0.013-0.003-0.02-0.004l-0.01-0.926l3.98-2.99c0.77-0.64,1.15-1.55,1.03-2.45c0,0-0.86-6.9-0.86-6.95 c0-0.1-0.03-0.2-0.08-0.29c-0.07-0.15-0.22-0.27-0.39-0.31c0,0,0,0-0.01,0C14.6,6.01,14.55,6,14.5,6c-0.35,0-0.63,0.28-0.63,0.62 c0,0.07-0.08,5.83-0.08,5.83c0,0.01,0,0.01,0,0.02c0,0.28-0.22,0.42-0.45,0.5c-0.05,0.02-0.1,0.02-0.14,0.02 c-0.35,0-0.58-0.23-0.58-0.51V6.61c0-0.05-0.01-0.1-0.02-0.15C12.54,6.2,12.28,6.02,12,6.02c-0.27,0-0.53,0.18-0.6,0.44 c-0.01,0.05-0.02,0.1-0.02,0.15l-0.01,5.89c0,0.28-0.3,0.49-0.63,0.49c-0.35,0-0.62-0.21-0.62-0.49V6.75c0-0.02,0-0.1,0-0.12 C10.12,6.28,9.84,6,9.49,6C9.45,6,9.41,6,9.38,6.01c0,0,0,0-0.01,0c-0.18,0.04-0.381,0.127-0.41,0.3 c-0.328,1.978-0.93,7.16-0.93,7.16C7.9,14.43,8.13,15.38,9,16.03L10.21,17c0,0-1.23,0.86-1.23,2.01v0.385 C6.057,18.208,4,15.338,4,12c0-4.724,4.119-8.506,8.952-7.945c3.591,0.417,6.529,3.321,6.982,6.908 c0.479,3.794-1.715,7.157-4.964,8.457v-0.48c-0.02-0.52-0.45-0.95-0.99-0.95c-0.55,0-0.99,0.45-0.99,0.99v1.795 c0,0.631,0.581,1.12,1.198,0.984c0.266-0.059,0.527-0.128,0.782-0.209C19.402,20.167,22.518,15.783,21.928,10.788z"/></svg>